<svg width="105" height="105" viewBox="0 0 105 105" fill="none" xmlns="http://www.w3.org/2000/svg">
<path fill-rule="evenodd" clip-rule="evenodd" d="M98.7766 75.0935C99.7146 76.6872 99.997 78.5431 99.5431 80.3284C99.0892 82.1137 97.9697 83.6166 96.376 84.5647L66.7824 102.075C63.5245 103.981 59.8328 105 56.0706 105C54.8098 105 53.5288 104.879 52.3083 104.667L41.5965 102.236C39.4481 101.742 37.219 101.48 35 101.48H21V101.5C21 102.458 20.2133 103.255 19.2551 103.255H7C6.04178 103.255 5.24496 102.458 5.24496 101.5V76.9999C5.24496 76.0316 6.04178 75.2549 7 75.2549H19.2551C20.2133 75.2549 21 76.0316 21 76.9999V77.837L25.428 75.9509C32.2161 73.046 39.9323 72.7131 46.9524 75.0532L52.7824 76.9999H70.8775C71.1733 76.9999 71.4591 77.0234 71.7348 77.0705C71.7483 77.0637 71.7584 77.0637 71.7651 77.0705C71.8391 77.0839 71.9097 77.0974 71.9769 77.1108C72.0576 77.1243 72.1416 77.1411 72.2291 77.1613C72.3097 77.1747 72.3904 77.1915 72.4711 77.2117C72.5518 77.2251 72.6258 77.2487 72.693 77.2823C72.841 77.3226 72.9855 77.3764 73.1267 77.4437C73.2142 77.4773 73.3016 77.5143 73.389 77.5546C73.4831 77.595 73.5739 77.6387 73.6613 77.6857C73.7622 77.7328 73.8664 77.79 73.974 77.8572C74.0413 77.8908 74.1085 77.9312 74.1757 77.9783C74.6128 78.2674 75.0095 78.6036 75.3659 78.9869C75.4735 79.1012 75.5744 79.2155 75.6685 79.3298C75.7358 79.4173 75.8064 79.5114 75.8803 79.6123C75.9341 79.6862 75.9846 79.7636 76.0316 79.8442C76.1392 79.9989 76.2367 80.1603 76.3241 80.3284L89.4063 72.693C92.644 70.8068 96.8501 71.876 98.7766 75.0935ZM95.7607 76.899C95.1354 75.85 94.0158 75.2549 92.8558 75.2549C92.2708 75.2482 91.7127 75.3995 91.1815 75.7088L76.9293 84.0301L76.9091 84.0503C76.4553 86.9854 73.9337 89.2549 70.8775 89.2549H50.755C49.7867 89.2549 49 88.4682 49 87.4999C49 86.5316 49.7867 85.7549 50.755 85.7549H70.8775C72.3198 85.7549 73.4899 84.5748 73.5 83.1324C73.4865 83.1055 73.4798 83.0753 73.4798 83.0416C73.4798 82.8668 73.463 82.7021 73.4293 82.5474C73.4226 82.5272 73.4192 82.5104 73.4192 82.497C73.3991 82.4297 73.3789 82.3625 73.3587 82.2953C73.3184 82.2213 73.2848 82.1406 73.2579 82.0532C73.2579 82.033 73.2444 82.0095 73.2175 81.9826C73.1705 81.8481 73.1032 81.7271 73.0158 81.6195C72.9486 81.5186 72.8712 81.4245 72.7838 81.337C72.7435 81.2832 72.6964 81.2362 72.6426 81.1958C72.6359 81.1958 72.6325 81.1925 72.6325 81.1857C72.5922 81.1521 72.5552 81.1219 72.5216 81.095C72.5081 81.0882 72.498 81.0815 72.4913 81.0748C72.4039 80.9941 72.3198 80.9369 72.2392 80.9033C72.1248 80.8226 72.0105 80.7588 71.8962 80.7117C71.7415 80.6444 71.5768 80.5906 71.402 80.5503C71.2339 80.5167 71.059 80.4999 70.8775 80.4999H52.5C52.3117 80.4999 52.1268 80.4696 51.9452 80.4091L45.853 78.3817C39.6398 76.3039 32.8112 76.5964 26.7896 79.1685L21 81.6598V97.9797H35C37.4812 97.9797 39.9726 98.2621 42.3833 98.8269L53.0043 101.238C53.9524 101.409 55.0216 101.5 56.0706 101.5C59.2075 101.5 62.2838 100.663 64.9971 99.0488L94.5907 81.5489C95.3774 81.0748 95.9221 80.3385 96.144 79.471C96.376 78.5935 96.2348 77.6656 95.7607 76.899Z" fill="url(#paint0_linear_42_43385)"/>
<path fill-rule="evenodd" clip-rule="evenodd" d="M39.9222 16.6225C39.9222 16.4006 39.8617 15.8357 39.2363 15.4726C38.0764 14.817 37.2594 13.768 36.9063 12.5072C36.5735 11.2464 36.745 9.95532 37.4107 8.83573L38.0763 7.74639C39.4279 5.45677 42.4236 4.67002 44.7637 5.98126C45.2377 6.24351 45.8026 6.24351 46.2565 5.96109C46.4683 5.84005 46.9222 5.5072 46.9222 4.83141C46.9222 2.16859 49.1412 0 51.8544 0H53.1455C55.8588 0 58.0879 2.16859 58.0879 4.83141C58.0879 5.5072 58.5417 5.84005 58.7536 5.96109C59.2075 6.24351 59.7622 6.24351 60.2363 5.98126C62.5662 4.67002 65.572 5.45677 66.9337 7.74639L67.5893 8.83573C68.255 9.95532 68.4265 11.2464 68.0936 12.5072C67.7406 13.768 66.9236 14.817 65.7637 15.4726C65.1383 15.8357 65.0878 16.4006 65.0878 16.6225C65.0878 16.8545 65.1383 17.4092 65.7637 17.7824C66.9236 18.4279 67.7406 19.4769 68.0936 20.7377C68.4265 21.9985 68.255 23.2896 67.5893 24.4092L66.9337 25.4985C65.572 27.7882 62.5662 28.5749 60.2363 27.2637C59.7622 27.0014 59.2075 27.0014 58.7536 27.2838C58.5417 27.4049 58.0879 27.7377 58.0879 28.4236C58.0879 31.0763 55.8588 33.2449 53.1455 33.2449H51.8544C49.1412 33.2449 46.9222 31.0763 46.9222 28.4236C46.9222 27.7377 46.4683 27.4049 46.2565 27.2838C45.8026 27.0014 45.2377 27.0014 44.7637 27.2637C42.4337 28.5749 39.428 27.7882 38.0663 25.4985L37.4107 24.4092C36.745 23.2896 36.5735 21.9985 36.9063 20.7377C37.2594 19.4769 38.0764 18.4279 39.2363 17.7824C39.8617 17.4092 39.9222 16.8545 39.9222 16.6225ZM43.4222 16.6225C43.4222 18.3775 42.5043 19.951 40.951 20.8285C40.6181 21 40.3861 21.2925 40.2853 21.6455C40.1945 21.9784 40.255 22.3314 40.4265 22.6239L41.072 23.7132C41.4755 24.3789 42.3732 24.6008 43.049 24.2176C43.8256 23.7838 44.6628 23.572 45.5 23.572C46.3876 23.572 47.2281 23.7973 48.0216 24.2478C49.5245 25.1455 50.4222 26.6887 50.4222 28.4236C50.4222 29.1498 51.0677 29.7449 51.8544 29.7449H53.1455C53.9322 29.7449 54.5879 29.1498 54.5879 28.4236C54.5879 26.6887 55.4755 25.1455 56.9784 24.2478C58.5216 23.3602 60.3775 23.33 61.951 24.2176C62.6369 24.6008 63.5245 24.3789 63.9279 23.7132L64.5735 22.6239C64.755 22.3314 64.8054 21.9784 64.7147 21.6455C64.6138 21.2925 64.3818 21 64.0489 20.8285C62.5158 19.951 61.5879 18.3775 61.5879 16.6225C61.5879 14.8775 62.5158 13.304 64.0489 12.4265C64.3818 12.2449 64.6138 11.9524 64.7147 11.5994C64.8054 11.2666 64.755 10.9135 64.5735 10.621L63.9279 9.53169C63.5245 8.86599 62.6369 8.64408 61.951 9.02737C60.3775 9.92506 58.5216 9.90489 56.9784 8.99711C55.4755 8.09942 54.5879 6.55619 54.5879 4.83141C54.5879 4.0951 53.9322 3.5 53.1455 3.5H51.8544C51.0677 3.5 50.4222 4.0951 50.4222 4.83141C50.4222 6.55619 49.5245 8.09942 48.0216 8.99711C46.4784 9.88472 44.6225 9.90489 43.049 9.02737C42.3732 8.64408 41.4755 8.86599 41.072 9.53169L40.4265 10.621C40.255 10.9135 40.1945 11.2666 40.2853 11.5994C40.3861 11.9524 40.6181 12.2449 40.951 12.4265C42.4942 13.304 43.4222 14.8775 43.4222 16.6225Z" fill="url(#paint1_linear_42_43385)"/>
<path d="M52.4999 21.8773C55.3847 21.8773 57.755 19.507 57.755 16.6222C57.755 13.7375 55.3847 11.3773 52.4999 11.3773C49.6152 11.3773 47.255 13.7375 47.255 16.6222C47.255 19.507 49.6152 21.8773 52.4999 21.8773Z" fill="url(#paint2_linear_42_43385)"/>
<path fill-rule="evenodd" clip-rule="evenodd" d="M17.5 59.5C7.85733 59.5 0 51.6426 0 42C0 32.3574 7.85733 24.5 17.5 24.5C27.1426 24.5 35 32.3574 35 42C35 51.6426 27.1426 59.5 17.5 59.5ZM17.5 54.2449C18.4582 54.2449 19.255 53.4582 19.255 52.5V50.7449C22.1398 50.7449 24.5 48.3847 24.5 45.5C24.5 42.6153 22.1398 40.245 19.255 40.245H15.755C14.7867 40.245 14 39.4582 14 38.5C14 37.5317 14.7867 36.745 15.755 36.745H22.755C23.7132 36.745 24.5 35.9582 24.5 35C24.5 34.0317 23.7132 33.245 22.755 33.245H19.255V31.5C19.255 30.5317 18.4582 29.745 17.5 29.745C16.5418 29.745 15.755 30.5317 15.755 31.5V33.245C12.8602 33.245 10.5 35.6153 10.5 38.5C10.5 41.3847 12.8602 43.745 15.755 43.745H19.255C20.2132 43.745 21 44.5317 21 45.5C21 46.4582 20.2132 47.245 19.255 47.245H12.2449C11.2867 47.245 10.5 48.0418 10.5 49C10.5 49.9582 11.2867 50.7449 12.2449 50.7449H15.755V52.5C15.755 53.4582 16.5418 54.2449 17.5 54.2449Z" fill="url(#paint3_linear_42_43385)"/>
<path fill-rule="evenodd" clip-rule="evenodd" d="M105 42C105 46.7104 103.144 50.9769 100.098 54.1239C100.044 54.1912 99.9869 54.2517 99.9264 54.3055C96.7593 57.5029 92.3515 59.5 87.4999 59.5C82.6584 59.5 78.2406 57.5029 75.0734 54.3055C75.0196 54.2517 74.9625 54.1912 74.902 54.1239C71.8559 50.9769 70 46.7104 70 42C70 32.3574 77.8573 24.5 87.4999 24.5C97.1426 24.5 105 32.3574 105 42ZM101.5 42C101.5 34.2839 95.216 28 87.4999 28C79.7838 28 73.5 34.2839 73.5 42C73.5 44.9049 74.3976 47.6182 75.9308 49.8573C78.5028 46.0749 82.7895 43.745 87.4999 43.745C92.2103 43.745 96.497 46.0749 99.0691 49.8573C100.612 47.6182 101.5 44.9049 101.5 42Z" fill="url(#paint4_linear_42_43385)"/>
<path d="M87.4999 31.5C84.6152 31.5 82.255 33.8602 82.255 36.7449C82.255 39.6397 84.6152 41.9999 87.4999 41.9999C90.3846 41.9999 92.7549 39.6397 92.7549 36.7449C92.7549 33.8602 90.3846 31.5 87.4999 31.5Z" fill="url(#paint5_linear_42_43385)"/>
<path d="M50.755 38.5001V70.0001C50.755 70.9684 51.5317 71.7451 52.5 71.7451C53.4683 71.7451 54.255 70.9684 54.255 70.0001V38.5001C54.255 37.5318 53.4683 36.7451 52.5 36.7451C51.5317 36.7451 50.755 37.5318 50.755 38.5001Z" fill="url(#paint6_linear_42_43385)"/>
<path d="M61.7593 71.2406C62.1022 71.5835 62.5561 71.7449 62.9999 71.7449C63.4538 71.7449 63.8976 71.5835 64.2405 71.2406L74.7405 60.7406C75.4264 60.0547 75.4264 58.9452 74.7405 58.2593C74.0547 57.5734 72.9452 57.5734 72.2694 58.2593L61.7593 68.7593C61.0835 69.4452 61.0835 70.5547 61.7593 71.2406Z" fill="url(#paint7_linear_42_43385)"/>
<path d="M30.2593 58.2593C29.5835 58.9452 29.5835 60.0547 30.2593 60.7406L40.7593 71.2406C41.1023 71.5835 41.5562 71.7449 42 71.7449C42.4539 71.7449 42.8977 71.5835 43.2406 71.2406C43.9265 70.5547 43.9265 69.4452 43.2406 68.7593L32.7406 58.2593C32.0547 57.5734 30.9452 57.5734 30.2593 58.2593Z" fill="url(#paint8_linear_42_43385)"/>
<defs>
<linearGradient id="paint0_linear_42_43385" x1="7.28848" y1="106.209" x2="110.364" y2="16.0172" gradientUnits="userSpaceOnUse">
<stop stop-color="#00A995"/>
<stop offset="0.5" stop-color="#006EB8"/>
<stop offset="1" stop-color="#00A94F"/>
</linearGradient>
<linearGradient id="paint1_linear_42_43385" x1="-56.5657" y1="80.0803" x2="76.39" y2="-36.2554" gradientUnits="userSpaceOnUse">
<stop stop-color="#00A995"/>
<stop offset="0.5" stop-color="#006EB8"/>
<stop offset="1" stop-color="#00A94F"/>
</linearGradient>
<linearGradient id="paint2_linear_42_43385" x1="-49.3187" y1="95.8735" x2="88.9454" y2="-25.1072" gradientUnits="userSpaceOnUse">
<stop stop-color="#00A995"/>
<stop offset="0.5" stop-color="#006EB8"/>
<stop offset="1" stop-color="#00A94F"/>
</linearGradient>
<linearGradient id="paint3_linear_42_43385" x1="-49.9067" y1="68.1652" x2="88.2867" y2="-52.7541" gradientUnits="userSpaceOnUse">
<stop stop-color="#00A995"/>
<stop offset="0.5" stop-color="#006EB8"/>
<stop offset="1" stop-color="#00A94F"/>
</linearGradient>
<linearGradient id="paint4_linear_42_43385" x1="-35.8804" y1="117.144" x2="102.306" y2="-3.76906" gradientUnits="userSpaceOnUse">
<stop stop-color="#00A995"/>
<stop offset="0.5" stop-color="#006EB8"/>
<stop offset="1" stop-color="#00A94F"/>
</linearGradient>
<linearGradient id="paint5_linear_42_43385" x1="-28.236" y1="128.177" x2="110.031" y2="7.19268" gradientUnits="userSpaceOnUse">
<stop stop-color="#00A995"/>
<stop offset="0.5" stop-color="#006EB8"/>
<stop offset="1" stop-color="#00A94F"/>
</linearGradient>
<linearGradient id="paint6_linear_42_43385" x1="-85.0036" y1="3.92684" x2="18.6747" y2="-86.791" gradientUnits="userSpaceOnUse">
<stop stop-color="#00A995"/>
<stop offset="0.5" stop-color="#006EB8"/>
<stop offset="1" stop-color="#00A94F"/>
</linearGradient>
<linearGradient id="paint7_linear_42_43385" x1="3.83688" y1="107.987" x2="109.396" y2="15.6221" gradientUnits="userSpaceOnUse">
<stop stop-color="#00A995"/>
<stop offset="0.5" stop-color="#006EB8"/>
<stop offset="1" stop-color="#00A94F"/>
</linearGradient>
<linearGradient id="paint8_linear_42_43385" x1="-127.571" y1="195.405" x2="303.266" y2="-181.578" gradientUnits="userSpaceOnUse">
<stop stop-color="#00A995"/>
<stop offset="0.5" stop-color="#006EB8"/>
<stop offset="1" stop-color="#00A94F"/>
</linearGradient>
</defs>
</svg>
