<svg width="1920" height="5115" viewBox="0 0 1920 5115" fill="none" xmlns="http://www.w3.org/2000/svg">
<path fill-rule="evenodd" clip-rule="evenodd" d="M1920 275.59V5114.02H0V270.29H7.8V273.74H19.92L20.26 274.11H21.55V264.63H22.63V265.43L27.96 257.26V256.52H28.21V257.09L31.89 255.08V226.3L32.03 225.98V223.38L32.39 222.43V219.8L32.24 219.69V219.33L32.44 219.16V218.09L32.7 217.84V211.85L33.05 211.56L33.74 205.1H33.91V204.35H33.66V204.08H33.91V203.68H34.1V204.08H34.36V204.35H34.11V205.1H34.28L34.97 211.56L35.32 211.85V212.62L38.01 202.06L39.3 189.42V184.89H39.72L42.8 155.16V154.3L42.68 154.19V153.64L43.07 153.25V150.01C43.0033 149.99 42.9233 149.947 42.83 149.88C42.66 149.74 42.62 149.33 42.55 149.18C42.47 149.02 42.24 149.01 42.24 149.01L42.22 148.98L42.29 148.94C42.29 148.94 42.33 148.79 42.43 148.79C42.53 148.783 42.65 148.853 42.79 149C42.94 149.13 42.95 149.42 42.95 149.42H43.16C43.16 149.42 43.32 149.07 43.4 148.85C43.49 148.63 43.9 148.5 43.9 148.5V149.28C43.9 149.28 43.74 149.33 43.65 149.4C43.55 149.46 43.42 149.74 43.38 149.88C43.3533 149.953 43.31 150 43.25 150.02V153.25L43.64 153.64V154.19L43.52 154.3V155.16L46.6 184.89H47.02V189.42L48.32 202.06L51 212.62V211.85L51.35 211.56L52.05 205.1H52.21V204.35H51.96V204.08H52.22V203.68H52.41V204.08H52.67V204.35H52.41V205.1H52.58L53.27 211.56L53.62 211.85V217.84L53.88 218.09V219.16L54.09 219.33V219.69L53.93 219.8V222.43L54.29 223.38V225.98L54.43 226.3V240.2H60.89L69.22 255.49H69.63V257L70.56 259.37V262.6L71.26 264.26V265.37L76.53 270.26V258.39H77.72L78.51 259.79H80.1V241.37L81.77 240.32V207.16H101.76V207.86H105.41V206.9H107.08V222.16H108.35V220.67H128.5V248.22H144.69V249L144.14 250.06V267.51H149.06L149.93 268.65H155.33L155.88 269.62H158.06V62.31H172.29V63.47H181.19V55.27L180.56 54.79V53.16H207.94L210.32 55.8H226.03V54.87H231.62V55.93L257.53 58.95V61.01L257.05 62.59V284.36H260.54V92.9H261.38V78.3H259.59C259.59 78.3 259.59 54.87 259.59 52.24C259.59 49.61 264.35 47.9 267.33 47.9C270.31 47.9 272.21 47.9 272.21 47.9V30.93H273.16V48.16C273.16 48.16 280.78 48.16 289.23 48.16C297.68 48.16 311.96 50.27 317.56 51.45C323.15 52.64 324.46 56.19 324.46 56.19V80.27H322.56V94.48H324.98V258.83H326.74V257.78H327.46V258.76H330.19V257.78H332.1V258.7H334.6V235.54L334.18 234.82V233.43H350.85V193.5H351.8V201.33H366.62V202.25H372.69V201.46H378.22V202.51H380.3V205.34H386.79L387.39 206.39V252.18H389.65V243.24H390.24V252.84H393.82V250.8H395.06V249.88H397.45V247.18L398.81 245.8V241.06H403.52V245.14L404.23 245.87V247.91H412.03V246.66H412.56V247.91H417.8L424.46 251.99L425.89 250.14H427.97L429.34 248.17L430.59 250.01H435.89L437.14 248.5H439.04V241.99H444.32V233.43H445.67V228.78H446.19V233.39H458.8V232.73H484.95V233.39L485.94 234.58H487.25V113.03H495.98V111.54L499.63 109.96H513.28V111.37H544.14V114.35H544.78V117.86L544.14 118.91V283.57H547.36V59.35H548.43V6.45L566.05 0H602.35V56.45H608.1V195.05H615.48V196.02H621.51V197.69L620.56 199.09V200.41H625.38V98.89H624.96V76.72L625.38 75.86V71.39H627.4V72.77H628.95L629.37 73.43H634.43V74.74H633.77V76.12H636.75V70.86H640.32V71.72H657.81V57.77H658.65V71.72H675.67V76.85L674.84 77.64V230.93H682.33L683.17 232.91H697.09V237.25H702.69L705.05 235.95V192.02L702.14 190.74V190H702.4V87.14L722.56 83.18V64.72H724.41V65.18L747.78 81.2H748.87V195.83H749.37V197.31H748.97V231.85H757.32L758.15 233.17H760.54V190.8H762.32V174.75H766.96V173.04H780.77V156.85H801.96V173.83H806.84V242.69H817.27V249.44H822.35L823.54 251.46H829.81V250.41L832.19 248.83V247.69H836V239.09H839.96V202.95H857.58V174.35L856.95 173.56V169.79H914.63V175.49H913.4V176.33L914.55 177.6V245.85H930.03V260.67H937.49V257.43L938.52 255.85H939.47V249.97H940.34V255.85H944.87V249.88H945.74V261.46H953.2V258.65H953.91V259.71H959.7V256.37L960.42 255.67V253.83L963.43 246.72H964.23V263.04H972.67V256.02L972.08 253.24H972.04V252.79H972.08V251.84H972.06V251.69H972.09V244.56H972.04V243.52H972.1V240.66L972.04 240.61V240.46L972.1 240.42V240.04L972.17 239.98L973.01 237.73V237.5L973.06 237.4V237.11H972.9V236.97H973.06V236.68H973.13V231.64H975.03V236.56H979.52L980.44 234.09V233.73L980.52 233.58V233.12H980.27V232.88H980.52V232.42H980.72V232.88H980.97V233.12H980.72V233.58L980.8 233.73V234.09L981.72 236.56H986.21V231.64H988.12V236.68H988.18V236.97H988.34V237.11H988.18V237.4L988.23 237.5V237.73L989.07 239.98L989.14 240.04V240.42L989.2 240.46V240.61L989.14 240.66V243.52H989.2V243.88H1010.05L1010.82 242.73V242.04L1010.94 241.89V241.22H1010.71V240.86H1010.97V240.47L1011.17 240.23L1011.38 240.47V240.86H1011.64V241.22H1011.41V241.89L1011.53 242.04V242.73L1012.3 243.88H1032.39L1033.71 240.33V239.98L1033.78 239.82V239.36H1033.53V239.13H1033.78V238.67H1033.99V239.13H1034.24V239.36H1033.99V239.82L1034.06 239.98V240.33L1034.86 242.49V241.48H1034.81V241.2H1034.86V240.26H1034.81V239.99H1034.86V234.88H1034.81V234.33H1034.88V216.11H1034.81V215.39H1034.88V213.9H1034.84V213.64H1034.9V202.32H1034.81V200.67H1034.9V196.13L1034.81 196.05V195.8L1034.9 195.73V195.13L1035.02 195.05L1036.36 191.46V191.1L1036.43 190.95V190.49H1036.18V190.25H1036.43V189.79H1036.64V190.25H1036.89V190.49H1036.64V190.95L1036.71 191.1V191.46L1037.97 194.85L1039.41 193.07V185.72L1039.33 185.58V185.26L1040.06 183.08V182.42H1040.23V183.08H1040.38L1043.51 162.72V162.41C1043.51 162.41 1042.83 162.37 1042.83 161.35C1042.83 160.32 1043.81 160.3 1043.81 160.3C1043.81 160.3 1044.8 160.32 1044.8 161.35C1044.8 162.37 1044.11 162.41 1044.11 162.41V162.72L1047.24 183.08H1047.39V182.42H1047.57V183.08L1048.29 185.26V185.58L1048.22 185.72V193.07L1049.65 194.85L1050.91 191.46V191.1L1050.99 190.95V190.49H1050.74V190.25H1050.99V189.79H1051.19V190.25H1051.44V190.49H1051.19V190.95L1051.27 191.1V191.46L1052.6 195.05L1052.73 195.13V195.73L1052.81 195.8V196.05L1052.73 196.13V200.67H1052.81V202.32H1052.73V213.64H1052.79V213.9H1052.75V215.39H1052.81V216.11H1052.75V234.33H1052.81V234.88H1052.76V239.99H1052.81V240.26H1052.77V241.2H1052.81V241.48H1052.76V242.49L1053.57 240.33V239.98L1053.64 239.82V239.36H1053.39V239.13H1053.64V238.67H1053.84V239.13H1054.09V239.36H1053.84V239.82L1053.92 239.98V240.33L1055.24 243.88H1075.33L1076.1 242.73V242.04L1076.22 241.89V241.22H1075.99V240.86H1076.25V240.47L1076.45 240.23L1076.66 240.47V240.86H1076.91V241.22H1076.68V241.89L1076.8 242.04V242.73L1077.58 243.88H1098.43V243.52H1098.48V240.66L1098.43 240.61V240.46L1098.48 240.42V240.04L1098.56 239.98L1099.4 237.73V237.5L1099.45 237.4V237.11H1099.29V236.97H1099.45V236.68H1099.51V231.64H1101.41V236.56H1105.91L1106.83 234.09V233.73L1106.9 233.58V233.12H1106.65V232.88H1106.9V232.42H1107.11V232.88H1107.36V233.12H1107.11V233.58L1107.18 233.73V234.09L1108.1 236.56H1112.6V231.64H1114.5V236.68H1114.57V236.97H1114.72V237.11H1114.57V237.4L1114.61 237.5V237.73L1115.45 239.98L1115.53 240.04V240.42L1115.58 240.46V240.61L1115.53 240.66V243.52H1115.58V244.56H1115.53V251.69H1115.57V251.84H1115.54V252.79H1115.58V253.24H1115.54L1114.95 256.02V259.19H1120.85V186.3H1134.18V183.28H1154.68V186.97H1163.06V223.24H1164.97V220.9H1175.07V207.73H1194.05V206.39H1200.82V219.45H1205.06V212.13H1217.07L1220.2 209.85H1232.32V212.86H1244.64V213.76H1252.16V224.53H1253.37L1255.39 221.68H1258.01L1260.64 224.58H1276.09V215.32H1276.49V220.84H1280.78V225.81L1281.44 226.48V237.42H1282.04V239.6H1283.1L1285.17 236.86H1285.93L1288.2 239.65H1296.33V243.73H1296.03V244.28H1297.04L1301.08 239.82H1302.54V202.93H1303.15V201.92H1306.53V202.71H1307.34V194H1311.33L1315.06 190.93V190.21H1316.27V191.32L1318.39 193.78V202.82H1324.25V202.09H1326.17V202.82H1328.59V212.13H1329.15V249.25H1330.96V250.03H1338.03L1338.74 251.48H1342.67V167.77H1359.34V154.37H1375.09V175.89H1376.45V184.68H1378.8V182.42H1381.45V185.01H1389.7V181H1405.83V179.66H1404.24V174.38H1412.27V180.08H1409.09V181.41H1425.21V224.47H1429.61V220.4H1441.57L1442.13 219.56H1451.42V204.04H1454.44V171.45L1484.03 167.69H1497.61V203.93H1498.9V210.63H1499.96V239.51H1514.87V241.27H1522.9V245.71H1525.47V242.27H1536.61V240.69H1537.89V243.78H1545.39V244.62H1552.38V240.6H1554.65V241.22H1560.76V237.64H1572.42V231.78L1573.33 231.45V230.33H1583.68L1583.98 231.11H1585.3V237.48H1588.22V236.92H1588.83V238.31L1589.69 238.82V240.32H1591.2V234.29H1610.69L1611.14 235.08H1618.31V233.74H1619.73V234.97H1621.75V232.06H1622.65V234.97H1628.51V237.87H1640.63V178.6H1641.43V177.26H1640.63V132.39H1675.26V131.6H1690.2V132.5H1700.2V160.18H1700.8V224.36H1708.07V227.93H1712.72V225.25H1714.33V228.6H1718.07V199.02H1736.95V195.68H1771.58V197.35H1774.91V198.13H1782.69V196.68L1784.8 193.33H1785.92V198.02H1806.82V199.13H1810.45V237.53H1812.87V235.19H1817.72V235.97H1829.94V227.82H1830.75V237.53H1843.67V242.78H1866.29V244.68H1869.31V258.52H1872.04V256.51H1882.85V257.29C1882.85 257.29 1890.62 257.29 1897.18 257.29C1903.74 257.29 1906.98 265.44 1906.98 265.44H1915.96V274.7H1919.19V275.59H1920ZM1040.23 208.03C1040.23 210.21 1041.84 211.98 1043.81 211.98C1045.79 211.98 1047.39 210.21 1047.39 208.03C1047.39 205.84 1045.79 204.07 1043.81 204.07C1041.84 204.07 1040.23 205.84 1040.23 208.03Z" fill="url(#paint0_linear_42_42982)"/>
<defs>
<linearGradient id="paint0_linear_42_42982" x1="7770.73" y1="4124.57" x2="7770.73" y2="5090.13" gradientUnits="userSpaceOnUse">
<stop stop-color="#AAB2D6"/>
<stop offset="1" stop-color="#FEFEFE"/>
</linearGradient>
</defs>
</svg>
