<svg width="1922" height="823" viewBox="0 0 1922 823" fill="none" xmlns="http://www.w3.org/2000/svg">
<path d="M1302.11 754.008V816.191H1303.06V754.008H1302.11Z" fill="#231F20"/>
<path d="M1262.13 755.267V816.191H1263.07V755.267H1262.13Z" fill="#231F20"/>
<path fill-rule="evenodd" clip-rule="evenodd" d="M1282.22 571.956L1282.53 571.806L1306.82 559.385L1307.64 558.965V584.067L1307.31 584.227L1283.02 595.487L1282.22 595.867V571.956ZM1306.51 583.346V560.795L1283.35 572.636V594.087L1306.51 583.346Z" fill="#231F20"/>
<path d="M1813.73 771.808L1810.8 771.538L1810.73 772.349L1813.66 772.608L1813.73 771.808Z" fill="#231F20"/>
<path d="M1650.19 807.38L1695.53 806.891L1695.52 805.991L1650.19 806.471V807.38Z" fill="#231F20"/>
<path d="M1695.53 803.701L1687.83 803.55L1687.81 804.681L1695.51 804.82L1695.53 803.701Z" fill="#231F20"/>
<path d="M1687.83 802.36L1695.53 802.23L1695.51 801.11L1687.81 801.23L1687.83 802.36Z" fill="#231F20"/>
<path d="M1695.54 793.81L1687.83 793.53L1687.8 794.34L1695.51 794.62L1695.54 793.81Z" fill="#231F20"/>
<path d="M1695.57 769.648L1687.86 769.068L1687.78 770.188L1695.48 770.778L1695.57 769.648Z" fill="#231F20"/>
<path d="M1687.84 778.699L1695.55 778.369L1695.5 777.249L1687.8 777.579L1687.84 778.699Z" fill="#231F20"/>
<path d="M1695.56 781.579L1687.85 781.139L1687.79 782.269L1695.5 782.709L1695.56 781.579Z" fill="#231F20"/>
<path d="M1695.55 778.749L1678.23 777.679L1678.18 778.489L1695.5 779.559L1695.55 778.749Z" fill="#231F20"/>
<path d="M1678.4 774.429L1695.55 773.599L1695.5 772.478L1678.35 773.298L1678.4 774.429Z" fill="#231F20"/>
<path d="M1710.83 816.091V736.196H1710.02V816.091H1710.83Z" fill="#231F20"/>
<path d="M1738.57 644.421V559.215H1737.76V644.421H1738.57Z" fill="#231F20"/>
<path d="M1813.78 667.522V594.017H1812.97V667.522H1813.78Z" fill="#231F20"/>
<path d="M1738.57 371.513V285.278H1737.76V371.513H1738.57Z" fill="#231F20"/>
<path d="M1813.78 431.577V356.972H1812.97V431.577H1813.78Z" fill="#231F20"/>
<path d="M1704.31 811.731L1742.49 811.531L1742.48 810.401L1704.31 810.601V811.731Z" fill="#231F20"/>
<path d="M1742.5 804.621L1704.32 803.871L1704.3 805L1742.47 805.741L1742.5 804.621Z" fill="#231F20"/>
<path d="M1704.31 806.8L1742.49 806.391L1742.48 805.491L1704.31 805.9V806.8Z" fill="#231F20"/>
<path d="M1704.32 802.09L1742.49 801.48L1742.47 800.35L1704.3 800.96L1704.32 802.09Z" fill="#231F20"/>
<path d="M1704.32 797.11L1719.52 796.79L1719.51 795.98L1704.3 796.3L1704.32 797.11Z" fill="#231F20"/>
<path d="M1742.5 795.52L1704.33 794.13L1704.3 794.94L1742.47 796.33L1742.5 795.52Z" fill="#231F20"/>
<path d="M1742.51 781.289L1735.52 780.859L1735.47 781.669L1742.46 782.099L1742.51 781.289Z" fill="#231F20"/>
<path d="M1719.14 780.199L1704.34 779.289L1704.29 780.099L1719.09 781.009L1719.14 780.199Z" fill="#231F20"/>
<path d="M1704.34 777.989L1718.82 777.369V816.191H1719.95V776.778V776.199L1719.36 776.219L1704.29 776.869L1704.34 777.989Z" fill="#231F20"/>
<path d="M1704.34 775.159L1731.82 773.489L1731.77 772.588L1704.29 774.259L1704.34 775.159Z" fill="#231F20"/>
<path d="M1749.96 801.36L1762.32 801.16L1762.31 800.03L1749.95 800.23L1749.96 801.36Z" fill="#231F20"/>
<path d="M1767.64 795.91L1770.88 795.84L1770.86 794.72L1767.62 794.79L1767.64 795.91Z" fill="#231F20"/>
<path d="M1762.44 796.09L1749.97 795.63L1749.94 796.76L1762.4 797.21L1762.44 796.09Z" fill="#231F20"/>
<path d="M1762.45 774.729L1750 773.789L1749.91 774.909L1762.36 775.858L1762.45 774.729Z" fill="#231F20"/>
<path d="M1762.43 779.119L1749.98 778.269L1749.93 779.079L1762.38 779.929L1762.43 779.119Z" fill="#231F20"/>
<path d="M1762.34 782.859L1749.98 782.099L1749.93 782.909L1762.29 783.669L1762.34 782.859Z" fill="#231F20"/>
<path d="M1742.54 758.058L1704.37 754.087L1704.26 755.207L1742.42 759.178L1742.54 758.058Z" fill="#231F20"/>
<path d="M1742.53 765.148L1704.36 761.668L1704.27 762.788L1742.43 766.268L1742.53 765.148Z" fill="#231F20"/>
<path d="M1695.59 753.177L1687.88 752.367L1687.76 753.487L1695.47 754.297L1695.59 753.177Z" fill="#231F20"/>
<path d="M1695.58 760.868L1687.87 760.158L1687.77 761.288L1695.48 761.988L1695.58 760.868Z" fill="#231F20"/>
<path d="M1695.61 733.266L1687.89 732.206L1687.74 733.326L1695.46 734.386L1695.61 733.266Z" fill="#231F20"/>
<path d="M1695.62 726.496L1687.9 725.346L1687.74 726.466L1695.45 727.616L1695.62 726.496Z" fill="#231F20"/>
<path d="M1695.61 730.956L1687.9 729.866L1687.74 730.986L1695.46 732.076L1695.61 730.956Z" fill="#231F20"/>
<path d="M1706.93 735.166L1704.21 735.526L1704.36 736.646L1707.08 736.286L1706.93 735.166Z" fill="#231F20"/>
<path d="M1742.53 749.577L1715.62 746.347L1715.53 747.157L1742.43 750.377L1742.53 749.577Z" fill="#231F20"/>
<path d="M1742.53 747.667L1725 745.507L1724.9 746.317L1742.43 748.477L1742.53 747.667Z" fill="#231F20"/>
<path d="M1742.53 745.757L1734.26 744.717L1734.16 745.517L1742.43 746.567L1742.53 745.757Z" fill="#231F20"/>
<path d="M1704.36 748.207L1758.91 743.307L1758.83 742.407L1704.28 747.307L1704.36 748.207Z" fill="#231F20"/>
<path d="M1770.95 737.696L1758.92 735.906L1758.75 737.026L1770.79 738.816L1770.95 737.696Z" fill="#231F20"/>
<path d="M1770.95 741.597L1758.91 739.896L1758.76 741.016L1770.79 742.717L1770.95 741.597Z" fill="#231F20"/>
<path d="M1770.92 752.977L1750 750.467L1749.9 751.277L1770.83 753.787L1770.92 752.977Z" fill="#231F20"/>
<path d="M1770.92 751.167L1750 748.587L1749.9 749.397L1770.82 751.977L1770.92 751.167Z" fill="#231F20"/>
<path d="M1770.92 749.357L1750 746.707L1749.9 747.507L1770.82 750.157L1770.92 749.357Z" fill="#231F20"/>
<path d="M1770.93 747.547L1750.01 744.827L1749.9 745.627L1770.82 748.347L1770.93 747.547Z" fill="#231F20"/>
<path d="M1704.36 729.566L1778.61 722.385L1778.52 721.495L1704.28 728.676L1704.36 729.566Z" fill="#231F20"/>
<path d="M1817.09 785.779L1810.8 785.379L1810.73 786.499L1817.02 786.899L1817.09 785.779Z" fill="#231F20"/>
<path d="M1813.75 765.478L1810.82 765.168L1810.71 766.288L1813.63 766.588L1813.75 765.478Z" fill="#231F20"/>
<path d="M1813.72 779.719L1810.79 779.499L1810.74 780.319L1813.66 780.529L1813.72 779.719Z" fill="#231F20"/>
<path d="M1813.71 789.149L1810.79 788.99L1810.74 789.799L1813.67 789.959L1813.71 789.149Z" fill="#231F20"/>
<path d="M1813.72 782.639L1810.79 782.439L1810.74 783.249L1813.67 783.459L1813.72 782.639Z" fill="#231F20"/>
<path d="M1813.71 797.95L1810.78 797.84L1810.75 798.97L1813.67 799.08L1813.71 797.95Z" fill="#231F20"/>
<path d="M1749.96 811.481L1778.9 811.331V810.211L1749.95 810.361L1749.96 811.481Z" fill="#231F20"/>
<path d="M1773.3 805.221L1749.97 804.77L1749.94 805.891L1773.28 806.351L1773.3 805.221Z" fill="#231F20"/>
<path d="M1749.96 806.311L1778.9 806.001L1778.89 805.101L1749.95 805.411L1749.96 806.311Z" fill="#231F20"/>
<path d="M1813.7 806.011L1788.93 805.53L1788.91 806.65L1813.68 807.141L1813.7 806.011Z" fill="#231F20"/>
<path d="M1788.92 811.281L1813.69 811.151V810.021L1788.92 810.151V811.281Z" fill="#231F20"/>
<path d="M1788.93 806.001L1813.69 805.741V804.61L1788.92 804.88L1788.93 806.001Z" fill="#231F20"/>
<path d="M1813.75 749.657L1810.82 749.257L1810.71 750.057L1813.64 750.457L1813.75 749.657Z" fill="#231F20"/>
<path d="M1813.75 747.807L1810.82 747.387L1810.71 748.187L1813.63 748.607L1813.75 747.807Z" fill="#231F20"/>
<path d="M1810.79 745.767L1813.72 745.597L1813.67 744.697L1810.74 744.867L1810.79 745.767Z" fill="#231F20"/>
<path d="M1813.74 758.107L1810.81 757.758L1810.72 758.558L1813.64 758.908L1813.74 758.107Z" fill="#231F20"/>
<path d="M1813.74 756.448L1810.82 756.077L1810.72 756.888L1813.64 757.247L1813.74 756.448Z" fill="#231F20"/>
<path d="M1813.74 754.787L1810.82 754.407L1810.71 755.218L1813.64 755.587L1813.74 754.787Z" fill="#231F20"/>
<path d="M1813.74 753.127L1810.82 752.737L1810.71 753.547L1813.64 753.927L1813.74 753.127Z" fill="#231F20"/>
<path fill-rule="evenodd" clip-rule="evenodd" d="M1770.22 726.736L1770.98 726.866L1810.87 733.626L1811.42 733.716V802.89L1810.75 802.87L1770.85 801.71L1770.22 801.69V726.736ZM1810.11 801.55V734.826L1771.53 728.286V800.43L1810.11 801.55Z" fill="#231F20"/>
<path d="M1695.55 784.679L1650.22 782.339L1650.17 783.239L1695.5 785.579L1695.55 784.679Z" fill="#231F20"/>
<path d="M1742.51 787.099L1704.34 785.129L1704.29 786.029L1742.46 788.01L1742.51 787.099Z" fill="#231F20"/>
<path d="M1770.85 788.569L1749.98 787.49L1749.93 788.39L1770.8 789.47L1770.85 788.569Z" fill="#231F20"/>
<path d="M1817.08 790.95L1788.94 789.499L1788.89 790.399L1817.03 791.85L1817.08 790.95Z" fill="#231F20"/>
<path d="M1817.08 774.289L1788.95 771.858L1788.87 772.759L1817.01 775.189L1817.08 774.289Z" fill="#231F20"/>
<path d="M1742.52 767.838L1704.36 764.538L1704.28 765.438L1742.44 768.738L1742.52 767.838Z" fill="#231F20"/>
<path d="M1695.57 763.778L1650.23 759.848L1650.15 760.758L1695.49 764.678L1695.57 763.778Z" fill="#231F20"/>
<path d="M1492.33 799.88L1362.95 797.34L1362.93 798.15L1492.32 800.69L1492.33 799.88Z" fill="#231F20"/>
<path d="M1420.49 783.579L1428.83 783.129L1428.77 781.999L1420.43 782.449L1420.49 783.579Z" fill="#231F20"/>
<path d="M1420.5 780.279L1428.84 779.789L1428.77 778.659L1420.43 779.149L1420.5 780.279Z" fill="#231F20"/>
<path d="M1428.83 767.968L1420.49 767.508L1420.44 768.318L1428.78 768.778L1428.83 767.968Z" fill="#231F20"/>
<path d="M1428.83 766.648L1420.49 766.168L1420.44 766.988L1428.78 767.458L1428.83 766.648Z" fill="#231F20"/>
<path d="M1420.53 736.716L1428.87 735.636L1428.73 734.516L1420.39 735.606L1420.53 736.716Z" fill="#231F20"/>
<path d="M1428.86 725.415L1420.52 724.545L1420.4 725.665L1428.75 726.536L1428.86 725.415Z" fill="#231F20"/>
<path d="M1428.83 756.227L1420.49 755.658L1420.43 756.468L1428.78 757.037L1428.83 756.227Z" fill="#231F20"/>
<path d="M1428.85 749.387L1420.5 748.757L1420.42 749.887L1428.76 750.517L1428.85 749.387Z" fill="#231F20"/>
<path d="M1428.83 757.998L1420.49 757.448L1420.43 758.258L1428.78 758.808L1428.83 757.998Z" fill="#231F20"/>
<path d="M1428.84 740.737L1420.5 740.016L1420.42 740.827L1428.77 741.546L1428.84 740.737Z" fill="#231F20"/>
<path d="M1428.87 711.845L1420.53 710.845L1420.4 711.965L1428.74 712.965L1428.87 711.845Z" fill="#231F20"/>
<path d="M1428.85 709.014L1420.51 707.985L1420.41 708.794L1428.75 709.814L1428.85 709.014Z" fill="#231F20"/>
<path d="M1428.86 706.024L1420.51 704.964L1420.41 705.764L1428.75 706.824L1428.86 706.024Z" fill="#231F20"/>
<path d="M1428.88 702.874L1420.53 701.784L1420.39 702.904L1428.73 703.984L1428.88 702.874Z" fill="#231F20"/>
<path d="M1420.54 688.493L1420.38 687.693L1428.72 685.963L1428.89 686.753L1420.54 688.493ZM1455.04 680.483L1480.29 675.233L1480.45 676.022L1455.21 681.283L1455.04 680.483Z" fill="#231F20"/>
<path d="M1442.01 816.191H1441.19V793.69H1442.01V816.191ZM1442.01 662.092H1441.19V651.491H1442.01V662.092ZM1441.19 628.57V606.078H1442.01V628.57H1441.19Z" fill="#231F20"/>
<path d="M1435.75 652.891L1435.76 816.191H1436.66L1436.65 652.891H1435.75Z" fill="#231F20"/>
<path d="M1482.64 653.891V816.191H1483.55L1483.54 653.891H1482.64Z" fill="#231F20"/>
<path d="M1482.64 238.075V630.82H1483.55L1483.54 238.075H1482.64Z" fill="#231F20"/>
<path d="M1423.69 816.191H1422.87V656.241H1423.69V816.191ZM1422.87 633.97V611.738H1423.69V633.97H1422.87Z" fill="#231F20"/>
<path d="M1390.33 664.572H1391.91V674.332H1390.33V664.572ZM1391.91 795.46L1391.9 816.191H1390.33V795.46H1391.91Z" fill="#231F20"/>
<path d="M1460.16 793.37V653.981H1459.03V793.37H1460.16Z" fill="#231F20"/>
<path d="M1492.34 793.61L1455.49 792.61L1455.46 793.73L1492.31 794.74L1492.34 793.61Z" fill="#231F20"/>
<path d="M1492.34 786.26L1480.39 785.819L1480.34 786.95L1492.3 787.379L1492.34 786.26Z" fill="#231F20"/>
<path d="M1472.1 769.088L1455.16 768.138L1455.11 768.948L1472.05 769.898L1472.1 769.088Z" fill="#231F20"/>
<path d="M1471.73 770.328L1455.16 769.408L1455.11 770.228L1471.68 771.138L1471.73 770.328Z" fill="#231F20"/>
<path d="M1455.16 788.68L1471.99 787.959L1471.95 786.829L1455.11 787.559L1455.16 788.68Z" fill="#231F20"/>
<path d="M1455.16 781.719L1472.18 780.809L1472.12 779.679L1455.1 780.589L1455.16 781.719Z" fill="#231F20"/>
<path d="M1455.17 778.229L1472 777.239L1471.94 776.119L1455.1 777.109L1455.17 778.229Z" fill="#231F20"/>
<path d="M1492.35 760.588L1480.21 759.758L1480.16 760.568L1492.3 761.398L1492.35 760.588Z" fill="#231F20"/>
<path d="M1492.36 754.217L1480.41 753.307L1480.33 754.437L1492.28 755.347L1492.36 754.217Z" fill="#231F20"/>
<path d="M1492.35 762.228L1480.3 761.428L1480.25 762.238L1492.3 763.038L1492.35 762.228Z" fill="#231F20"/>
<path d="M1492.36 746.237L1480.43 745.197L1480.36 746.017L1492.29 747.047L1492.36 746.237Z" fill="#231F20"/>
<path d="M1492.37 743.487L1480.16 742.396L1480.06 743.517L1492.27 744.617L1492.37 743.487Z" fill="#231F20"/>
<path d="M1492.39 719.455L1480.3 718.005L1480.17 719.135L1492.26 720.575L1492.39 719.455Z" fill="#231F20"/>
<path d="M1492.37 716.845L1480.28 715.355L1480.19 716.155L1492.27 717.645L1492.37 716.845Z" fill="#231F20"/>
<path d="M1492.37 714.065L1480.01 712.495L1479.91 713.305L1492.27 714.875L1492.37 714.065Z" fill="#231F20"/>
<path d="M1492.39 711.135L1480.49 709.584L1480.35 710.705L1492.25 712.255L1492.39 711.135Z" fill="#231F20"/>
<path d="M1455.2 732.216L1472.2 730.006L1472.06 728.896L1455.06 731.096L1455.2 732.216Z" fill="#231F20"/>
<path d="M1526.12 785.529L1557.45 784.179L1557.41 783.279L1526.08 784.619L1526.12 785.529Z" fill="#231F20"/>
<path d="M1557.45 788.62L1526.12 787.479L1526.08 788.609L1557.41 789.75L1557.45 788.62Z" fill="#231F20"/>
<path d="M1557.46 774.889L1550.46 774.499L1550.4 775.629L1557.4 776.009L1557.46 774.889Z" fill="#231F20"/>
<path d="M1420.49 786.869L1557.45 780.259L1557.4 779.139L1420.43 785.749L1420.49 786.869Z" fill="#231F20"/>
<path d="M1557.45 770.239L1420.49 761.808L1420.44 762.618L1557.4 771.058L1557.45 770.239Z" fill="#231F20"/>
<path d="M1557.45 765.058L1550.53 764.578L1550.47 765.388L1557.4 765.868L1557.45 765.058Z" fill="#231F20"/>
<path d="M1557.47 759.158L1526.14 756.787L1526.06 757.908L1557.39 760.288L1557.47 759.158Z" fill="#231F20"/>
<path d="M1557.45 766.568L1550.39 766.098L1550.34 766.898L1557.4 767.378L1557.45 766.568Z" fill="#231F20"/>
<path d="M1557.48 751.707L1526.15 748.997L1526.05 750.127L1557.38 752.837L1557.48 751.707Z" fill="#231F20"/>
<path d="M1538.29 736.806L1526.16 735.536L1526.04 736.666L1538.18 737.926L1538.29 736.806Z" fill="#231F20"/>
<path d="M1557.48 727.416L1526.15 723.656L1526.05 724.466L1557.38 728.216L1557.48 727.416Z" fill="#231F20"/>
<path d="M1557.48 714.455L1550.71 713.525L1550.61 714.325L1557.37 715.255L1557.48 714.455Z" fill="#231F20"/>
<path d="M1557.65 711.475L1550.22 710.425L1550.07 711.535L1557.49 712.585L1557.65 711.475Z" fill="#231F20"/>
<path d="M1639.81 812.191L1321.11 810.621V811.751L1639.81 813.321V812.191Z" fill="#231F20"/>
<path d="M1781.03 815.721L1526.12 802.68L1526.07 803.63L1780.99 816.671L1781.03 815.721Z" fill="#231F20"/>
<path d="M1798.38 815.721L1362.96 798.48L1362.92 799.43L1798.34 816.671L1798.38 815.721Z" fill="#231F20"/>
<path d="M1817.09 815.361L1362.95 802.63L1362.92 803.57L1817.06 816.311L1817.09 815.361Z" fill="#231F20"/>
<path d="M1704.4 812.311L1362.9 806.681L1362.88 807.811L1704.38 813.441L1704.4 812.311Z" fill="#231F20"/>
<path d="M1639.65 797.78L1526.11 794.69L1526.09 795.5L1639.63 798.59L1639.65 797.78Z" fill="#231F20"/>
<path d="M1639.65 802.6L1526.11 800.38L1526.09 801.51L1639.63 803.73L1639.65 802.6Z" fill="#231F20"/>
<path d="M1526.11 800.98L1639.65 798.54L1639.63 797.64L1526.09 800.07L1526.11 800.98Z" fill="#231F20"/>
<path d="M1428.82 788.39L1420.48 788.12L1420.45 789.249L1428.79 789.51L1428.82 788.39Z" fill="#231F20"/>
<path d="M1639.65 794.98L1455.15 789.209L1455.12 790.339L1639.62 796.1L1639.65 794.98Z" fill="#231F20"/>
<path d="M1695.54 796.72L1650.21 795.31L1650.17 796.43L1695.51 797.85L1695.54 796.72Z" fill="#231F20"/>
<path d="M1742.5 798.19L1704.33 797L1704.29 798.13L1742.47 799.32L1742.5 798.19Z" fill="#231F20"/>
<path d="M1770.89 799.08L1749.97 798.42L1749.94 799.55L1770.85 800.2L1770.89 799.08Z" fill="#231F20"/>
<path d="M1817.08 800.52L1810.78 800.32L1810.75 801.45L1817.05 801.65L1817.08 800.52Z" fill="#231F20"/>
<path d="M1639.66 774.889L1627.74 774.148L1627.7 774.969L1639.61 775.699L1639.66 774.889Z" fill="#231F20"/>
<path d="M1639.66 779.569L1627.74 778.919L1627.7 779.729L1639.62 780.379L1639.66 779.569Z" fill="#231F20"/>
<path d="M1639.68 771.878L1627.76 771.088L1627.68 772.208L1639.6 773.009L1639.68 771.878Z" fill="#231F20"/>
<path d="M1639.67 781.689L1627.75 781.069L1627.69 782.199L1639.61 782.809L1639.67 781.689Z" fill="#231F20"/>
<path d="M1639.68 747.517L1627.76 746.277L1627.68 747.077L1639.6 748.317L1639.68 747.517Z" fill="#231F20"/>
<path d="M1639.67 766.718L1627.75 765.828L1627.69 766.638L1639.61 767.528L1639.67 766.718Z" fill="#231F20"/>
<path d="M1639.68 755.928L1627.76 754.837L1627.68 755.647L1639.6 756.738L1639.68 755.928Z" fill="#231F20"/>
<path d="M1639.67 758.978L1627.76 757.948L1627.68 758.758L1639.6 759.797L1639.67 758.978Z" fill="#231F20"/>
<path d="M1639.71 730.306L1627.79 728.766L1627.65 729.876L1639.57 731.426L1639.71 730.306Z" fill="#231F20"/>
<path d="M1639.69 732.736L1627.77 731.226L1627.67 732.026L1639.59 733.536L1639.69 732.736Z" fill="#231F20"/>
<path d="M1639.69 734.996L1627.77 733.526L1627.67 734.336L1639.59 735.806L1639.69 734.996Z" fill="#231F20"/>
<path d="M1639.7 737.096L1627.79 735.666L1627.66 736.796L1639.57 738.226L1639.7 737.096Z" fill="#231F20"/>
<path d="M1639.7 723.216L1627.77 721.535L1627.67 722.335L1639.58 724.025L1639.7 723.216Z" fill="#231F20"/>
<path d="M1639.69 725.746L1627.77 724.105L1627.67 724.915L1639.59 726.556L1639.69 725.746Z" fill="#231F20"/>
<path d="M1639.72 718.185L1627.8 716.415L1627.64 717.525L1639.56 719.305L1639.72 718.185Z" fill="#231F20"/>
<path d="M1650.25 737.226L1687.82 733.696L1687.72 732.576L1650.14 736.106L1650.25 737.226Z" fill="#231F20"/>
<path d="M1576.75 708.934L1563.77 707.005L1563.64 707.894L1576.62 709.825L1576.75 708.934Z" fill="#231F20"/>
<path d="M1650.25 706.764L1675.32 703.504L1675.21 702.614L1650.14 705.874L1650.25 706.764Z" fill="#231F20"/>
<path d="M1613.14 703.894L1600.23 701.774L1600.09 702.664L1613 704.784L1613.14 703.894Z" fill="#231F20"/>
<path d="M1682.94 733.446H1682.03V704.384H1682.94V733.446ZM1682.03 682.683V627.319H1682.94V682.683H1682.03Z" fill="#231F20"/>
<path fill-rule="evenodd" clip-rule="evenodd" d="M1688.38 805.46L1687.81 805.44L1667.17 805.061L1666.62 805.05V700.914L1667.28 701.034L1687.92 704.804L1688.38 704.894V805.46ZM1687.25 705.824L1667.75 702.264V803.94L1687.25 804.31V705.824ZM1688.38 684.543L1687.7 684.393L1667.06 679.893L1666.62 679.792V646.35L1667.33 646.551L1687.96 652.111L1688.38 652.221V684.543ZM1667.75 647.83V678.892L1687.25 683.143V653.091L1667.75 647.83Z" fill="#231F20"/>
<path d="M1654.88 816.091H1654.06V699.264H1654.88V816.091ZM1654.06 676.582V618.679H1654.88V676.582H1654.06Z" fill="#231F20"/>
<path d="M1608.01 678.832V609.648V586.637H1607.11V609.648V678.832H1608.01Z" fill="#231F20"/>
<path d="M1735.13 643.751V670.432V670.862L1735.55 670.972L1742.35 672.752L1742.63 671.652L1736.26 669.992V643.751H1735.13Z" fill="#231F20"/>
<path d="M1749.82 674.702L1782.35 683.193L1783.06 683.373V682.643V658.191H1781.93V681.913L1750.1 673.612L1749.82 674.702Z" fill="#231F20"/>
<path d="M1639.45 521.823L1550.13 553.285L1550.51 554.345L1639.83 522.883L1639.45 521.823Z" fill="#231F20"/>
<path d="M1550.5 570.706L1639.82 541.204L1639.46 540.124L1550.14 569.636L1550.5 570.706Z" fill="#231F20"/>
<path d="M1634.98 703.434V697.304H1633.85V703.434H1634.98Z" fill="#231F20"/>
<path d="M1634.98 816.201V793.06H1633.85V816.201H1634.98Z" fill="#231F20"/>
<path d="M1557.55 649.731L1550.42 648.121L1550.17 649.221L1557.31 650.831L1557.55 649.731Z" fill="#231F20"/>
<path d="M1601.52 660.781L1633.84 668.052L1633.85 674.233H1634.97V667.602V667.142L1634.53 667.052L1601.77 659.681L1601.52 660.781Z" fill="#231F20"/>
<path d="M1550.44 649.181L1550.19 648.081L1557.31 646.481L1557.55 647.58L1550.44 649.181ZM1601.77 637.64L1601.52 636.53L1639.52 627.989L1639.77 629.09L1601.77 637.64ZM1650.07 625.619L1666.58 621.909L1666.83 623.009L1650.31 626.719L1650.07 625.619Z" fill="#231F20"/>
<path d="M1844.33 685.763L1844.1 686.543L1822.47 680.292L1822.69 679.513L1844.33 685.763ZM1817.15 677.912L1816.92 678.693L1788.82 670.572L1789.04 669.792L1817.15 677.912ZM1782.61 667.932L1782.38 668.702L1758.72 661.871L1758.95 661.092L1782.61 667.932ZM1707.19 646.14L1706.97 646.931L1704.2 646.12L1704.42 645.341L1707.19 646.14ZM1695.63 642.81L1695.41 643.58L1650.08 630.49L1650.3 629.71L1695.63 642.81ZM1557.31 603.688L1550.1 601.608L1550.33 600.828L1557.54 602.908L1557.31 603.688Z" fill="#231F20"/>
<path d="M1847.42 682.973L1847.1 684.053L1822.42 676.733L1822.74 675.653L1847.42 682.973ZM1817.2 674.012L1816.88 675.092L1788.77 666.742L1789.09 665.662L1817.2 674.012ZM1782.65 663.762L1782.34 664.842L1749.8 655.191L1750.12 654.111L1782.65 663.762ZM1742.64 651.881L1742.32 652.961L1704.15 641.63L1704.47 640.55L1742.64 651.881ZM1695.35 639.02L1650.02 625.569L1650.34 624.489L1695.67 637.94L1695.35 639.02Z" fill="#231F20"/>
<path fill-rule="evenodd" clip-rule="evenodd" d="M1759.04 654.511L1759.55 654.661V700.224L1758.69 700.044L1706.93 688.743L1706.37 688.623V638.67L1707.28 638.95L1759.04 654.511ZM1707.8 640.59V687.483L1758.13 698.464V655.721L1707.8 640.59ZM1759.55 743.647L1758.75 743.537L1706.99 736.456L1706.38 736.376V708.034L1707.22 708.184L1758.97 717.645L1759.55 717.755V743.647ZM1758.13 718.925L1707.8 709.724V735.126L1758.13 742.017V718.925Z" fill="#231F20"/>
<path d="M1637.15 816.191H1636.24V696.884H1637.15V816.191ZM1636.24 673.722V617.949V4.61064H1637.15V617.949V673.722H1636.24Z" fill="#231F20"/>
<path d="M1639.79 479.54L1639.45 478.71L1639.47 478.7L1639.81 479.53L1639.79 479.54ZM1650.36 475.27L1650.02 474.44L1695.36 456.119L1695.7 456.949L1650.36 475.27ZM1704.15 452.559L1711.12 449.748L1711.45 450.578L1704.48 453.398L1704.15 452.559Z" fill="#231F20"/>
<path d="M1827.66 600.287V452.338V452.068L1827.44 451.898L1822.91 448.368L1822.21 449.248L1826.53 452.608V600.287H1827.66Z" fill="#231F20"/>
<path d="M1810.4 546.774V433.777H1809.5V546.774H1810.4Z" fill="#231F20"/>
<path d="M1810.4 710.624V672.482H1809.5V710.624H1810.4Z" fill="#231F20"/>
<path d="M1639.5 499.231L1639.1 498.181L1639.44 498.051L1639.84 499.101L1639.5 499.231ZM1650.39 495.081L1649.99 494.031L1695.33 476.77L1695.73 477.82L1650.39 495.081ZM1704.51 474.48L1704.11 473.42L1735.49 461.469L1735.89 462.529L1704.51 474.48ZM1805.2 434.928L1814.61 431.347L1815.01 432.397L1805.6 435.977L1805.2 434.928Z" fill="#231F20"/>
<path d="M1817.35 444.038L1789.24 422.146L1788.55 423.037L1816.66 444.928L1817.35 444.038Z" fill="#231F20"/>
<path d="M1779.39 816.191H1778.26V721.986H1779.39V816.191ZM1779.39 703.704H1778.26V657.061H1779.39V703.704ZM1778.26 577.986V403.955H1779.39V577.986H1778.26Z" fill="#231F20"/>
<path d="M1782.99 579.676L1782.98 417.596V417.346L1782.79 417.196L1750.26 391.865L1749.64 392.665L1781.97 417.846L1781.98 579.676H1782.99Z" fill="#231F20"/>
<path d="M1723.81 504.712H1722.79V434.477L1704.04 421.927L1704.61 421.077L1723.58 433.787L1723.8 433.937V434.207L1723.81 504.712ZM1695.26 416.036L1682.03 407.176L1682.59 406.335L1695.82 415.196L1695.26 416.036Z" fill="#231F20"/>
<path d="M1750.52 816.191H1749.4L1749.39 716.715H1750.52V816.191ZM1750.52 697.404H1749.39V648.141H1750.51L1750.52 697.404ZM1749.39 564.646V380.864H1750.52V564.646H1749.39Z" fill="#231F20"/>
<path d="M1730.05 692.964H1729.14V641.86H1730.05V692.964ZM1729.14 555.245V363.723H1730.05V555.245H1729.14Z" fill="#231F20"/>
<path d="M1691.75 816.191H1690.85V705.994H1691.75V816.191ZM1691.75 684.603H1690.85V630.039H1691.75V684.603ZM1690.85 537.544V333.971H1691.75V537.544H1690.85Z" fill="#231F20"/>
<path d="M1550.04 435.957L1639.89 389.975L1639.38 388.974L1549.52 434.957L1550.04 435.957Z" fill="#231F20"/>
<path d="M1601.89 309.809L1639.9 285.598L1639.41 284.838L1601.4 309.05L1601.89 309.809Z" fill="#231F20"/>
<path d="M1550.56 342.492L1564.47 333.631L1563.99 332.871L1550.07 341.732L1550.56 342.492Z" fill="#231F20"/>
<path d="M1564.53 350.262L1550.61 341.382L1550 342.331L1563.93 351.212L1564.53 350.262Z" fill="#231F20"/>
<path d="M1606.46 378.114L1639.58 359.873L1639.04 358.883L1605.91 377.124L1606.46 378.114Z" fill="#231F20"/>
<path d="M1606.76 428.957L1606.75 377.574V377.264L1606.49 377.094L1593.72 368.883L1593.11 369.833L1605.63 377.874V428.957H1606.76Z" fill="#231F20"/>
<path d="M1608.01 514.933V429.957H1607.11V514.933H1608.01Z" fill="#231F20"/>
<path d="M1608.01 368.453V143.799H1607.11V368.453H1608.01Z" fill="#231F20"/>
<path d="M1774.07 816.191H1772.8V721.005H1774.07V816.191ZM1774.07 702.524H1772.8V655.391H1774.07V702.524ZM1774.07 575.486H1772.8V398.775H1774.07V575.486ZM1772.8 318.17V307.269V306.889L1773.14 306.71L1851.63 265.447L1852.22 266.557L1774.07 307.65V318.17H1772.8Z" fill="#231F20"/>
<path d="M1704.96 240.535L1789.11 188.012L1788.4 186.862L1704.25 239.395L1704.96 240.535Z" fill="#231F20"/>
<path d="M1664.79 816.191H1663.66V701.044H1664.79V816.191ZM1664.79 678.703H1663.66V621.689H1664.79V678.703ZM1664.79 525.033H1663.66V450.148V449.168L1664.51 449.658L1695.81 467.91L1695.25 468.89L1664.79 451.128V525.033ZM1664.79 328.091H1663.66V312.33H1664.79V328.091ZM1663.66 214.584V200.643L1655.96 193.132L1656.74 192.332L1664.61 200.003L1664.78 200.173V200.413V214.584H1663.66Z" fill="#231F20"/>
<path d="M1682.08 231.145V203.203L1681.94 202.873L1645.9 165.871L1645.07 166.211V196.773H1646.04V167.401L1681.1 203.403V231.145H1682.08Z" fill="#231F20"/>
<path d="M1617.32 816.191H1615.85V699.864H1617.32V816.191ZM1615.85 677.283V612.359V153.83H1617.32V612.359V677.283H1615.85Z" fill="#231F20"/>
<path d="M1617.04 154.4L1704.81 82.8455L1703.89 81.7053L1616.12 153.27L1617.04 154.4Z" fill="#231F20"/>
<path d="M1695.8 489.071L1695.26 490.061L1682.02 482.84L1681.72 482.681V482.34L1681.73 406.746V406.386L1682.06 406.236L1695.3 400.055L1695.77 401.075L1682.86 407.105V482.01L1695.8 489.071ZM1704.05 494.851L1704.58 493.861L1723.36 504.112L1742.3 497.701L1742.66 498.771L1723.49 505.252L1723.25 505.332L1723.04 505.212L1704.05 494.851ZM1750.13 496.251L1749.77 495.181L1782.3 484.181L1782.66 485.251L1750.13 496.251ZM1789.08 483.08L1788.72 482.01L1816.83 472.5L1817.19 473.57L1789.08 483.08ZM1822.74 471.7L1822.38 470.629L1841.13 464.319L1841.14 454.329H1842.28L1842.27 464.719V465.119L1841.88 465.249L1822.74 471.7ZM1704.09 395.955L1742.24 378.134L1742.72 379.154L1704.57 396.975L1704.09 395.955Z" fill="#231F20"/>
<path d="M1847.29 595.387L1846.93 596.117L1822.39 584.016L1822.75 583.286L1847.29 595.387ZM1817.21 580.556L1816.85 581.286L1788.74 567.416L1789.1 566.686L1817.21 580.556ZM1782.67 563.515L1782.31 564.246L1749.78 548.194L1750.14 547.464L1782.67 563.515ZM1742.67 543.784L1742.3 544.514L1704.14 525.683L1704.5 524.953L1742.67 543.784ZM1695.36 521.353L1650.02 498.992L1650.38 498.271L1695.71 520.633L1695.36 521.353Z" fill="#231F20"/>
<path d="M1639.89 435.488L1639.38 436.357L1639.29 436.308L1639.8 435.428L1639.89 435.488ZM1742.73 495.251L1742.22 496.131L1704.06 473.95L1704.57 473.08L1742.73 495.251ZM1782.73 518.503L1782.22 519.383L1749.69 500.472L1750.2 499.591L1782.73 518.503ZM1817.26 538.584L1816.75 539.454L1788.64 523.113L1789.15 522.243L1817.26 538.584ZM1846.53 556.755L1822.31 542.684L1822.81 541.804L1847.04 555.885L1846.53 556.755Z" fill="#231F20"/>
<path d="M1639.89 488.831L1601.9 469.85L1601.39 470.859L1639.39 489.841L1639.89 488.831Z" fill="#231F20"/>
<path d="M1695.78 516.743L1695.28 517.753L1649.94 495.121L1650.44 494.101L1695.78 516.743ZM1742.74 540.204L1742.23 541.214L1704.07 522.143L1704.57 521.133L1742.74 540.204ZM1782.74 560.185L1782.24 561.195L1749.71 544.944L1750.21 543.934L1782.74 560.185ZM1817.28 577.436L1816.77 578.446L1788.66 564.405L1789.17 563.396L1817.28 577.436ZM1846.84 593.467L1822.32 581.216L1822.83 580.207L1847.35 592.457L1846.84 593.467Z" fill="#231F20"/>
<path d="M1847.25 586.707L1846.84 587.507L1822.36 574.966L1822.78 574.166L1847.25 586.707ZM1817.22 571.326L1816.81 572.126L1788.7 557.715L1789.11 556.915L1817.22 571.326ZM1782.68 553.615L1782.28 554.425L1749.74 537.744L1750.15 536.944L1782.68 553.615ZM1742.68 533.113L1742.27 533.914L1704.11 514.352L1704.51 513.552L1742.68 533.113ZM1695.73 509.042L1695.32 509.852L1649.99 486.61L1650.4 485.811L1695.73 509.042ZM1639.43 481.2L1639.33 481.15L1639.75 480.35L1639.84 480.4L1639.43 481.2Z" fill="#231F20"/>
<path d="M1639.88 398.465L1639.77 398.395L1639.29 399.155L1639.4 399.225L1639.88 398.465Z" fill="#231F20"/>
<path d="M1695.78 434.117L1650.44 405.205L1649.95 405.956L1695.29 434.877L1695.78 434.117Z" fill="#231F20"/>
<path d="M1742.72 464.069L1704.56 439.718L1704.08 440.478L1742.24 464.829L1742.72 464.069Z" fill="#231F20"/>
<path d="M1782.72 489.581L1750.19 468.83L1749.71 469.589L1782.24 490.341L1782.72 489.581Z" fill="#231F20"/>
<path d="M1817.26 511.612L1789.15 493.681L1788.66 494.441L1816.77 512.372L1817.26 511.612Z" fill="#231F20"/>
<path d="M1834.54 522.633L1822.81 515.152L1822.32 515.913L1834.05 523.393L1834.54 522.633Z" fill="#231F20"/>
<path d="M1847.37 524.313L1834.49 515.913L1833.62 515.352V516.382V560.305H1834.75V517.433L1846.76 525.253L1847.37 524.313Z" fill="#231F20"/>
<path d="M1844.74 717.965H1843.61V677.222H1844.74V717.965ZM1843.61 608.188V456.209H1844.74V608.188H1843.61Z" fill="#231F20"/>
<path d="M1846.39 458.529H1847.74L1847.75 609.518H1846.4L1846.39 458.529ZM1847.74 678.122L1847.75 718.595H1846.4V678.122H1847.74Z" fill="#231F20"/>
<path fill-rule="evenodd" clip-rule="evenodd" d="M1678.26 444.678L1677.14 443.998L1649.82 427.487L1649.46 427.277V426.857L1649.47 317.23V315.74L1650.65 316.65L1677.97 337.831L1678.26 338.051V444.678ZM1650.93 318.73V426.447L1676.79 442.078V338.771L1650.93 318.73Z" fill="#231F20"/>
<path d="M1847.31 566.926L1846.71 568.006L1822.27 554.415L1822.87 553.335L1847.31 566.926ZM1817.32 550.235L1816.72 551.315L1788.61 535.674L1789.21 534.593L1817.32 550.235ZM1782.78 531.013L1782.18 532.093L1749.65 513.993L1750.25 512.902L1782.78 531.013ZM1742.78 508.752L1742.18 509.842L1704.01 488.601L1704.62 487.521L1742.78 508.752ZM1695.83 482.62L1695.22 483.701L1650.81 458.989V518.543H1649.57V457.939V456.879L1650.49 457.399L1695.83 482.62ZM1639.33 452.599L1639.32 452.588L1639.92 451.508L1639.94 451.518L1639.33 452.599Z" fill="#231F20"/>
<path d="M1694.92 337.371H1696.16L1696.15 539.504H1694.91L1694.92 337.371ZM1694.91 631.349H1696.15L1696.14 685.533H1694.91V631.349ZM1696.14 706.764L1696.13 816.201H1694.9V706.764H1696.14Z" fill="#231F20"/>
<path d="M1650.81 675.642V617.359H1649.58L1649.57 675.642H1650.81Z" fill="#231F20"/>
<path d="M1650.81 816.191V698.484H1649.57V816.191H1650.81Z" fill="#231F20"/>
<path d="M1628.46 789.81V702.304H1626.99V789.81H1628.46Z" fill="#231F20"/>
<path d="M1639.67 789.549L1627.75 789.08H1627.71L1557.42 789.99L1557.44 791.45L1627.7 790.54L1639.61 791.01L1639.67 789.549Z" fill="#231F20"/>
<path d="M1650.21 793.32L1650.17 791.859L1677.43 791.1V711.544L1650.08 706.874L1650.32 705.424L1678.29 710.204L1678.9 710.305V710.925V791.81V792.52L1678.18 792.54L1650.21 793.32ZM1639.66 793.61L1628.87 793.92H1628.82L1557.41 791.45L1556.7 791.42V790.72V712.044V711.415L1557.33 711.325L1627.63 701.584H1627.85L1639.77 703.624L1639.52 705.064L1627.71 703.054L1558.17 712.685V790.01L1628.85 792.45L1639.62 792.15L1639.66 793.61Z" fill="#231F20"/>
<path d="M1360.85 816.191H1359.72V796.54H1360.85V816.191ZM1360.85 681.793H1359.72V672.552H1360.85V681.793ZM1359.72 652.541V632.92H1360.85V652.541H1359.72Z" fill="#231F20"/>
<path d="M1346.1 656.901V637.81H1344.97V656.901H1346.1Z" fill="#231F20"/>
<path d="M1346.1 685.373V679.633H1344.97V685.373H1346.1Z" fill="#231F20"/>
<path d="M1346.1 816.191V797.06H1344.97V816.191H1346.1Z" fill="#231F20"/>
<path d="M1557.69 529.793L1601.91 512.912L1602.38 512.732V512.222V426.597H1600.91V511.722L1557.17 528.423L1557.69 529.793Z" fill="#231F20"/>
<path d="M1623.75 521.213L1601.93 511.632L1601.35 512.982L1623.17 522.553L1623.75 521.213Z" fill="#231F20"/>
<path fill-rule="evenodd" clip-rule="evenodd" d="M1557.17 529.744L1556.7 529.563V529.063V448.238L1556.69 447.788L1557.11 447.578L1601.29 425.967L1601.63 425.797L1601.97 425.987L1623.82 438.328L1624.19 438.538V522.393L1623.7 522.573L1579.87 538.344H1579.36L1557.17 529.744ZM1622.72 521.363V439.388L1601.58 427.447L1558.16 448.698V528.563L1579.63 536.874L1622.72 521.363Z" fill="#231F20"/>
<path d="M1564.59 386.554L1602 365.323L1602.38 365.113V364.683V138.559H1600.91V364.263L1563.87 385.274L1564.59 386.554Z" fill="#231F20"/>
<path d="M1623.86 378.344L1602.04 364.113L1601.24 365.343L1623.06 379.574L1623.86 378.344Z" fill="#231F20"/>
<path fill-rule="evenodd" clip-rule="evenodd" d="M1563.5 170.081L1563.76 169.851L1601.17 137.999L1601.68 137.569L1602.16 138.029L1623.97 159.37L1624.19 159.59V379.444L1623.81 379.654L1586.42 400.065L1586.05 400.265L1585.69 400.045L1563.94 386.704L1563.59 386.485V386.074L1563.5 170.411V170.081ZM1565.05 385.674L1586.1 398.585L1622.72 378.584V160.21L1601.61 139.559L1564.96 170.761L1565.05 385.674Z" fill="#231F20"/>
<path d="M1601.12 119.748L1622.94 141.689L1623.98 140.659L1602.16 118.708L1601.12 119.748Z" fill="#231F20"/>
<path d="M1564.71 152.54L1602.12 119.777L1602.38 119.558V119.228V66.7341H1600.91V118.898L1563.75 151.44L1564.71 152.54Z" fill="#231F20"/>
<path d="M1613.56 150.29L1623.92 141.739L1624.19 141.519V141.179V90.4759L1624 89.9758L1602.17 66.2844L1601.67 65.7443L1601.13 66.2541L1563.73 101.437L1563.5 101.667V101.977V151.989V152.32L1563.74 152.54L1574.19 162.05L1575.18 160.97L1564.97 151.67V102.287L1601.6 67.8245L1622.72 90.7557V140.839L1612.63 149.16L1613.56 150.29Z" fill="#231F20"/>
<path d="M1561.65 446.508V355.502H1560.29V446.508H1561.65Z" fill="#231F20"/>
<path d="M1561.65 596.447V530.483H1560.29V596.447H1561.65Z" fill="#231F20"/>
<path d="M1561.65 816.191V707.844H1560.29V816.191H1561.65Z" fill="#231F20"/>
<path fill-rule="evenodd" clip-rule="evenodd" d="M1429.37 794.79L1428.67 794.82V664.532L1429.19 664.402L1455.52 658.021L1456.36 657.821V793.85L1455.71 793.87L1429.37 794.79ZM1455 659.531L1430.02 665.592V793.42L1455 792.54V659.531Z" fill="#231F20"/>
<path fill-rule="evenodd" clip-rule="evenodd" d="M1337.22 686.663L1337.76 686.533L1420.3 666.522L1421.17 666.312V795.12L1420.49 795.14L1337.95 798.03L1337.22 798.06V686.663ZM1419.75 793.75V668.122L1338.64 687.773V796.59L1419.75 793.75Z" fill="#231F20"/>
<path d="M1526.72 692.793V626.949V626.469L1526.25 626.349L1492.47 618.039L1491.7 617.839V618.639V803.19V803.8H1492.31L1526.09 804.351L1526.72 804.36V803.73V715.605H1525.48V803.1L1492.94 802.58V619.429L1525.48 627.44V692.793H1526.72Z" fill="#231F20"/>
<path d="M1522.75 815.821H1521.62V803.67H1522.75V815.821ZM1521.62 625.989V543.324H1522.75V625.989H1521.62Z" fill="#231F20"/>
<path d="M1414.37 668.832H1413.24V658.692H1414.37V668.832ZM1414.37 636.77H1413.25V615.259H1414.37V636.77ZM1414.37 601.908H1413.25V579.946H1414.37V601.908ZM1413.25 543.374L1413.24 505.012V504.222L1413.99 504.482L1421.83 507.252L1421.45 508.312L1414.36 505.812L1414.38 543.374H1413.25Z" fill="#231F20"/>
<path d="M1430.82 511.622L1522 543.844L1522.39 543.834L1550.35 533.184L1549.95 532.133L1522.18 542.714L1431.19 510.562L1430.82 511.622Z" fill="#231F20"/>
<path d="M1321.01 608.408L1357.17 616.149L1357.48 616.129L1472.08 574.466L1471.7 573.406L1357.24 615.018L1321.24 607.308L1321.01 608.408Z" fill="#231F20"/>
<path d="M1357.85 682.523H1356.72V673.332H1357.85V682.523ZM1357.85 653.431H1356.72V633.92H1357.85V653.431ZM1356.72 621.809V615.598H1357.85V621.809H1356.72Z" fill="#231F20"/>
<path d="M1321.68 681.353H1320.55V645.87H1321.68V681.353ZM1321.67 634.56H1320.55V607.858V607.468L1320.9 607.328L1337.83 600.488L1338.25 601.538L1321.67 608.228V634.56ZM1455.59 554.115L1455.17 553.065L1513.39 529.533L1513.8 530.583L1455.59 554.115ZM1525.89 524.493L1550.12 514.703L1550.54 515.752L1526.31 525.543L1525.89 524.493Z" fill="#231F20"/>
<path d="M1547.38 816.191H1546.26V718.315H1547.39L1547.38 816.191ZM1546.26 689.233V516.623H1547.39L1547.38 689.233H1546.26Z" fill="#231F20"/>
<path d="M1543.17 518.012H1544.3L1544.29 689.773H1543.17V518.012ZM1544.28 717.905V816.191H1543.15L1543.16 717.905H1544.28Z" fill="#231F20"/>
<path d="M1540.19 518.943H1541.32L1541.31 690.283H1540.19V518.943ZM1541.31 717.515L1541.3 816.191H1540.18V717.515H1541.31Z" fill="#231F20"/>
<path d="M1600.87 584.617V684.373L1557.31 691.553L1557.55 693.074L1601.77 685.783L1602.41 685.673V685.023V584.617H1600.87Z" fill="#231F20"/>
<path d="M1623.6 688.403L1601.78 684.273L1601.5 685.773L1623.31 689.903L1623.6 688.403Z" fill="#231F20"/>
<path fill-rule="evenodd" clip-rule="evenodd" d="M1624.22 689.813L1623.57 689.913L1579.5 696.764H1579.26L1557.3 693.074L1556.66 692.964V596.898L1557.22 596.737L1601.42 583.877L1601.88 583.887L1623.7 591.187L1624.22 591.357V689.813ZM1601.62 585.417L1558.2 598.057V691.674L1579.39 695.234L1622.69 688.503V592.467L1601.62 585.417Z" fill="#231F20"/>
<path d="M1650.03 628.659L1695.36 641.89L1695.68 640.81L1650.35 627.579L1650.03 628.659Z" fill="#231F20"/>
<path d="M1480.05 579.156L1557.24 601.688L1557.62 600.388L1480.42 577.856L1480.05 579.156Z" fill="#231F20"/>
<path d="M1650.04 640.39L1695.37 652.791L1695.67 651.701L1650.34 639.3L1650.04 640.39Z" fill="#231F20"/>
<path d="M1480.06 593.967L1557.25 615.098L1557.61 613.788L1480.41 592.657L1480.06 593.967Z" fill="#231F20"/>
<path d="M1537.93 418.836L1538.47 419.827L1518.35 430.717L1517.82 429.727L1537.93 418.836ZM1492.05 443.688L1492.59 444.678L1455.65 464.689L1455.11 463.699L1492.05 443.688ZM1421.37 481.991L1421.9 482.98L1406.26 491.451L1405.73 490.461L1421.37 481.991ZM1376.66 506.222L1377.19 507.212L1375.22 508.282L1375.01 508.392L1374.78 508.322L1363.21 504.442L1363.56 503.372L1374.9 507.172L1376.66 506.222ZM1337.86 495.941L1320.92 490.261L1321.28 489.191L1338.21 494.871L1337.86 495.941Z" fill="#231F20"/>
<path fill-rule="evenodd" clip-rule="evenodd" d="M1526.72 535.524L1525.88 535.214L1492.11 522.843L1491.7 522.693V416.406L1492.6 416.856L1526.37 433.637L1526.72 433.817V535.524ZM1492.94 418.406V521.823L1525.48 533.744V434.577L1492.94 418.406Z" fill="#231F20"/>
<path d="M1456.43 647.851V624.419H1454.94V647.851H1456.43Z" fill="#231F20"/>
<path d="M1550.47 666.112L1455.83 647.12L1455.5 647.131L1337.74 677.622L1338.11 679.062L1455.71 648.611L1550.17 667.572L1550.47 666.112Z" fill="#231F20"/>
<path d="M1455.05 695.793L1492.24 701.154L1492.4 700.044L1455.21 694.674L1455.05 695.793Z" fill="#231F20"/>
<path d="M1420.38 690.793L1428.72 692.004L1428.88 690.883L1420.54 689.683L1420.38 690.793Z" fill="#231F20"/>
<path d="M1360.98 680.913L1338.67 677.702V659.701L1455.71 625.179L1549.83 646.701L1550.16 645.24L1455.85 623.689L1455.48 623.699L1337.72 658.431L1337.18 658.591V659.141V678.343V678.993L1337.82 679.082L1360.78 682.393L1360.98 680.913Z" fill="#231F20"/>
<path d="M1278.02 660.891L1480.47 594.027L1480 592.607L1277.55 659.471L1278.02 660.891Z" fill="#231F20"/>
<path d="M1479.99 577.796L1277.54 649.121L1277.04 649.291V649.821V660.181V660.822L1277.67 660.922L1337.82 670.152L1338.04 668.672L1278.53 659.541V650.351L1480.48 579.207L1479.99 577.796Z" fill="#231F20"/>
<path fill-rule="evenodd" clip-rule="evenodd" d="M1456.06 564.246L1455.63 564.416L1338.28 610.008L1337.36 610.368V576.936L1337.76 576.746L1455.11 524.103L1456.06 523.673V564.246ZM1338.71 577.806V608.388L1454.71 563.325V525.763L1338.71 577.806Z" fill="#231F20"/>
<path d="M1410.69 532.834V324.47H1409.57V532.834H1410.69Z" fill="#231F20"/>
<path d="M1367.71 553.365V358.933H1366.58V553.365H1367.71Z" fill="#231F20"/>
<path d="M1352.03 560.725L1460.37 509.912L1460.69 509.762V509.402V284.298H1459.56V509.042L1351.55 559.705L1352.03 560.725Z" fill="#231F20"/>
<path fill-rule="evenodd" clip-rule="evenodd" d="M1306.71 403.025L1307.64 402.275V492.231L1307.38 492.391L1283.09 508.102L1282.22 508.672V423.197L1282.42 423.026L1306.71 403.025ZM1283.35 506.592L1306.51 491.621V404.656L1283.35 423.727V506.592Z" fill="#231F20"/>
<path d="M1539.04 816.191H1537.35V717.185H1539.04V816.191ZM1539.04 690.714H1537.35V419.836L1480.28 389.885L1455.84 405.366L1454.93 403.935L1479.79 388.195L1480.19 387.934L1480.63 388.164L1538.59 418.576L1539.04 418.816V419.326V690.714ZM1421.18 425.317L1422.09 426.747L1406.45 436.658L1405.54 435.227L1421.18 425.317ZM1376.48 453.639L1377.39 455.068L1363.84 463.649L1362.94 462.219L1376.48 453.639ZM1337.59 478.27L1338.49 479.7L1321.95 490.181V634.55H1320.26V489.711V489.241L1320.66 488.991L1337.59 478.27ZM1321.94 816.191H1320.25V751.997H1321.94V816.191ZM1320.26 689.893V645.87H1321.95L1321.94 689.893H1320.26Z" fill="#231F20"/>
<path d="M1362.66 357.102L1362.65 543.634L1337.71 555.795L1338.36 557.115L1363.7 544.754L1364.11 544.544V544.094L1364.12 357.102H1362.66Z" fill="#231F20"/>
<path d="M1351.06 635.74V655.051H1352.53V635.74H1351.06Z" fill="#231F20"/>
<path d="M1390.33 622.749V643.461H1391.91V622.749H1390.33Z" fill="#231F20"/>
<path d="M1377.26 363.173L1363.72 356.472L1363.29 356.262L1362.93 356.562L1337.57 377.414L1337.3 377.634V377.974V556.455V557.015L1337.84 557.165L1351.06 560.755V623.749H1352.53V560.185V559.625L1351.99 559.485L1338.77 555.895V378.324L1363.49 357.993L1376.61 364.493L1377.26 363.173Z" fill="#231F20"/>
<path d="M1454.54 281.338V498.662L1421.26 514.902L1422.01 516.422L1455.76 499.961L1456.23 499.722V499.191V281.338H1454.54Z" fill="#231F20"/>
<path d="M1405.2 322.01V522.803L1376.58 536.774L1377.27 538.194L1406.34 524.003L1406.79 523.793V523.293V322.01H1405.2Z" fill="#231F20"/>
<path d="M1422.01 330.061L1406.38 321.34L1405.91 321.08L1405.5 321.43L1376.43 345.342L1376.14 345.582V345.952V537.484L1376.13 538.064L1376.7 538.234L1390.34 542.384L1390.33 609.898H1391.91V541.794V541.214L1391.35 541.044L1377.71 536.894L1377.72 346.322L1406.09 322.981L1421.25 331.441L1422.01 330.061Z" fill="#231F20"/>
<path d="M1435.36 607.858V630.159H1437.05V607.858H1435.36Z" fill="#231F20"/>
<path d="M1472.71 581.457H1471.01V292.279L1455.44 282.358L1422.47 309.539L1422.48 515.052L1436.47 519.873L1437.04 520.073V520.673V594.017H1435.36L1435.35 521.283L1421.36 516.462L1420.79 516.262V515.663L1420.78 309.139V308.749L1421.09 308.489L1454.84 280.668L1455.31 280.278L1455.83 280.608L1472.32 291.109L1472.71 291.359V291.819V581.457ZM1472.71 596.088V816.201H1471.01V596.088H1472.71Z" fill="#231F20"/>
<path d="M1338.29 380.004L1296.5 360.973L1295.99 362.103L1337.78 381.134L1338.29 380.004Z" fill="#231F20"/>
<path fill-rule="evenodd" clip-rule="evenodd" d="M1526.72 361.563L1525.78 361.003L1492.01 340.971L1491.7 340.791V261.746L1492.67 262.417L1526.45 285.708L1526.72 285.898V361.563ZM1492.94 264.107V340.092L1525.48 359.383V286.538L1492.94 264.107Z" fill="#231F20"/>
<path d="M1545.59 271.037L1546.32 272.037L1526.42 286.688L1525.68 285.688L1545.59 271.037ZM1491.96 310.49L1492.69 311.49L1455.76 338.672L1455.02 337.671L1491.96 310.49ZM1422 363.513L1406.37 375.014L1405.64 374.014L1421.27 362.513L1422 363.513Z" fill="#231F20"/>
<path d="M1538.56 385.644L1537.84 386.914L1480.27 354.193L1455.8 370.993L1454.97 369.783L1479.82 352.722L1480.2 352.462L1480.6 352.692L1538.56 385.644ZM1421.21 392.945L1422.04 394.155L1406.41 404.886L1405.58 403.676L1421.21 392.945ZM1376.51 423.617L1377.34 424.837L1363.8 434.127L1362.97 432.917L1376.51 423.617ZM1338.45 451.508L1321.52 463.129L1320.69 461.919L1337.62 450.298L1338.45 451.508Z" fill="#231F20"/>
<path d="M1537.46 263.516H1538.93V386.284V386.695L1538.57 386.914L1455.76 435.517L1455.01 434.247L1537.46 385.864V263.516ZM1421.26 454.059L1422 455.318L1406.37 464.499L1405.63 463.239L1421.26 454.059ZM1376.55 480.3L1377.29 481.57L1375.32 482.73L1375.02 482.9L1374.7 482.78L1363.13 478.58L1363.63 477.2L1374.87 481.29L1376.55 480.3ZM1337.78 469.359L1320.85 463.209L1320.37 463.029V462.529L1320.38 352.602H1321.84L1321.83 462.009L1338.28 467.99L1337.78 469.359Z" fill="#231F20"/>
<path d="M1481.08 816.191V388.914H1479.39V816.191H1481.08Z" fill="#231F20"/>
<path d="M1880.53 687.503L1789.18 659.311L1788.65 661.032L1880 689.223L1880.53 687.503Z" fill="#231F20"/>
<path d="M1704.61 633.09L1639.94 613.129L1639.34 615.069L1704.02 635.03L1704.61 633.09Z" fill="#231F20"/>
<path d="M1789.21 659.201L1704.61 633.09L1704.02 635.03L1788.61 661.141L1789.21 659.201Z" fill="#231F20"/>
<path d="M1705.07 343.552L1640.34 291.798L1638.94 293.549L1703.67 345.302L1705.07 343.552Z" fill="#231F20"/>
<path d="M1789.58 411.266L1705 343.642L1703.74 345.222L1788.31 412.846L1789.58 411.266Z" fill="#231F20"/>
<path d="M1880.83 484.36L1789.51 411.356L1788.38 412.756L1879.7 485.771L1880.83 484.36Z" fill="#231F20"/>
<path d="M1639.16 291.908L1549.84 347.992L1550.8 349.522L1640.12 293.439L1639.16 291.908Z" fill="#231F20"/>
<path d="M1639.1 190.412L1601.1 218.894L1549.77 257.366L1550.86 258.806L1602.18 220.334L1640.18 191.852L1639.1 190.412Z" fill="#231F20"/>
<path d="M1549.72 349.712L1563.63 358.453L1564.83 356.542L1550.92 347.802L1549.72 349.712Z" fill="#231F20"/>
<path d="M1846.87 494.651L1847.27 495.941L1822.76 503.492L1822.36 502.202L1846.87 494.651ZM1816.82 503.912L1817.22 505.202L1804.68 509.072L1804.38 509.152L1804.12 508.992L1788.55 499.211L1789.27 498.071L1804.57 507.682L1816.82 503.912ZM1749.6 474.74L1750.32 473.6L1782.85 494.031L1782.13 495.181L1749.6 474.74ZM1703.97 446.068L1704.69 444.928L1742.85 468.899L1742.13 470.04L1703.97 446.068ZM1695.18 440.558L1649.84 412.076L1587.65 373.003L1588.37 371.853L1650.57 410.936L1695.9 439.408L1695.18 440.558Z" fill="#231F20"/>
<path d="M1705.09 252.046L1640.42 190.312L1638.86 191.942L1703.53 253.686L1705.09 252.046Z" fill="#231F20"/>
<path d="M1789.61 332.901L1705.01 252.126L1703.61 253.596L1788.21 334.371L1789.61 332.901Z" fill="#231F20"/>
<path d="M1880.88 420.186L1789.53 332.981L1788.29 334.281L1879.64 421.487L1880.88 420.186Z" fill="#231F20"/>
<path d="M1852.19 494.661L1880.53 485.931L1880 484.21L1851.66 492.941L1852.19 494.661Z" fill="#231F20"/>
<path d="M1741.46 129.719H1743.48L1743.5 695.773H1741.47L1741.46 129.719ZM1743.5 715.355V816.201H1741.48V715.355H1743.5Z" fill="#231F20"/>
<path d="M1816.08 222.514H1817.88L1817.94 712.044H1816.13L1816.08 222.514ZM1817.94 728.976L1817.95 816.201H1816.15L1816.14 728.976H1817.94Z" fill="#231F20"/>
<path d="M1736.28 558.015V369.403H1734.93V558.015H1736.28Z" fill="#231F20"/>
<path d="M1736.51 648.211V643.72H1734.7V648.211H1736.51Z" fill="#231F20"/>
<path d="M1736.51 816.191V739.657H1734.7V816.191H1736.51Z" fill="#231F20"/>
<path d="M1732.28 816.191L1732.27 773.009V772.489L1731.75 772.449L1704.36 770.318L1704.27 771.449L1731.14 773.528V816.191H1732.28Z" fill="#231F20"/>
<path d="M1768.2 816.191V741.776H1767.07V816.191H1768.2Z" fill="#231F20"/>
<path d="M1762.95 816.191V770.028V769.508L1762.44 769.458L1750 768.368L1749.9 769.498L1761.82 770.538V816.191H1762.95Z" fill="#231F20"/>
<path d="M1852.82 719.655V266.007L1852.62 265.447L1818.1 221.734L1817.61 221.114L1816.94 221.514L1735.14 269.467L1734.69 269.727V270.237L1734.71 282.738H1736.51L1736.49 270.757L1817.17 223.464L1851.02 266.317V719.655H1852.82Z" fill="#231F20"/>
<path d="M1657.12 322.03V306.069H1655.65V322.03H1657.12Z" fill="#231F20"/>
<path d="M1657.12 521.423V430.677H1655.65V521.423H1657.12Z" fill="#231F20"/>
<path d="M1657.4 676.992V619.269H1655.37V676.992H1657.4Z" fill="#231F20"/>
<path d="M1657.4 816.191V699.624H1655.37V816.191H1657.4Z" fill="#231F20"/>
<path d="M1789.93 705.904L1789.89 187.512L1789.67 186.882L1743.75 128.688L1743.14 127.918L1742.35 128.498L1655.78 191.912L1655.36 192.212V192.732L1655.37 207.123H1657.4L1657.39 193.242L1742.76 130.708L1787.86 187.862L1787.91 705.904H1789.93Z" fill="#231F20"/>
<path d="M1789.94 816.191L1789.93 723.835H1787.91V816.191H1789.94Z" fill="#231F20"/>
<path d="M1638.51 1.68028V816.191H1640.77V1.68028H1638.51Z" fill="#231F20"/>
<path d="M1705.43 816.191H1703.18L1703.19 708.374H1705.44L1705.43 816.191ZM1705.43 687.443H1703.18L1703.21 82.6253L1639.56 3.35031L1551.43 89.4856L1551.44 688.633H1549.19L1549.18 89.0056V88.5358L1549.52 88.1959L1638.88 0.870172L1639.76 0L1640.54 0.970275L1705.21 81.5251L1705.46 82.2351L1705.43 687.443ZM1551.44 709.365V816.191H1549.19V709.365H1551.44Z" fill="#231F20"/>
<path d="M1788.52 583.467L1879.36 625.429V687.563L1851.81 690.843L1852.03 692.634L1880.37 689.263L1881.17 689.173V688.373V624.849V624.279L1880.64 624.039L1789.28 581.826L1788.52 583.467Z" fill="#231F20"/>
<path d="M1703.9 544.484L1788.48 583.567L1789.33 581.716L1704.75 542.644L1703.9 544.484Z" fill="#231F20"/>
<path d="M1639.21 514.602L1703.9 544.484L1704.75 542.644L1640.06 512.762L1639.21 514.602Z" fill="#231F20"/>
<path d="M1550.5 636.49L1550.14 635L1557.25 633.28L1557.61 634.77L1550.5 636.49ZM1601.46 622.559L1639.46 613.348L1639.82 614.839L1601.82 624.049L1601.46 622.559Z" fill="#231F20"/>
<path d="M1846.99 691.643L1822.5 694.554L1822.66 695.904L1847.15 692.984L1846.99 691.643Z" fill="#231F20"/>
<path d="M1788.77 694.273L1804.32 698.044L1804.56 698.054L1817.11 696.564L1816.96 695.214L1804.51 696.694L1789.09 692.953L1788.77 694.273Z" fill="#231F20"/>
<path d="M1704.15 673.742L1742.33 683.003L1742.65 681.693L1704.47 672.432L1704.15 673.742Z" fill="#231F20"/>
<path d="M1650.03 660.621L1695.36 671.612L1695.68 670.302L1650.35 659.311L1650.03 660.621Z" fill="#231F20"/>
<path d="M1550.16 636.4L1557.27 638.13L1557.59 636.81L1550.48 635.09L1550.16 636.4Z" fill="#231F20"/>
<path d="M1848.6 816.311V739.007L1851.93 738.757L1861.17 740.387V816.311H1862.66V739.766V739.136L1862.04 739.026L1852.1 737.266H1851.92L1847.8 737.566L1847.12 737.626V738.316V816.311H1848.6Z" fill="#231F20"/>
<path d="M1823.33 816.191H1821.85L1821.84 729.986H1823.32L1823.33 816.191ZM1823.33 713.245H1821.84V670.562H1823.32L1823.33 713.245ZM1821.84 598.188L1821.82 438.918H1823.31L1823.32 598.188H1821.84Z" fill="#231F20"/>
<path d="M1847.81 742.057L1822.63 743.836L1822.73 745.317L1847.91 743.546L1847.81 742.057Z" fill="#231F20"/>
<path d="M1851.23 738.007V816.311H1852.71V738.007H1851.23Z" fill="#231F20"/>
<path d="M1880.4 739.796L1639.77 695.824L1639.5 697.284L1880.13 741.257L1880.4 739.796Z" fill="#231F20"/>
<path d="M1516.15 715.025L1639.74 697.294L1639.53 695.824L1515.94 713.555L1516.15 715.025Z" fill="#231F20"/>
<path d="M1550.45 718.045L1516.79 713.635V695.143L1639.77 674.072L1639.51 672.602L1515.92 693.784L1515.3 693.884V694.514V714.285V714.945L1515.95 715.025L1550.26 719.515L1550.45 718.045Z" fill="#231F20"/>
<path d="M1861.96 742.557L1880.31 741.266L1881.01 741.217V740.526V725.835V725.236L1880.42 725.105L1639.8 672.612L1639.48 674.062L1879.52 726.435V739.826L1861.86 741.077L1861.96 742.557Z" fill="#231F20"/>
<path d="M1538.33 668.792L1459.67 653.471L1459.43 653.481L1360.27 678.082L1360.55 679.173L1459.58 654.601L1538.12 669.902L1538.33 668.792Z" fill="#231F20"/>
<path d="M1650.1 702.274L1813.22 731.226V818.131H1814.12V730.856V730.476L1813.75 730.406L1650.26 701.384L1650.1 702.274Z" fill="#231F20"/>
<path d="M1880.39 627.059L1639.7 517.362L1639.36 518.092L1880.05 627.789L1880.39 627.059Z" fill="#231F20"/>
<path d="M1880.52 480.86L1639.88 286.198L1639.37 286.828L1880.01 481.491L1880.52 480.86Z" fill="#231F20"/>
<path d="M1880.37 685.023L1639.63 608.998L1639.38 609.778L1880.13 685.803L1880.37 685.023Z" fill="#231F20"/>
<path d="M1711.69 546.764V450.199H1710.79V546.764H1711.69Z" fill="#231F20"/>
<path d="M1601.83 619.209L1639.76 609.798L1639.56 609.008L1601.64 618.419L1601.83 619.209Z" fill="#231F20"/>
<path d="M1550.46 718.755L1639.74 707.034L1639.63 706.224L1550.35 717.955L1550.46 718.755Z" fill="#231F20"/>
<path d="M1874.91 423.217L1885.21 419.427L1884.9 418.576L1874.6 422.367L1874.91 423.217Z" fill="#231F20"/>
<path d="M1291.3 597.307L1298.44 594.077L1298.08 593.257L1290.93 596.478L1291.3 597.307Z" fill="#231F20"/>
<path d="M1291.3 604.268L1298.44 601.138L1298.08 600.318L1290.94 603.448L1291.3 604.268Z" fill="#231F20"/>
<path d="M1291.29 611.238L1298.43 608.218L1298.08 607.388L1290.94 610.408L1291.29 611.238Z" fill="#231F20"/>
<path d="M1291.29 618.209L1298.43 615.288L1298.09 614.449L1290.95 617.369L1291.29 618.209Z" fill="#231F20"/>
<path d="M1291.28 625.169L1298.42 622.359L1298.09 621.519L1290.95 624.329L1291.28 625.169Z" fill="#231F20"/>
<path d="M1291.27 632.14L1298.42 629.429L1298.1 628.579L1290.96 631.3L1291.27 632.14Z" fill="#231F20"/>
<path d="M1291.27 639.11L1298.41 636.49L1298.1 635.65L1290.96 638.26L1291.27 639.11Z" fill="#231F20"/>
<path d="M1560.66 631.73L1560.96 632.97L1564.03 632.22L1563.73 630.98L1560.66 631.73ZM1570.8 629.26L1567.73 630.01L1568.03 631.25L1571.11 630.51L1570.8 629.26ZM1577.87 627.529L1574.8 628.279L1575.11 629.519L1578.17 628.779L1577.87 627.529ZM1584.95 625.799L1581.88 626.549L1582.18 627.799L1585.25 627.049L1584.95 625.799ZM1592.03 624.069L1588.96 624.819L1589.27 626.059L1592.33 625.319L1592.03 624.069ZM1599.11 622.339L1596.04 623.089L1596.34 624.339L1599.41 623.579L1599.11 622.339Z" fill="#231F20"/>
<path d="M1552.22 544.554L1552.66 545.764L1555.13 544.864L1554.69 543.654L1552.22 544.554ZM1560.39 541.594L1557.92 542.494L1558.36 543.694L1560.83 542.794L1560.39 541.594ZM1566.09 539.524L1563.62 540.424L1564.05 541.634L1566.52 540.734L1566.09 539.524ZM1571.79 537.454L1569.32 538.354L1569.76 539.564L1572.23 538.664L1571.79 537.454ZM1577.49 535.384L1575.02 536.283L1575.46 537.484L1577.93 536.584L1577.49 535.384ZM1583.19 533.323L1580.71 534.214L1581.15 535.424L1583.63 534.524L1583.19 533.323ZM1588.88 531.253L1586.41 532.153L1586.85 533.354L1589.32 532.454L1588.88 531.253ZM1594.58 529.193L1592.11 530.083L1592.54 531.293L1595.02 530.393L1594.58 529.193ZM1600.28 527.123L1597.8 528.023L1598.24 529.223L1600.71 528.333L1600.28 527.123ZM1605.98 525.053L1603.51 525.953L1603.95 527.153L1606.42 526.253L1605.98 525.053ZM1611.67 522.983L1609.2 523.883L1609.64 525.093L1612.11 524.193L1611.67 522.983ZM1617.38 520.913L1614.9 521.813L1615.34 523.013L1617.82 522.123L1617.38 520.913ZM1623.07 518.842L1620.6 519.743L1621.04 520.943L1623.51 520.043L1623.07 518.842ZM1628.77 516.772L1626.3 517.672L1626.74 518.882L1629.21 517.983L1628.77 516.772ZM1634.47 514.703L1632 515.592L1632.43 516.802L1634.91 515.902L1634.47 514.703ZM1640.17 512.632L1637.69 513.532L1638.13 514.743L1640.61 513.842L1640.17 512.632Z" fill="#231F20"/>
<path d="M1416.48 697.364L1416.31 698.634L1419.93 699.124L1420.11 697.854L1416.48 697.364ZM1408.12 696.244L1407.95 697.514L1411.57 698.004L1411.74 696.734L1408.12 696.244ZM1399.77 695.114L1399.6 696.384L1403.22 696.874L1403.4 695.603L1399.77 695.114ZM1391.41 693.994L1391.24 695.264L1394.86 695.744L1395.04 694.474L1391.41 693.994ZM1383.05 692.873L1382.88 694.143L1386.5 694.634L1386.67 693.364L1383.05 692.873ZM1374.7 691.743L1374.53 693.013L1378.15 693.504L1378.32 692.234L1374.7 691.743ZM1366.35 690.613L1366.18 691.884L1369.8 692.373L1369.98 691.103L1366.35 690.613ZM1357.98 689.493L1357.81 690.763L1361.44 691.243L1361.62 689.973L1357.98 689.493ZM1349.62 688.373L1349.45 689.643L1353.07 690.133L1353.25 688.863L1349.62 688.373ZM1341.09 688.513L1344.72 689.003L1344.89 687.733L1341.27 687.243L1341.09 688.513Z" fill="#231F20"/>
<path d="M1330.12 650.691L1326.16 651.931L1326.54 653.161L1330.5 651.911L1330.12 650.691ZM1320.99 653.561L1317.03 654.811L1317.41 656.031L1321.37 654.791L1320.99 653.561ZM1348.39 644.941L1344.43 646.191L1344.82 647.411L1348.78 646.171L1348.39 644.941ZM1339.25 647.81L1335.29 649.051L1335.68 650.271L1339.64 649.031L1339.25 647.81ZM1366.65 639.2L1362.69 640.44L1363.08 641.66L1367.04 640.42L1366.65 639.2ZM1357.51 642.07L1353.55 643.31L1353.93 644.54L1357.89 643.29L1357.51 642.07ZM1375.79 636.33L1371.82 637.57L1372.21 638.8L1376.17 637.55L1375.79 636.33ZM1384.92 633.46L1380.96 634.7L1381.35 635.93L1385.31 634.68L1384.92 633.46ZM1403.18 627.719L1399.22 628.96L1399.61 630.19L1403.57 628.94L1403.18 627.719ZM1394.05 630.59L1390.09 631.84L1390.47 633.06L1394.43 631.809L1394.05 630.59ZM1421.45 621.979L1417.49 623.229L1417.87 624.449L1421.84 623.199L1421.45 621.979ZM1412.31 624.849L1408.35 626.099L1408.74 627.319L1412.7 626.069L1412.31 624.849ZM1430.57 619.109L1426.61 620.359L1427 621.579L1430.96 620.329L1430.57 619.109ZM1439.7 616.239L1435.74 617.489L1436.13 618.709L1440.08 617.469L1439.7 616.239ZM1448.84 613.359L1444.88 614.609L1445.26 615.828L1449.22 614.589L1448.84 613.359ZM1457.97 610.488L1454.01 611.729L1454.4 612.959L1458.36 611.709L1457.97 610.488ZM1467.1 607.618L1463.14 608.868L1463.52 610.088L1467.49 608.838L1467.1 607.618ZM1309.06 812.321H1307.78V815.851H1309.06V812.321ZM1309.06 804.181H1307.78V807.711H1309.06V804.181ZM1309.06 796.04H1307.78V799.57H1309.06V796.04ZM1309.06 787.899H1307.78V791.43H1309.06V787.899ZM1309.06 779.759H1307.78V783.289H1309.06V779.759ZM1309.06 771.618H1307.78V775.148H1309.06V771.618ZM1309.06 763.478H1307.78V767.008H1309.06V763.478ZM1309.06 755.337H1307.78V758.868H1309.06V755.337ZM1309.06 747.197H1307.78V750.727H1309.06V747.197ZM1309.06 739.056H1307.78V742.597H1309.06V739.056ZM1309.06 730.906H1307.78V734.446H1309.06V730.906ZM1309.06 722.756H1307.78V726.286H1309.06V722.756ZM1309.06 714.625H1307.78V718.155H1309.06V714.625ZM1309.06 706.474H1307.78V710.005H1309.06V706.474ZM1309.06 698.334H1307.78V701.864H1309.06V698.334ZM1309.06 682.053H1307.78V685.583H1309.06V682.053ZM1309.06 690.203H1307.78V693.723H1309.06V690.203ZM1309.06 665.782H1307.78V669.312H1309.06V665.782ZM1309.06 673.922H1307.78V677.452H1309.06V673.922ZM1307.78 657.641V661.172H1309.06V658.641L1312.21 657.651L1311.83 656.431L1307.98 657.641H1307.78Z" fill="#231F20"/>
<path fill-rule="evenodd" clip-rule="evenodd" d="M1254.08 786.909V762.868L1254.69 762.918L1296.37 766.038L1296.89 766.078V788.72L1296.3 788.7L1254.63 786.93L1254.08 786.909ZM1295.76 787.539V767.118L1255.21 764.088V785.829L1295.76 787.539Z" fill="#231F20"/>
<path d="M1350.5 816.191V724.035H1349.59V816.191H1350.5Z" fill="#231F20"/>
<path d="M1330.64 725.295L1363.34 723.886L1363.29 722.756L1330.59 724.165L1330.64 725.295Z" fill="#231F20"/>
<path d="M1362.26 713.115V816.191H1363.62V713.115H1362.26Z" fill="#231F20"/>
<path d="M1330.51 712.205L1367.06 718.285L1367.27 716.955L1330.72 710.874L1330.51 712.205Z" fill="#231F20"/>
<path d="M1234.62 696.204L1248.08 698.444L1248.27 697.224L1234.82 694.984L1234.62 696.204Z" fill="#231F20"/>
<path d="M1248.27 704.604L1234.82 702.504L1234.62 703.734L1248.08 705.834L1248.27 704.604Z" fill="#231F20"/>
<path d="M1363.03 722.495L1330.71 717.465L1330.52 718.685L1362.84 723.725L1363.03 722.495Z" fill="#231F20"/>
<path d="M1247.5 675.472L1247.49 744.677H1248.85V675.472H1247.5Z" fill="#231F20"/>
<path d="M1330.68 752.287L1248.24 744.007H1248.15L1234.69 744.546L1234.75 745.897L1248.15 745.357L1330.55 753.637L1330.68 752.287Z" fill="#231F20"/>
<path d="M1234.74 756.928L1330.64 753.637L1331.29 753.607V752.957V691.773V691.223L1330.75 691.103L1248.3 674.812L1248.12 674.802L1234.67 675.883L1234.77 677.233L1248.13 676.162L1329.94 692.323V752.307L1234.7 755.577L1234.74 756.928Z" fill="#231F20"/>
<path d="M1123.71 725.165V816.191H1124.62V725.165H1123.71Z" fill="#231F20"/>
<path d="M1204.26 641.69V816.191H1205.62V641.69H1204.26Z" fill="#231F20"/>
<path d="M1207.1 645.72V816.191H1207.91V645.72H1207.1Z" fill="#231F20"/>
<path d="M1231.57 645.72V816.191H1232.38V645.72H1231.57Z" fill="#231F20"/>
<path d="M1176.68 639.56V816.181H1177.81V639.56H1176.68Z" fill="#231F20"/>
<path d="M1179.4 647.56V816.181H1180.22V647.56H1179.4Z" fill="#231F20"/>
<path d="M1204.93 803.69L1234.71 804.21L1235.4 804.221V803.53V651.801V651.261L1234.87 651.141L1205.09 644.39L1204.88 644.381L1177.18 647.141L1177.31 648.491L1204.9 645.741L1234.04 652.341V802.85L1204.95 802.34L1204.93 803.69Z" fill="#231F20"/>
<path d="M1147.84 816.181V688.443H1146.14V816.181H1147.84Z" fill="#231F20"/>
<path d="M1143.48 816.181V693.083H1142.66V816.181H1143.48Z" fill="#231F20"/>
<path d="M1162.62 816.181V690.964H1161.8V816.181H1162.62Z" fill="#231F20"/>
<path d="M1165.65 816.181V681.413H1164.84V816.181H1165.65Z" fill="#231F20"/>
<path d="M1147.02 725.165L1146.95 724.045L1165.32 722.875L1165.4 723.995L1147.02 725.165ZM1147.02 720.975L1146.94 719.845L1165.32 718.635L1165.39 719.755L1147.02 720.975ZM1147.02 716.785L1146.95 715.655L1165.32 714.395L1165.4 715.525L1147.02 716.785ZM1147.02 712.585L1146.94 711.455L1165.31 710.155L1165.39 711.274L1147.02 712.585ZM1147.02 708.394L1146.94 707.264L1165.31 705.904L1165.39 707.034L1147.02 708.394ZM1146.94 703.064L1159.45 702.114L1159.53 703.244L1147.03 704.194L1146.94 703.064Z" fill="#231F20"/>
<path fill-rule="evenodd" clip-rule="evenodd" d="M496.371 545.714H495.241V816.191H496.371V545.714ZM24.1615 634.13L76.4148 643.231L76.3947 815.941H77.6548L77.6648 643.45L92.1457 645.971L92.1357 816.201H93.5458L93.5558 616.999L155.19 607.058V624.009L131.618 627.48V623.469H129.838V628.21H130.828L130.858 629.159L180.681 633.68V667.282L160.6 670.062L159.93 670.162V771.318L160.77 771.268L180.681 770.118V780.189L181.481 780.169L197.192 779.749V794.09L198.342 794.06L290.658 792.48L291.768 792.46V777.209L295.988 777.099V816.201H298.809V765.838L326.3 764.898V816.201H327.44V764.848L334.151 764.628V816.201H335.731V815.941H336.891L336.911 777.419L345.822 777.189V804.29L346.762 804.3L378.244 804.511L379.194 804.52V776.318L408.475 775.568V777.059H410.256V772.259H408.475V773.999L379.194 774.759V763.078L408.475 762.068V765.988H410.256V761.188H409.726L409.706 760.458L379.194 761.508V753.157L408.475 751.967V754.928H410.256V750.117H408.475V750.397L379.194 751.587V636.65L378.334 636.56L346.862 633.56L345.822 633.46V752.947L335.731 753.357V528.953L410.396 537.234L410.546 535.844L335.731 527.543V527.453H334.151V753.417L327.44 753.697V530.773L327.74 530.713L327.36 528.963L322.62 530.023L323.01 531.763L326.3 531.033V753.737L298.809 754.857L298.799 576.506V574.846L297.169 575.106L199.882 590.817L199.902 455.818L201.103 455.439L200.633 453.938L156.73 467.809L156.19 467.979V468.56V469.72L152.179 471.759L153.01 473.37L156.19 471.75L156.18 497.861L131.618 504.252V503.432H129.838V504.712L93.5658 514.152V503.642L97.5061 501.631L96.676 500.021L92.3557 502.222L92.4257 502.372H92.1557V515.012L47.2429 526.223L46.8229 525.413L43.2627 527.213L41.9526 527.543L42.0326 529.083L92.1557 536.754L92.1457 615.598L24.1015 632.59L24.1615 634.13ZM347.712 764.158L377.304 763.148V802.63L347.712 802.43V764.158ZM347.712 754.437L377.304 753.237V761.568L347.712 762.588V754.437ZM347.712 635.53L377.304 638.35V751.667L347.712 752.867V635.53ZM335.731 764.568L345.822 764.218V775.619L336.111 775.869L335.731 775.879V764.568ZM335.731 754.928L345.822 754.517V762.658L335.731 762.998V754.928ZM327.44 755.267L334.161 754.997V763.058L327.44 763.288V755.267ZM298.809 756.437L326.31 755.317V763.328L298.809 764.278V756.437ZM295.988 603.448L199.882 617.149V593.677L295.978 578.166L295.988 603.448ZM291.778 766.078L295.998 765.938V775.528L291.778 775.639V766.078ZM291.778 756.718L295.998 756.547V764.368L291.778 764.518V756.718ZM182.271 621.249L295.988 605.028L295.998 696.484L291.778 696.814V616.079L290.488 616.259L198.182 628.65L197.202 628.779V778.179L182.271 778.579V621.249ZM199.462 779.689L289.508 777.269V790.25L199.462 791.79V779.689ZM199.462 630.75L289.508 618.669V775.709L199.462 778.119V630.75ZM291.778 698.394L295.998 698.064V754.968L291.778 755.137V698.394ZM99.0562 614.299L99.0762 514.642L129.848 506.632V508.162H131.628V506.172L156.19 499.781L156.18 542.254H157.75L157.76 499.372L158.54 499.171L158.07 497.371L157.76 497.451V469.129L198.652 456.209L198.632 591.017L192.302 592.037H192.122V618.259L181.371 619.789L180.691 619.889V620.259L156.77 623.779V575.406H155.2V605.238L99.0562 614.299ZM180.701 668.712V768.698L161.52 769.808V671.362L180.701 668.712ZM180.701 621.849V632.11L137.599 628.19L180.701 621.849ZM198.632 617.339L193.702 618.039V594.677L198.632 593.877V617.339ZM93.5658 615.189L93.5758 516.083L97.8261 514.982L97.8061 614.509L93.5658 615.189ZM92.1657 516.643V535.174L46.1429 528.123L92.1657 516.643ZM28.0917 633.23L92.1557 617.239V644.39L28.0917 633.23ZM524.623 611.368L523.733 611.249V680.413L524.443 680.483L530.613 681.093V816.221H531.743V681.203L537.604 681.783V816.221H539.014V681.923L549.884 683.003L550.744 683.083V614.959L550.064 614.868L524.623 611.368ZM525.313 613.049L549.184 616.319V681.343L525.313 678.983V613.049ZM414.766 649.591L413.856 649.701V755.758L414.946 755.707L434.877 754.767L434.857 815.951H435.977L435.997 754.707L440.447 754.508L440.427 815.951H441.678L441.708 754.437L454.738 753.827L454.718 815.951H455.978L455.998 753.767L461.129 753.527L462.119 753.477V643.57L460.949 643.711L414.766 649.591ZM415.936 651.531L460.039 645.921V751.507L415.936 753.597V651.531ZM246.625 548.774L251.356 547.725L250.966 545.984L246.235 547.034L246.625 548.774ZM163.67 565.405L158.93 566.456L159.32 568.196L164.05 567.146L163.67 565.405ZM257.546 546.354L262.276 545.304L261.886 543.564L257.156 544.614L257.546 546.354ZM268.467 543.924L273.197 542.864L272.807 541.134L268.077 542.184L268.467 543.924ZM279.377 541.494L284.118 540.444L283.728 538.704L278.987 539.754L279.377 541.494ZM174.591 562.976L169.861 564.025L170.241 565.765L174.981 564.715L174.591 562.976ZM196.422 558.125L191.682 559.175L192.072 560.915L196.802 559.865L196.422 558.125ZM185.512 560.555L180.781 561.605L181.171 563.345L185.902 562.295L185.512 560.555ZM235.725 551.225L240.465 550.165L240.075 548.424L235.345 549.475L235.725 551.225ZM152.76 567.846L148.029 568.906L148.419 570.646L153.15 569.586L152.76 567.846ZM312.109 534.234L316.84 533.184L316.46 531.434L311.719 532.494L312.109 534.234ZM301.199 536.654L305.939 535.604L305.539 533.863L300.809 534.914L301.199 536.654ZM290.278 539.084L295.018 538.034L294.628 536.294L289.898 537.344L290.278 539.084ZM202.983 558.505L207.713 557.455L207.323 555.715L202.593 556.765L202.983 558.505ZM224.814 553.655L229.544 552.605L229.154 550.855L224.424 551.915L224.814 553.655ZM141.849 570.276L137.119 571.326L137.499 573.066L142.239 572.016L141.849 570.276ZM213.893 556.075L218.624 555.025L218.244 553.285L213.503 554.335L213.893 556.075ZM408.495 511.482H410.286V506.682H408.495V511.482ZM408.495 500.412H410.286V495.611H408.495V500.412ZM408.495 489.341H410.286V484.541H408.495V489.341ZM410.286 739.086H408.495V743.897H410.286V739.086ZM408.495 522.533H410.286V517.733H408.495V522.533ZM410.286 728.016H408.495V732.816H410.286V728.016ZM410.286 783.349H408.495V788.149H410.286V783.349ZM410.286 805.491H408.495V810.291H410.286V805.491ZM410.286 794.42H408.495V799.22H410.286V794.42ZM408.495 544.664H410.286V539.864H408.495V544.664ZM408.495 533.593H410.286V528.793H408.495V533.593ZM410.286 716.955H408.495V721.745H410.286V716.955ZM410.286 606.288H408.495V611.088H410.286V606.288ZM410.286 595.217H408.495V600.017H410.286V595.217ZM410.286 617.359H408.495V622.149H410.286V617.359ZM410.286 584.157H408.495V588.957H410.286V584.157ZM410.286 562.025H408.495V566.825H410.286V562.025ZM410.286 628.429H408.495V633.23H410.286V628.429ZM410.286 573.096H408.495V577.896H410.286V573.096ZM410.286 694.844H408.495V699.644H410.286V694.844ZM410.286 683.773H408.495V688.573H410.286V683.773ZM410.286 550.965H408.495V555.765H410.286V550.965ZM410.286 705.904H408.495V710.705H410.286V705.904ZM410.286 672.702H408.495V677.503H410.286V672.702ZM410.286 650.561H408.495V655.371H410.286V650.561ZM410.286 661.621H408.495V666.422H410.286V661.621ZM410.286 639.49H408.495V644.29H410.286V639.49ZM131.638 787.209H129.858V791.94H131.638V787.209ZM129.858 497.311H131.638V492.571H129.858V497.311ZM131.638 776.309H129.858V781.039H131.638V776.309ZM131.638 710.825H129.858V715.565H131.638V710.825ZM131.638 579.877H129.858V584.607H131.638V579.877ZM131.638 765.388H129.858V770.118H131.638V765.388ZM131.638 590.787H129.858V595.527H131.638V590.787ZM131.638 612.609H129.858V617.339H131.638V612.609ZM131.638 634.43H129.858V639.17H131.638V634.43ZM131.638 525.313H129.858V530.043H131.638V525.313ZM131.638 536.224H129.858V540.954H131.638V536.224ZM131.638 558.055H129.858V562.785H131.638V558.055ZM131.638 645.35H129.858V650.091H131.638V645.35ZM131.638 568.966H129.858V573.696H131.638V568.966ZM131.638 514.402H129.858V519.133H131.638V514.402ZM131.638 547.134H129.858V551.875H131.638V547.134ZM131.638 699.904H129.858V704.634H131.638V699.904ZM131.638 732.646H129.858V737.376H131.638V732.646ZM131.638 721.735H129.858V726.466H131.638V721.735ZM131.638 754.477H129.858V759.208H131.638V754.477ZM131.638 743.566H129.858V748.297H131.638V743.566ZM131.638 678.093H129.858V682.823H131.638V678.093ZM131.638 656.271H129.858V661.002H131.638V656.271ZM131.638 667.192H129.858V671.922H131.638V667.192ZM131.638 689.013H129.858V693.744H131.638V689.013ZM131.638 601.718H129.858V606.448H131.638V601.718ZM75.8047 564.976H77.4648V558.405H75.8047V564.976ZM75.8047 595.287H77.4648V588.717H75.8047V595.287ZM75.8047 549.815H77.4648V543.244H75.8047V549.815ZM75.8047 580.127H77.4648V573.556H75.8047V580.127ZM77.4648 603.868H75.8047V610.428H77.4648V603.868ZM73.2646 514.052L77.5848 511.852L76.7548 510.242L72.4245 512.442L73.2646 514.052ZM53.3233 524.213L57.6536 522.013L56.8135 520.403L52.4833 522.603L53.3233 524.213ZM63.2939 519.143L67.6242 516.933L66.7941 515.322L62.4639 517.523L63.2939 519.143ZM83.2352 508.992L87.5654 506.782L86.7354 505.172L82.4051 507.382L83.2352 508.992ZM123.108 488.681L127.438 486.481L126.598 484.871L122.278 487.07L123.108 488.681ZM133.078 483.601L137.409 481.4L136.569 479.79L132.248 481.991L133.078 483.601ZM143.049 478.52L147.379 476.32L146.539 474.71L142.209 476.91L143.049 478.52ZM103.166 498.831L107.487 496.621L106.657 495.021L102.336 497.221L103.166 498.831ZM113.127 493.751L117.457 491.551L116.617 489.941L112.297 492.151L113.127 493.751Z" fill="#231F20"/>
<path d="M1922 814.501H0V817.891H1922V814.501Z" fill="#231F20"/>
<path d="M0 820.821V822.111H3.57022V820.821H0ZM11.8007 820.821H8.23051V822.111H11.8007V820.821ZM20.0313 820.821H16.461V822.102H20.0313V820.821ZM28.2618 820.821H24.6915V822.102H28.2618V820.821ZM36.5023 820.821H32.9221V822.111H36.5023V820.821ZM44.7328 820.821H41.1626V822.102H44.7328V820.821ZM52.9733 820.821H49.3931V822.102H52.9733V820.821ZM61.2038 820.821H57.6336V822.111H61.2038V820.821ZM69.4343 820.821H65.8641V822.102H69.4343V820.821ZM77.6649 820.821H74.0946V822.102H77.6649V820.821ZM85.9054 820.821H82.3251V822.102H85.9054V820.821ZM94.1359 820.821H90.5657V822.111H94.1359V820.821ZM102.366 820.821H98.7962V822.102H102.366V820.821ZM110.607 820.821H107.037V822.102H110.607V820.821ZM127.068 820.821H123.498V822.111H127.068V820.821ZM118.837 820.821H115.267V822.102H118.837V820.821ZM143.529 820.821H139.969V822.102H143.529V820.821ZM135.298 820.821H131.728V822.111H135.298V820.821ZM160 820.821H156.43V822.102H160V820.821ZM151.769 820.821H148.199V822.102H151.769V820.821ZM168.24 820.821H164.66V822.111H168.24V820.821ZM176.471 820.821H172.901V822.102H176.471V820.821ZM192.932 820.821H189.372V822.102H192.932V820.821ZM184.702 820.821H181.131V822.111H184.702V820.821ZM209.403 820.821H205.833V822.102H209.403V820.821ZM201.173 820.821H197.602V822.102H201.173V820.821ZM217.644 820.821H214.063V822.111H217.644V820.821ZM225.874 820.821H222.304V822.102H225.874V820.821ZM242.335 820.821H238.765V822.102H242.335V820.821ZM234.105 820.821H230.534V822.111H234.105V820.821ZM258.806 820.821H255.236V822.102H258.806V820.821ZM250.566 820.821H247.005V822.102H250.566V820.821ZM275.277 820.821H271.707V822.111H275.277V820.821ZM267.037 820.821H263.466V822.102H267.037V820.821ZM283.508 820.821H279.937V822.102H283.508V820.821ZM291.738 820.821H288.168V822.102H291.738V820.821ZM308.209 820.821H304.639V822.111H308.209V820.821ZM299.979 820.821H296.399V822.102H299.979V820.821ZM324.67 820.821H321.1V822.102H324.67V820.821ZM316.44 820.821H312.87V822.111H316.44V820.821ZM332.911 820.821H329.341V822.102H332.911V820.821ZM341.141 820.821H337.571V822.102H341.141V820.821ZM357.612 820.821H354.042V822.111H357.612V820.821ZM349.372 820.821H345.802V822.102H349.372V820.821ZM374.073 820.821H370.503V822.102H374.073V820.821ZM365.843 820.821H362.273V822.111H365.843V820.821ZM390.544 820.821H386.974V822.102H390.544V820.821ZM382.314 820.821H378.744V822.102H382.314V820.821ZM398.775 820.821H395.205V822.111H398.775V820.821ZM407.005 820.821H403.435V822.102H407.005V820.821ZM423.476 820.821H419.906V822.102H423.476V820.821ZM415.246 820.821H411.676V822.111H415.246V820.821ZM439.947 820.821H436.377V822.102H439.947V820.821ZM431.707 820.821H428.137V822.102H431.707V820.821ZM448.178 820.821H444.608V822.111H448.178V820.821ZM456.408 820.821H452.838V822.102H456.408V820.821ZM464.649 820.821H461.069V822.102H464.649V820.821ZM472.88 820.821H469.309V822.111H472.88V820.821ZM481.11 820.821H477.54V822.102H481.11V820.821ZM489.341 820.821H485.77V822.102H489.341V820.821ZM497.581 820.821H494.001V822.102H497.581V820.821ZM505.812 820.821H502.241V822.111H505.812V820.821ZM514.042 820.821H510.472V822.102H514.042V820.821ZM522.283 820.821H518.712V822.102H522.283V820.821ZM530.513 820.821H526.943V822.111H530.513V820.821ZM538.744 820.821H535.173V822.102H538.744V820.821ZM546.984 820.821H543.404V822.102H546.984V820.821ZM555.215 820.821H551.644V822.111H555.215V820.821ZM563.445 820.821H559.875V822.102H563.445V820.821ZM571.686 820.821H568.105V822.102H571.686V820.821ZM579.916 820.821H576.336V822.111H579.916V820.821ZM588.147 820.821H584.576V822.102H588.147V820.821ZM596.387 820.821H592.807V822.102H596.387V820.821ZM604.618 820.821H601.047V822.111H604.618V820.821ZM612.848 820.821H609.278V822.102H612.848V820.821ZM621.079 820.821H617.509V822.102H621.079V820.821ZM629.319 820.821H625.749V822.111H629.319V820.821ZM637.55 820.821H633.98V822.102H637.55V820.821ZM645.78 820.821H642.21V822.102H645.78V820.821ZM654.011 820.821H650.441V822.111H654.011V820.821ZM662.251 820.821H658.681V822.102H662.251V820.821ZM670.482 820.821H666.912V822.102H670.482V820.821ZM678.712 820.821H675.142V822.111H678.712V820.821ZM686.943 820.821H683.383V822.102H686.943V820.821ZM695.183 820.821H691.613V822.102H695.183V820.821ZM703.414 820.821H699.844V822.102H703.414V820.821ZM711.644 820.821H708.074V822.111H711.644V820.821ZM719.885 820.821H716.315V822.102H719.885V820.821ZM728.115 820.821H724.545V822.102H728.115V820.821ZM736.346 820.821H732.776V822.111H736.346V820.821ZM744.586 820.821H741.006V822.102H744.586V820.821ZM752.817 820.821H749.247V822.102H752.817V820.821ZM761.048 820.821H757.477V822.111H761.048V820.821ZM769.278 820.821H765.708V822.102H769.278V820.821ZM777.519 820.821H773.948V822.102H777.519V820.821ZM785.749 820.821H782.179V822.111H785.749V820.821ZM793.98 820.821H790.409V822.102H793.98V820.821ZM802.22 820.821H798.65V822.102H802.22V820.821ZM810.451 820.821H806.88V822.111H810.451V820.821ZM818.681 820.821H815.111V822.102H818.681V820.821ZM826.912 820.821H823.351V822.102H826.912V820.821ZM835.152 820.821H831.582V822.111H835.152V820.821ZM843.383 820.821H839.812V822.102H843.383V820.821ZM851.613 820.821H848.043V822.102H851.613V820.821ZM859.844 820.821H856.273V822.111H859.844V820.821ZM868.074 820.821H864.504V822.102H868.074V820.821ZM876.305 820.821H872.734V822.102H876.305V820.821ZM884.535 820.821H880.965V822.111H884.535V820.821ZM892.766 820.821H889.195V822.102H892.766V820.821ZM901.006 820.821H897.426V822.102H901.006V820.821ZM909.237 820.821H905.667V822.102H909.237V820.821ZM917.467 820.821H913.897V822.111H917.467V820.821ZM925.698 820.821H922.128V822.102H925.698V820.821ZM933.938 820.821H930.358V822.102H933.938V820.821ZM942.169 820.821H938.599V822.111H942.169V820.821ZM950.409 820.821H946.829V822.102H950.409V820.821ZM958.64 820.821H955.07V822.102H958.64V820.821ZM966.87 820.821H963.3V822.111H966.87V820.821ZM975.101 820.821H971.531V822.102H975.101V820.821ZM983.341 820.821H979.761V822.102H983.341V820.821ZM991.572 820.821H988.002V822.111H991.572V820.821ZM999.802 820.821H996.232V822.102H999.802V820.821ZM1008.03 820.821H1004.46V822.102H1008.03V820.821ZM1016.27 820.821H1012.7V822.111H1016.27V820.821ZM1024.5 820.821H1020.93V822.102H1024.5V820.821ZM1032.73 820.821H1029.16V822.102H1032.73V820.821ZM1337.38 820.821H1333.8V822.111H1337.38V820.821ZM1040.98 820.821H1037.4V822.102H1040.98V820.821ZM1353.84 820.821H1350.27V822.102H1353.84V820.821ZM1049.21 820.821H1045.64V822.111H1049.21V820.821ZM1370.32 820.821H1366.75V822.102H1370.32V820.821ZM1057.44 820.821H1053.87V822.102H1057.44V820.821ZM1386.78 820.821H1383.21V822.111H1386.78V820.821ZM1065.68 820.821H1062.1V822.102H1065.68V820.821ZM1403.25 820.821H1399.68V822.102H1403.25V820.821ZM1073.91 820.821H1070.34V822.102H1073.91V820.821ZM1419.72 820.821H1416.15V822.111H1419.72V820.821ZM1082.14 820.821H1078.57V822.102H1082.14V820.821ZM1436.18 820.821H1432.61V822.102H1436.18V820.821ZM1090.37 820.821H1086.8V822.111H1090.37V820.821ZM1452.65 820.821H1449.08V822.102H1452.65V820.821ZM1098.61 820.821H1095.04V822.102H1098.61V820.821ZM1469.11 820.821H1465.54V822.111H1469.11V820.821ZM1106.84 820.821H1103.27V822.102H1106.84V820.821ZM1485.58 820.821H1482.01V822.102H1485.58V820.821ZM1115.07 820.821H1111.5V822.111H1115.07V820.821ZM1502.05 820.821H1498.48V822.102H1502.05V820.821ZM1123.31 820.821H1119.73V822.102H1123.31V820.821ZM1518.52 820.821H1514.94V822.111H1518.52V820.821ZM1131.54 820.821H1127.97V822.102H1131.54V820.821ZM1534.99 820.821H1531.42V822.102H1534.99V820.821ZM1139.77 820.821H1136.2V822.111H1139.77V820.821ZM1551.45 820.821H1547.88V822.102H1551.45V820.821ZM1148.01 820.821H1144.44V822.102H1148.01V820.821ZM1567.92 820.821H1564.35V822.111H1567.92V820.821ZM1156.24 820.821H1152.67V822.102H1156.24V820.821ZM1584.39 820.821H1580.82V822.102H1584.39V820.821ZM1164.47 820.821H1160.9V822.111H1164.47V820.821ZM1600.85 820.821H1597.28V822.102H1600.85V820.821ZM1172.71 820.821H1169.13V822.102H1172.71V820.821ZM1617.32 820.821H1613.75V822.102H1617.32V820.821ZM1180.94 820.821H1177.37V822.111H1180.94V820.821ZM1633.78 820.821H1630.21V822.102H1633.78V820.821ZM1189.17 820.821H1185.6V822.102H1189.17V820.821ZM1650.25 820.821H1646.68V822.111H1650.25V820.821ZM1197.41 820.821H1193.83V822.102H1197.41V820.821ZM1666.72 820.821H1663.15V822.102H1666.72V820.821ZM1205.65 820.821H1202.08V822.111H1205.65V820.821ZM1683.19 820.821H1679.61V822.102H1683.19V820.821ZM1213.88 820.821H1210.31V822.102H1213.88V820.821ZM1699.66 820.821H1696.09V822.111H1699.66V820.821ZM1222.11 820.821H1218.54V822.102H1222.11V820.821ZM1707.89 820.821H1704.32V822.102H1707.89V820.821ZM1230.34 820.821H1226.77V822.111H1230.34V820.821ZM1716.13 820.821H1712.56V822.102H1716.13V820.821ZM1238.58 820.821H1235.01V822.102H1238.58V820.821ZM1724.36 820.821H1720.79V822.111H1724.36V820.821ZM1246.81 820.821H1243.24V822.102H1246.81V820.821ZM1732.59 820.821H1729.02V822.102H1732.59V820.821ZM1255.05 820.821H1251.47V822.111H1255.05V820.821ZM1740.83 820.821H1737.25V822.102H1740.83V820.821ZM1263.28 820.821H1259.71V822.102H1263.28V820.821ZM1749.06 820.821H1745.49V822.111H1749.06V820.821ZM1271.51 820.821H1267.94V822.102H1271.51V820.821ZM1757.29 820.821H1753.72V822.102H1757.29V820.821ZM1279.74 820.821H1276.18V822.102H1279.74V820.821ZM1765.53 820.821H1761.95V822.111H1765.53V820.821ZM1287.98 820.821H1284.41V822.102H1287.98V820.821ZM1773.76 820.821H1770.19V822.102H1773.76V820.821ZM1296.21 820.821H1292.64V822.111H1296.21V820.821ZM1781.99 820.821H1778.42V822.102H1781.99V820.821ZM1304.44 820.821H1300.87V822.102H1304.44V820.821ZM1790.22 820.821H1786.65V822.111H1790.22V820.821ZM1312.68 820.821H1309.11V822.102H1312.68V820.821ZM1798.46 820.821H1794.89V822.102H1798.46V820.821ZM1320.91 820.821H1317.34V822.111H1320.91V820.821ZM1806.69 820.821H1803.12V822.102H1806.69V820.821ZM1329.14 820.821H1325.57V822.102H1329.14V820.821ZM1814.92 820.821H1811.35V822.111H1814.92V820.821ZM1345.61 820.821H1342.04V822.102H1345.61V820.821ZM1823.16 820.821H1819.59V822.102H1823.16V820.821ZM1362.09 820.821H1358.51V822.111H1362.09V820.821ZM1831.39 820.821H1827.82V822.102H1831.39V820.821ZM1378.55 820.821H1374.98V822.102H1378.55V820.821ZM1839.62 820.821H1836.05V822.111H1839.62V820.821ZM1395.02 820.821H1391.45V822.102H1395.02V820.821ZM1847.87 820.821H1844.3V822.102H1847.87V820.821ZM1411.48 820.821H1407.91V822.111H1411.48V820.821ZM1856.1 820.821H1852.53V822.102H1856.1V820.821ZM1427.95 820.821H1424.38V822.102H1427.95V820.821ZM1864.33 820.821H1860.76V822.102H1864.33V820.821ZM1444.41 820.821H1440.85V822.111H1444.41V820.821ZM1872.56 820.821H1868.99V822.102H1872.56V820.821ZM1460.88 820.821H1457.31V822.102H1460.88V820.821ZM1880.8 820.821H1877.23V822.111H1880.8V820.821ZM1477.35 820.821H1473.78V822.102H1477.35V820.821ZM1889.03 820.821H1885.46V822.102H1889.03V820.821ZM1493.81 820.821H1490.24V822.111H1493.81V820.821ZM1897.26 820.821H1893.69V822.102H1897.26V820.821ZM1510.28 820.821H1506.71V822.102H1510.28V820.821ZM1905.5 820.821H1901.93V822.111H1905.5V820.821ZM1526.76 820.821H1523.19V822.102H1526.76V820.821ZM1913.73 820.821H1910.16V822.102H1913.73V820.821ZM1543.22 820.821H1539.65V822.111H1543.22V820.821ZM1918.87 820.821H1918.39V822.102H1918.87V820.821ZM1559.69 820.821H1556.12V822.102H1559.69V820.821ZM1576.15 820.821H1572.58V822.111H1576.15V820.821ZM1592.62 820.821H1589.05V822.102H1592.62V820.821ZM1609.09 820.821H1605.52V822.102H1609.09V820.821ZM1625.55 820.821H1621.98V822.111H1625.55V820.821ZM1642.02 820.821H1638.45V822.102H1642.02V820.821ZM1658.49 820.821H1654.91V822.102H1658.49V820.821ZM1674.95 820.821H1671.38V822.111H1674.95V820.821ZM1691.43 820.821H1687.86V822.102H1691.43V820.821Z" fill="#231F20"/>
<path d="M822.151 816.461V640.32L823.281 646.361V816.461H822.151Z" fill="#231F20"/>
<path d="M888.075 725.355V816.461H887.175V725.355H888.075Z" fill="#231F20"/>
<path d="M907.207 743.086H823.021V741.956H907.207V743.086Z" fill="#231F20"/>
<path d="M988.792 753.307L978.371 742.887L988.792 732.476H995.272L984.851 742.887L995.272 753.307H988.792ZM970.251 753.307L959.83 742.887L970.251 732.476H976.741L966.32 742.887L976.741 753.307H970.251ZM951.709 753.307L941.299 742.887L951.709 732.476H958.19L947.779 742.887L958.19 753.307H951.709ZM933.178 753.307L922.758 742.887L933.178 732.476H939.659L929.248 742.887L939.659 753.307H933.178Z" fill="#231F20"/>
</svg>
