<svg width="508" height="442" viewBox="0 0 508 442" fill="none" xmlns="http://www.w3.org/2000/svg">
<path d="M167.687 392.958C180.498 397.818 194.559 402.758 208.159 402.538C222.04 402.318 233.98 401.788 247.831 405.348C274.402 412.189 298.933 425.519 325.994 430.659C377.747 440.5 427.989 431.44 466.091 392.738C487.742 370.737 502.102 341.756 506.832 311.264C511.343 282.163 499.132 250.541 480.931 227.87C468.531 212.42 452.25 199.479 444.59 181.208C438.819 167.478 438.579 152.167 436.699 137.387C431.749 98.4148 414.158 60.5231 384.917 34.2919C355.676 8.06076 314.444 -5.42982 275.872 2.05051C249.451 7.17073 225.46 21.4314 198.999 26.3616C171.268 31.5318 142.576 26.1416 114.545 29.3017C43.7319 31.6618 -2.04011 97.0847 0.0699878 160.607C0.710016 179.988 2.67011 196.369 11.8705 213.22C21.0909 230.111 28.2012 248.241 37.2616 265.262C55.1624 298.904 76.6234 331.315 105.765 356.306C124.065 371.997 145.156 384.397 167.687 392.958Z" fill="#A98C6B"/>
<path d="M85.5338 267.522C121.455 353.716 220.46 394.478 306.654 358.546C392.857 322.624 433.609 223.62 397.688 137.426C361.756 51.2324 262.762 10.4707 176.568 46.4022C90.364 82.3238 49.6122 181.318 85.5338 267.522Z" fill="#DEE6F4"/>
<path d="M96.1743 263.082C132.106 349.286 231.1 390.037 317.294 354.116C403.498 318.184 444.25 219.19 408.328 132.996C372.406 46.7923 273.402 6.04056 187.208 41.9621C101.004 77.8837 60.2527 176.888 96.1743 263.082Z" fill="#FEFEFE"/>
<path d="M482.561 180.278L429.509 141.016C429.509 141.016 415.508 160.627 402.858 184.468C390.217 208.309 385.607 215.29 385.607 215.29L437.399 251.281C437.399 251.281 438.449 239.201 454.7 215.61C470.951 192.029 482.561 180.278 482.561 180.278Z" fill="#6F98CF"/>
<path d="M464.981 185.018L467.101 182.238L431.729 155.167L429.599 157.937L464.981 185.018Z" fill="#FEFEFE"/>
<path d="M460.25 189.749L462.38 186.969L426.999 159.887L424.879 162.668L460.25 189.749Z" fill="#FEFEFE"/>
<path d="M449.9 199.519L452.05 196.759L421.119 172.648L418.969 175.408L449.9 199.519Z" fill="#FEFEFE"/>
<path d="M449.65 207.229L451.73 204.429L416.648 178.398L414.558 181.208L449.65 207.229Z" fill="#FEFEFE"/>
<path d="M446.71 212.25L448.75 209.419L414.018 184.458L411.978 187.298L446.71 212.25Z" fill="#FEFEFE"/>
<path d="M444.36 217.77L446.38 214.92L411.158 189.889L409.128 192.729L444.36 217.77Z" fill="#FEFEFE"/>
<path d="M433.419 220.9L435.449 218.05L410.238 200.139L408.208 202.989L433.419 220.9Z" fill="#FEFEFE"/>
<path d="M436.839 231.18L438.799 228.29L403.718 204.479L401.748 207.369L436.839 231.18Z" fill="#FEFEFE"/>
<path d="M444.73 186.669L446.86 183.888L435.489 175.158L433.359 177.928L444.73 186.669Z" fill="#FEFEFE"/>
<path d="M439.969 318.464V190.789H356.376V318.464H439.969Z" fill="#FEFEFE"/>
<path fill-rule="evenodd" clip-rule="evenodd" d="M442.77 187.989V321.255H353.576V187.989H442.77ZM359.176 315.664H437.179V193.579H359.176V315.664Z" fill="#92C7E7"/>
<path fill-rule="evenodd" clip-rule="evenodd" d="M352.726 321.255V187.989C352.726 187.519 353.106 187.139 353.576 187.139H442.77C443.24 187.139 443.62 187.519 443.62 187.989V321.255C443.62 321.725 443.24 322.105 442.77 322.105H353.576C353.106 322.105 352.726 321.725 352.726 321.255ZM441.919 188.839H354.426V320.405H441.919V188.839Z" fill="#2C2839"/>
<path d="M405.278 278.552V308.014H413.768V278.552H405.278Z" fill="#6F98CF"/>
<path d="M421.059 251.481V308.014H429.549V251.481H421.059Z" fill="#6F98CF"/>
<path d="M389.907 280.943V308.014H398.408V280.943H389.907Z" fill="#6F98CF"/>
<path d="M398.168 237.951V220.36C407.888 220.36 415.758 228.241 415.758 237.951C415.758 247.662 407.888 255.532 398.168 255.532C388.457 255.532 380.587 247.662 380.587 237.951C380.587 235.831 380.967 233.791 381.657 231.911L398.168 237.951Z" fill="#92C7E7"/>
<path d="M381.657 231.911C384.117 225.171 390.587 220.36 398.168 220.36V237.951L381.657 231.911Z" fill="#6F98CF"/>
<path d="M373.767 201.039H430.609V197.199H373.767V201.039Z" fill="#6F98CF"/>
<path d="M396.808 209.35H430.609V205.51H396.808V209.35Z" fill="#6F98CF"/>
<path d="M337.185 203.739H226.47C221.3 203.739 217.1 199.549 217.1 194.379V31.0318C217.1 25.8616 221.3 21.6714 226.47 21.6714H337.185C342.355 21.6714 346.545 25.8616 346.545 31.0318V194.379C346.545 199.549 342.355 203.739 337.185 203.739Z" fill="#92C7E7" stroke="#2C2839" stroke-width="0.4" stroke-linecap="round" stroke-linejoin="round"/>
<path d="M222.28 194.549V30.8617C222.28 28.6416 224.08 26.8415 226.29 26.8415H337.355C339.575 26.8415 341.375 28.6416 341.375 30.8617V194.549C341.375 196.769 339.575 198.569 337.355 198.569H226.29C224.08 198.569 222.28 196.769 222.28 194.549Z" fill="#FEFEFE"/>
<path d="M307.534 68.6632V159.227H320.044V68.6632H307.534Z" fill="#CBDBE5"/>
<path d="M284.883 94.9046V159.227H297.393V94.9046H284.883Z" fill="#CBDBE5"/>
<path d="M262.222 124.436V159.227H274.742V124.436H262.222Z" fill="#CBDBE5"/>
<path d="M320.044 49.5726H234.33V45.9425H320.044V49.5726Z" fill="#6F98CF"/>
<path d="M291.143 58.3831H234.33V54.7529H291.143V58.3831Z" fill="#6F98CF"/>
<path d="M291.143 68.6633H262.222V65.0331H291.143V68.6633Z" fill="#6F98CF"/>
<path d="M452.87 409.909L383.217 344.706H81.5735L13.6405 410.029C13.4805 410.189 13.3072 410.365 13.1205 410.559C12.0905 411.629 11.4505 413.679 11.4505 415.909V429.489C11.4505 438.04 15.0906 441.8 19.5908 441.8H447.04C451.53 441.8 455.18 438.04 455.18 429.489V415.039C455.18 413.179 454.61 411.489 453.73 410.699C453.423 410.419 453.137 410.155 452.87 409.909Z" fill="#2C2839" stroke="#2C2839" stroke-width="0.4" stroke-linecap="round" stroke-linejoin="round"/>
<path d="M383.217 344.706H81.5736V137.346C81.5736 135.706 82.8936 134.386 84.5337 134.386H380.267C381.897 134.386 383.217 135.706 383.217 137.346V344.706Z" fill="#2C2839" stroke="#2C2839" stroke-width="0.4" stroke-linecap="round" stroke-linejoin="round"/>
<path d="M379.677 345.256H78.0334V140.577C78.0334 138.947 79.3535 137.616 80.9935 137.616H376.727C378.357 137.616 379.677 138.947 379.677 140.577V345.256Z" fill="#FEFEFE" stroke="#2C2839" stroke-width="0.4" stroke-linecap="round" stroke-linejoin="round"/>
<path d="M89.8239 333.465V149.417H367.886V333.465H89.8239Z" fill="#CBDBE5" stroke="#2C2839" stroke-width="0.4" stroke-linecap="round" stroke-linejoin="round"/>
<path d="M447.51 424.789H15.5807C11.2905 424.789 9.8504 413.869 13.6406 410.029L78.0334 344.706H379.677L449.33 409.909C453.25 413.579 451.87 424.789 447.51 424.789Z" fill="#FEFEFE"/>
<path d="M36.2416 405.228L83.3637 357.436H374.657L425.589 405.118C428.239 407.598 426.479 412.059 422.849 412.059H39.1017C35.5415 412.059 33.7415 407.768 36.2416 405.228Z" fill="#BBBDBF"/>
<path d="M330.765 158.657C330.765 160.947 328.915 162.797 326.624 162.797C324.334 162.797 322.484 160.947 322.484 158.657C322.484 156.377 324.334 154.517 326.624 154.517C328.915 154.517 330.765 156.377 330.765 158.657Z" fill="#FEFEFE"/>
<path d="M344.205 158.657C344.205 160.947 342.345 162.797 340.065 162.797C337.775 162.797 335.925 160.947 335.925 158.657C335.925 156.377 337.775 154.517 340.065 154.517C342.345 154.517 344.205 156.377 344.205 158.657Z" fill="#FEFEFE"/>
<path d="M357.636 158.657C357.636 160.947 355.786 162.797 353.506 162.797C351.216 162.797 349.365 160.947 349.365 158.657C349.365 156.377 351.216 154.517 353.506 154.517C355.786 154.517 357.636 156.377 357.636 158.657Z" fill="#FEFEFE"/>
<path d="M361.496 322.525H97.9343V165.808H361.496V322.525Z" fill="#FEFEFE"/>
<path d="M105.835 425.659H15.5807C13.9106 425.659 12.4905 424.459 11.5705 422.269C9.99043 418.489 10.1904 412.279 13.0206 409.409L77.4134 344.086C77.5868 343.919 77.7934 343.832 78.0334 343.826H381.537C382.017 343.826 382.407 344.226 382.407 344.706C382.407 345.186 382.017 345.576 381.537 345.576H78.4035L14.2706 410.639C11.9905 412.949 11.8205 418.329 13.1806 421.589C13.5506 422.459 14.3406 423.909 15.5807 423.909H105.835C106.315 423.909 106.705 424.299 106.705 424.789C106.705 425.269 106.315 425.659 105.835 425.659Z" fill="#2C2839"/>
<path d="M78.0334 332.185C77.5534 332.185 77.1534 331.795 77.1534 331.305V156.457C77.1534 155.977 77.5534 155.587 78.0334 155.587C78.5134 155.587 78.9135 155.977 78.9135 156.457V331.305C78.9135 331.795 78.5134 332.185 78.0334 332.185Z" fill="#2C2839"/>
<path d="M163.837 159.517L215.339 116.855L267.102 159.517V236.971H163.837V159.517Z" fill="#6F98CF" stroke="#2C2839" stroke-width="0.4" stroke-linecap="round" stroke-linejoin="round"/>
<path d="M134.486 103.575C134.486 103.575 118.755 103.575 118.695 103.575C115.695 103.575 112.485 108.605 111.325 113.125C108.155 125.526 101.054 127.356 101.054 127.356L134.726 122.436C134.726 122.436 134.486 110.815 134.486 103.575Z" fill="#34509C" stroke="#2C2839" stroke-width="0.4" stroke-linecap="round" stroke-linejoin="round"/>
<path d="M156.947 124.836C156.947 124.836 145.866 124.836 133.606 124.836C121.355 124.836 127.056 105.305 118.955 103.345H160.237L156.947 124.836Z" fill="#92C7E7" stroke="#2C2839" stroke-width="0.4" stroke-linecap="round" stroke-linejoin="round"/>
<path d="M186.498 88.2744C186.498 88.2744 159.887 88.2744 159.787 88.2744C154.727 88.2744 150.777 96.6547 150.777 104.545C150.777 124.896 133.606 124.836 133.606 124.836H186.868C186.868 124.836 186.498 100.535 186.498 88.2744Z" fill="#34509C" stroke="#2C2839" stroke-width="0.4" stroke-linecap="round" stroke-linejoin="round"/>
<path d="M166.227 88.0742H246.511C253.531 88.0742 255.381 99.7347 255.381 107.755C255.381 107.755 255.381 221.8 255.381 228.31H175.108V107.755C175.108 99.7347 172.938 88.0742 166.227 88.0742Z" fill="#92C7E7" stroke="#2C2839" stroke-width="0.4" stroke-linecap="round" stroke-linejoin="round"/>
<path d="M250.361 223.3V107.755C250.361 98.2644 247.811 93.0842 246.511 93.0842H177.858C177.878 93.1375 177.895 93.1908 177.908 93.2442C179.908 98.8944 180.118 105.275 180.118 107.755V223.3H250.361Z" fill="#FEFEFE"/>
<path d="M186.868 134.806C186.868 136.546 188.288 137.956 190.028 137.956C191.768 137.956 193.179 136.546 193.179 134.806C193.179 133.056 191.768 131.646 190.028 131.646C188.288 131.646 186.868 133.056 186.868 134.806Z" fill="#34509C"/>
<path d="M186.868 145.627C186.868 147.377 188.288 148.787 190.028 148.787C191.768 148.787 193.179 147.377 193.179 145.627C193.179 143.887 191.768 142.477 190.028 142.477C188.288 142.477 186.868 143.887 186.868 145.627Z" fill="#34509C"/>
<path d="M243.921 106.305H187.498V103.845H243.921V106.305Z" fill="#6F98CF"/>
<path d="M243.921 112.195H194.389V109.735H243.921V112.195Z" fill="#6F98CF"/>
<path d="M243.921 118.085H187.498V115.625H243.921V118.085Z" fill="#6F98CF"/>
<path d="M243.921 123.976H187.498V121.516H243.921V123.976Z" fill="#6F98CF"/>
<path d="M243.921 160.387H198.059V157.937H243.921V160.387Z" fill="#6F98CF"/>
<path d="M243.921 166.278H198.059V163.828H243.921V166.278Z" fill="#6F98CF"/>
<path d="M238.371 172.178H187.498V169.717H238.371V172.178Z" fill="#6F98CF"/>
<path d="M243.921 178.068H187.498V175.608H243.921V178.068Z" fill="#6F98CF"/>
<path d="M243.921 133.236H198.059V130.776H243.921V133.236Z" fill="#6F98CF"/>
<path d="M243.921 139.127H203.659V136.667H243.921V139.127Z" fill="#6F98CF"/>
<path d="M243.921 145.017H198.059V142.567H243.921V145.017Z" fill="#6F98CF"/>
<path d="M243.921 150.907H198.059V148.457H243.921V150.907Z" fill="#6F98CF"/>
<path d="M163.837 159.517V236.971L215.589 196.609L163.837 159.517Z" fill="#92C7E7" stroke="#2C2839" stroke-width="0.4" stroke-linecap="round" stroke-linejoin="round"/>
<path d="M163.837 236.971H267.102L215.339 196.609L163.837 236.971Z" fill="#CBDBE5" stroke="#2C2839" stroke-width="0.4" stroke-linecap="round" stroke-linejoin="round"/>
<path d="M267.102 159.517V236.971L215.339 196.609L267.102 159.517Z" fill="#92C7E7" stroke="#2C2839" stroke-width="0.4" stroke-linecap="round" stroke-linejoin="round"/>
<path d="M165.077 161.988V170.588L213.139 196.149L165.077 161.988Z" fill="#FEFEFE"/>
<path d="M265.752 162.008V170.608L217.69 196.169L265.752 162.008Z" fill="#FEFEFE"/>
<path d="M215.34 197.519L167.607 234.941L215.34 203.519L263.272 234.941L215.34 197.519Z" fill="#6F98CF"/>
<path d="M335.795 319.805H128.636C117.105 319.805 107.765 310.454 107.765 298.934V238.921C107.765 227.401 117.105 218.05 128.636 218.05H335.795C347.315 218.05 356.666 227.401 356.666 238.921V298.934C356.666 310.454 347.315 319.805 335.795 319.805Z" fill="#6F98CF"/>
<path d="M113.395 305.054V232.801C113.395 227.771 117.475 223.691 122.515 223.691H341.915C346.945 223.691 351.026 227.771 351.026 232.801V305.054C351.026 310.084 346.945 314.165 341.915 314.165H122.505C117.475 314.165 113.395 310.084 113.395 305.054Z" fill="#FEFEFE" stroke="#2C2839" stroke-width="0.4" stroke-linecap="round" stroke-linejoin="round"/>
<path d="M118.185 278.723C117.805 278.723 117.495 278.413 117.495 278.033V275.193C117.495 274.803 117.805 274.493 118.185 274.493C118.565 274.493 118.875 274.803 118.875 275.193V278.033C118.875 278.413 118.565 278.723 118.185 278.723Z" fill="#2C2839"/>
<path d="M118.185 269.892C117.805 269.892 117.495 269.582 117.495 269.202V263.222C117.495 262.832 117.805 262.532 118.185 262.532C118.565 262.532 118.875 262.832 118.875 263.222V269.202C118.875 269.582 118.565 269.892 118.185 269.892ZM118.185 257.922C117.805 257.922 117.495 257.622 117.495 257.232V251.252C117.495 250.872 117.805 250.562 118.185 250.562C118.565 250.562 118.875 250.872 118.875 251.252V257.232C118.875 257.622 118.565 257.922 118.185 257.922ZM118.185 245.961C117.805 245.961 117.495 245.651 117.495 245.261V239.281C117.495 238.901 117.805 238.591 118.185 238.591C118.565 238.591 118.875 238.901 118.875 239.281V245.261C118.875 245.651 118.565 245.961 118.185 245.961Z" fill="#2C2839"/>
<path d="M118.185 233.991C117.805 233.991 117.495 233.681 117.495 233.301V230.451C117.495 230.071 117.805 229.761 118.185 229.761C118.565 229.761 118.875 230.071 118.875 230.451V233.301C118.875 233.681 118.565 233.991 118.185 233.991Z" fill="#2C2839"/>
<path d="M130.026 308.904H126.626C121.595 308.904 117.495 304.814 117.495 299.774V283.403C117.495 283.023 117.805 282.713 118.185 282.713C118.565 282.713 118.875 283.023 118.875 283.403V299.774C118.875 304.044 122.355 307.524 126.626 307.524H130.026C130.406 307.524 130.716 307.834 130.716 308.214C130.716 308.594 130.406 308.904 130.026 308.904Z" fill="#2C2839"/>
<path d="M191.448 308.904H141.856C141.476 308.904 141.166 308.594 141.166 308.214C141.166 307.834 141.476 307.524 141.856 307.524H191.448C191.829 307.524 192.139 307.834 192.139 308.214C192.139 308.594 191.829 308.904 191.448 308.904Z" fill="#2C2839"/>
<path d="M198.059 302.254H133.246C128.206 302.254 124.115 298.164 124.115 293.124V290.843C124.115 290.463 124.425 290.153 124.806 290.153C125.186 290.153 125.496 290.463 125.496 290.843V293.124C125.496 297.394 128.976 300.874 133.246 300.874H198.059C198.439 300.874 198.749 301.184 198.749 301.564C198.749 301.954 198.439 302.254 198.059 302.254Z" fill="#2C2839"/>
<path d="M294.263 298.514C294.263 300.144 292.943 301.464 291.323 301.464C289.693 301.464 288.373 300.144 288.373 298.514C288.373 296.884 289.693 295.564 291.323 295.564C292.943 295.564 294.263 296.884 294.263 298.514Z" fill="#FEFEFE" stroke="#2C2839" stroke-width="0.4" stroke-linecap="round" stroke-linejoin="round"/>
<path d="M336.975 299.204H298.443C298.063 299.204 297.753 298.894 297.753 298.514C297.753 298.134 298.063 297.824 298.443 297.824H336.975C337.355 297.824 337.665 298.134 337.665 298.514C337.665 298.894 337.355 299.204 336.975 299.204Z" fill="#2C2839"/>
<path d="M283.863 246.852C280.462 246.852 277.682 244.082 277.682 240.671V196.989C277.682 192.079 281.682 188.079 286.603 188.079H289.603C294.863 188.079 299.133 192.349 299.133 197.61V222.971H295.733V197.61C295.733 194.229 292.983 191.479 289.603 191.479H287.213C283.843 191.479 281.092 194.229 281.092 197.61V240.671C281.092 242.201 282.332 243.452 283.863 243.452H286.473C288.213 243.452 289.623 242.031 289.623 240.301V201.41C289.623 200.74 289.073 200.19 288.393 200.19C288.333 200.19 288.273 200.193 288.213 200.2C287.623 200.29 287.173 200.83 287.173 201.45V232.131C287.173 233.071 286.413 233.831 285.473 233.831C285.433 233.831 285.393 233.831 285.353 233.831C284.463 233.771 283.763 232.991 283.763 232.051V201.41C283.763 198.86 285.843 196.78 288.393 196.78C288.453 196.78 288.509 196.783 288.563 196.79C291.023 196.87 293.023 199.01 293.023 201.55V240.301C293.023 243.912 290.083 246.852 286.473 246.852H283.863Z" fill="#DEE6F4"/>
<path fill-rule="evenodd" clip-rule="evenodd" d="M299.833 197.609V223.661H295.033V197.609C295.033 194.609 292.603 192.169 289.603 192.169H287.213C284.213 192.169 281.782 194.609 281.782 197.609V240.671C281.782 241.821 282.712 242.761 283.863 242.761H286.473C287.833 242.761 288.933 241.661 288.933 240.301V201.41C288.933 201.12 288.693 200.879 288.393 200.879C288.366 200.879 288.339 200.883 288.313 200.889C288.053 200.929 287.863 201.18 287.863 201.45V232.131C287.863 233.451 286.793 234.521 285.473 234.521C285.419 234.521 285.366 234.521 285.313 234.521C284.043 234.441 283.073 233.331 283.073 232.051V201.41C283.073 198.479 285.463 196.089 288.393 196.089C288.459 196.089 288.526 196.089 288.593 196.089C291.483 196.199 293.713 198.669 293.713 201.549V240.301C293.713 244.301 290.473 247.542 286.473 247.542H283.863C280.072 247.542 276.992 244.471 276.992 240.671V196.989C276.992 191.689 281.292 187.379 286.603 187.379H289.603C295.253 187.379 299.833 191.959 299.833 197.609ZM286.603 188.769C282.062 188.769 278.372 192.459 278.372 196.989V240.671C278.372 243.701 280.842 246.162 283.863 246.162H286.473C289.703 246.162 292.333 243.531 292.333 240.301V201.549C292.333 199.379 290.633 197.549 288.543 197.479C288.496 197.479 288.446 197.479 288.393 197.479C287.343 197.479 286.363 197.879 285.613 198.629C284.873 199.379 284.463 200.359 284.463 201.41V232.051C284.463 232.621 284.883 233.111 285.403 233.141C285.423 233.141 285.446 233.141 285.473 233.141C286.023 233.141 286.483 232.691 286.483 232.131V201.45C286.483 200.489 287.183 199.659 288.113 199.519C288.206 199.506 288.299 199.499 288.393 199.499C289.453 199.499 290.313 200.359 290.313 201.41V240.301C290.313 242.421 288.593 244.141 286.473 244.141H283.863C281.952 244.141 280.402 242.581 280.402 240.671V197.609C280.402 193.849 283.453 190.789 287.213 190.789H289.603C293.363 190.789 296.423 193.849 296.423 197.609V222.27H298.443V197.609C298.443 192.729 294.483 188.769 289.603 188.769H286.603Z" fill="#2C2839"/>
<path d="M353.376 114.716H320.204C311.464 114.716 304.383 107.636 304.383 98.8951V95.085C304.383 86.3446 311.464 79.2642 320.204 79.2642H353.376C362.116 79.2642 369.196 86.3446 369.196 95.085V98.8951C369.196 107.636 362.116 114.716 353.376 114.716Z" fill="#34509C"/>
<path d="M304.383 100.265V86.9645C304.383 81.9343 308.464 77.854 313.494 77.854H357.146C362.186 77.854 366.266 81.9343 366.266 86.9645V100.265C366.266 105.295 362.186 109.375 357.146 109.375H313.494C308.464 109.375 304.383 105.295 304.383 100.265Z" fill="#FEFEFE" stroke="#2C2839" stroke-width="0.4" stroke-linecap="round" stroke-linejoin="round"/>
<path d="M314.454 86.5946H319.204L322.264 92.9649H322.384L325.444 86.5946H330.195L324.434 97.3451V102.275H320.214V97.3451L314.454 86.5946Z" fill="#6F98CF" stroke="#6F98CF" stroke-width="0.4" stroke-miterlimit="10"/>
<path d="M332.005 102.275V86.5946H343.305V90.0248H336.265V92.7149H342.725V96.1451H336.265V98.8452H343.275V102.275H332.005Z" fill="#6F98CF" stroke="#6F98CF" stroke-width="0.4" stroke-miterlimit="10"/>
<path d="M354.306 91.4946C354.266 90.9813 354.076 90.5813 353.736 90.2946C353.396 90.0146 352.879 89.8746 352.186 89.8746C351.746 89.8746 351.389 89.9246 351.115 90.0246C350.835 90.1313 350.629 90.2746 350.495 90.4546C350.362 90.6346 350.292 90.838 350.285 91.0646C350.279 91.2513 350.315 91.4213 350.395 91.5747C350.475 91.7213 350.602 91.8547 350.776 91.9747C350.949 92.0947 351.169 92.2047 351.436 92.3047C351.709 92.398 352.032 92.4847 352.406 92.5647L353.686 92.8447C354.559 93.0247 355.302 93.2647 355.916 93.5647C356.536 93.8648 357.042 94.2181 357.436 94.6248C357.829 95.0315 358.119 95.4882 358.306 95.9948C358.492 96.5015 358.586 97.0516 358.586 97.6449C358.586 98.6783 358.329 99.5517 357.816 100.265C357.309 100.978 356.579 101.522 355.626 101.895C354.686 102.268 353.549 102.455 352.216 102.455C350.856 102.455 349.669 102.255 348.655 101.855C347.642 101.448 346.855 100.825 346.295 99.985C345.735 99.145 345.455 98.0716 345.455 96.7649H349.495C349.522 97.2449 349.642 97.6483 349.855 97.975C350.069 98.3017 350.372 98.5483 350.765 98.715C351.152 98.8817 351.616 98.965 352.156 98.965C352.616 98.965 352.999 98.9083 353.306 98.795C353.606 98.6883 353.836 98.5316 353.996 98.325C354.156 98.1316 354.239 97.905 354.246 97.6449C354.239 97.4049 354.159 97.1949 354.006 97.0149C353.859 96.8349 353.612 96.6716 353.266 96.5249C352.926 96.3782 352.466 96.2415 351.886 96.1148L350.325 95.7849C348.932 95.4849 347.835 94.9782 347.035 94.2648C346.242 93.5581 345.845 92.5947 345.845 91.3746C345.845 90.3746 346.112 89.5012 346.645 88.7545C347.185 88.0078 347.935 87.4245 348.895 87.0045C349.849 86.5844 350.945 86.3744 352.186 86.3744C353.452 86.3811 354.549 86.5944 355.476 87.0145C356.402 87.4345 357.116 88.0312 357.616 88.8045C358.116 89.5712 358.369 90.4679 358.376 91.4946H354.306Z" fill="#6F98CF" stroke="#6F98CF" stroke-width="0.4" stroke-miterlimit="10"/>
<path d="M313.184 85.0038H317.934L320.994 91.374H321.124L324.184 85.0038H328.935L323.174 95.7542V100.684H318.944V95.7542L313.184 85.0038Z" fill="#FEFEFE" stroke="#FEFEFE" stroke-width="0.4" stroke-linecap="round" stroke-linejoin="round"/>
<path d="M330.745 100.684V85.0038H342.045V88.4339H334.995V91.124H341.465V94.5642H334.995V97.2543H342.015V100.684H330.745Z" fill="#FEFEFE" stroke="#FEFEFE" stroke-width="0.4" stroke-linecap="round" stroke-linejoin="round"/>
<path d="M353.036 89.9042C352.996 89.3909 352.806 88.9942 352.466 88.7142C352.126 88.4275 351.612 88.2842 350.925 88.2842C350.485 88.2842 350.125 88.3341 349.845 88.4341C349.572 88.5408 349.369 88.6841 349.235 88.8642C349.102 89.0442 349.032 89.2476 349.025 89.4742C349.019 89.6609 349.055 89.8309 349.135 89.9842C349.209 90.1375 349.332 90.2742 349.505 90.3943C349.679 90.5076 349.902 90.6143 350.175 90.7143C350.449 90.8143 350.769 90.901 351.136 90.9743L352.426 91.2543C353.292 91.4343 354.036 91.6743 354.656 91.9743C355.276 92.281 355.779 92.6344 356.166 93.0344C356.566 93.4411 356.859 93.8978 357.046 94.4044C357.226 94.9111 357.319 95.4645 357.326 96.0645C357.319 97.0912 357.062 97.9646 356.556 98.6846C356.042 99.3913 355.312 99.9313 354.366 100.305C353.419 100.678 352.282 100.865 350.956 100.865C349.595 100.865 348.409 100.665 347.395 100.265C346.382 99.858 345.595 99.2346 345.035 98.3946C344.475 97.5612 344.192 96.4878 344.185 95.1744H348.235C348.255 95.6545 348.375 96.0578 348.595 96.3845C348.809 96.7112 349.109 96.9579 349.495 97.1245C349.889 97.2912 350.355 97.3745 350.896 97.3745C351.349 97.3745 351.729 97.3179 352.036 97.2046C352.342 97.0979 352.576 96.9445 352.736 96.7445C352.896 96.5445 352.976 96.3178 352.976 96.0645C352.976 95.8245 352.899 95.6111 352.746 95.4244C352.592 95.2444 352.346 95.0811 352.006 94.9344C351.666 94.7878 351.206 94.6511 350.625 94.5244L349.055 94.1944C347.669 93.8944 346.575 93.391 345.775 92.6843C344.975 91.971 344.579 91.0043 344.585 89.7842C344.579 88.7842 344.845 87.9108 345.385 87.1641C345.925 86.4174 346.672 85.834 347.625 85.414C348.585 84.994 349.685 84.784 350.925 84.784C352.192 84.784 353.289 84.9973 354.216 85.424C355.136 85.8507 355.849 86.4474 356.356 87.2141C356.856 87.9808 357.109 88.8775 357.116 89.9042H353.036Z" fill="#FEFEFE" stroke="#FEFEFE" stroke-width="0.4" stroke-linecap="round" stroke-linejoin="round"/>
<path d="M312.054 84.9842H316.804L319.864 91.3545H319.984L323.054 84.9842H327.794L322.044 95.7347V100.675H317.814V95.7347L312.054 84.9842Z" fill="#2C2839"/>
<path d="M329.605 100.675V84.9842H340.905V88.4144H333.865V91.1145H340.325V94.5446H333.865V97.2348H340.875V100.675H329.605Z" fill="#2C2839"/>
<path d="M351.906 89.8845C351.866 89.3778 351.676 88.9811 351.336 88.6944C350.996 88.4077 350.482 88.2644 349.795 88.2644C349.355 88.2644 348.995 88.3177 348.715 88.4244C348.435 88.5244 348.229 88.6644 348.095 88.8444C347.969 89.0244 347.902 89.2278 347.895 89.4545C347.882 89.6478 347.915 89.8212 347.995 89.9745C348.075 90.1212 348.202 90.2545 348.375 90.3745C348.549 90.4945 348.772 90.6012 349.045 90.6945C349.312 90.7945 349.632 90.8845 350.005 90.9645L351.295 91.2345C352.162 91.4212 352.906 91.6646 353.526 91.9646C354.139 92.2646 354.642 92.6179 355.036 93.0246C355.429 93.4313 355.719 93.888 355.906 94.3947C356.092 94.9014 356.189 95.4514 356.196 96.0447C356.189 97.0781 355.932 97.9515 355.426 98.6648C354.912 99.3782 354.182 99.9215 353.236 100.295C352.289 100.668 351.152 100.855 349.825 100.855C348.459 100.855 347.269 100.652 346.255 100.245C345.242 99.8449 344.459 99.2249 343.905 98.3848C343.345 97.5448 343.062 96.4681 343.055 95.1547H347.095C347.122 95.6347 347.242 96.0381 347.455 96.3647C347.669 96.6914 347.972 96.9381 348.365 97.1048C348.752 97.2781 349.219 97.3648 349.765 97.3648C350.219 97.3648 350.599 97.3081 350.906 97.1948C351.212 97.0814 351.442 96.9248 351.596 96.7248C351.756 96.5248 351.839 96.2981 351.846 96.0447C351.839 95.8047 351.762 95.5947 351.616 95.4147C351.462 95.228 351.216 95.0647 350.875 94.9247C350.529 94.778 350.065 94.6413 349.485 94.5147L347.925 94.1746C346.539 93.8746 345.445 93.3713 344.645 92.6646C343.845 91.9579 343.449 90.9912 343.455 89.7645C343.449 88.7711 343.715 87.9011 344.255 87.1544C344.795 86.401 345.542 85.8176 346.495 85.4043C347.455 84.9843 348.555 84.7743 349.795 84.7743C351.062 84.7743 352.156 84.9876 353.076 85.4142C354.002 85.8343 354.716 86.4276 355.216 87.1943C355.722 87.9677 355.976 88.8644 355.976 89.8845H351.906Z" fill="#2C2839"/>
<path d="M153.357 91.9945L185.618 88.9644C185.618 88.9644 195.519 95.3147 189.248 114.646C189.248 114.646 167.177 101.975 156.217 101.925L153.357 91.9945Z" fill="#6F98CF" stroke="#2C2839" stroke-width="0.4" stroke-linecap="round" stroke-linejoin="round"/>
<path d="M185.618 88.9646L82.1837 57.1031C82.1837 57.1031 60.8227 77.584 55.8625 128.946C51.7623 171.458 68.6231 200.97 68.6231 200.97L161.837 225.881C161.837 225.881 141.536 194.259 149.327 149.597C159.057 93.8248 185.618 88.9646 185.618 88.9646Z" fill="#DEE6F4" stroke="#2C2839" stroke-width="0.4" stroke-linecap="round" stroke-linejoin="round"/>
<path d="M151.197 99.9248L152.357 96.5347L85.6438 73.6937L84.4837 77.0839L151.197 99.9248Z" fill="#6F98CF"/>
<path d="M146.486 109.395L147.637 106.005L80.9336 83.1741L79.7735 86.5642L146.486 109.395Z" fill="#6F98CF"/>
<path d="M135.866 129.276L137.056 125.896L78.5034 105.265L77.3234 108.645L135.866 129.276Z" fill="#6F98CF"/>
<path d="M139.356 140.976L140.466 137.566L74.7133 116.165L73.6132 119.565L139.356 140.976Z" fill="#6F98CF"/>
<path d="M137.456 149.977L138.516 146.557L73.8333 126.576L72.7832 129.996L137.456 149.977Z" fill="#6F98CF"/>
<path d="M136.696 159.437L137.736 156.007L72.2732 136.166L71.2331 139.586L136.696 159.437Z" fill="#6F98CF"/>
<path d="M121.855 169.648L122.895 166.218L76.0534 152.007L75.0133 155.437L121.855 169.648Z" fill="#6F98CF"/>
<path d="M132.136 183.349L133.106 179.899L68.473 161.818L67.503 165.258L132.136 183.349Z" fill="#6F98CF"/>
<path d="M121.645 112.585L122.805 109.195L101.344 101.805L100.184 105.195L121.645 112.585Z" fill="#6F98CF"/>
<path d="M223.77 304.424L225.32 299.794L227.23 300.984C227.47 301.134 227.79 301.064 227.95 300.834L229.38 298.694L242.401 299.254L242.581 299.834C243.871 305.104 248.461 308.904 253.931 309.154C260.551 309.464 266.302 304.324 266.742 297.724C266.972 294.394 265.872 291.183 263.642 288.703C261.422 286.213 258.361 284.763 255.021 284.623C249.671 284.393 244.841 287.663 243.001 292.573L216.049 292.783L215.599 303.204L217.82 303.324L220.68 299.724L223.03 304.474C223.19 304.794 223.66 304.764 223.77 304.424Z" fill="#6F98CF"/>
<path d="M220.76 298.534L223.45 303.434L225.35 298.854L227.52 300.314L229.24 297.854L243.561 298.474L243.681 298.884C244.671 303.984 249.051 307.934 254.471 308.174C260.711 308.454 266.052 303.684 266.472 297.454C266.902 290.973 261.922 285.443 255.471 285.163C250.211 284.943 245.621 288.283 244.051 293.053L217.06 293.263L216.89 297.313L216.67 302.414L217.77 302.494L220.76 298.534Z" fill="#6F98CF"/>
<path d="M255.331 301.894C252.461 301.774 250.231 299.344 250.351 296.474C250.481 293.604 252.911 291.374 255.781 291.494C258.651 291.624 260.881 294.054 260.751 296.924C260.631 299.794 258.201 302.024 255.331 301.894Z" fill="#CBDBE5"/>
<path d="M254.951 300.674C253.231 300.594 251.901 299.144 251.981 297.434C252.051 295.714 253.501 294.384 255.221 294.464C256.931 294.534 258.261 295.984 258.191 297.704C258.121 299.414 256.671 300.744 254.951 300.674Z" fill="#FEFEFE" stroke="#2C2839" stroke-width="0.4" stroke-linecap="round" stroke-linejoin="round"/>
<path d="M247.301 301.764C247.294 301.758 247.288 301.748 247.281 301.734C246.694 300.861 246.268 299.918 246.001 298.904C245.961 298.734 246.061 298.564 246.231 298.524C246.401 298.474 246.571 298.574 246.611 298.744C246.864 299.691 247.261 300.571 247.801 301.384C247.901 301.534 247.861 301.724 247.721 301.824C247.581 301.914 247.411 301.884 247.301 301.764Z" fill="#6F98CF"/>
<path d="M249.791 304.244C249.691 304.144 249.681 303.984 249.761 303.864C249.861 303.714 250.051 303.684 250.201 303.774C251.511 304.654 253.041 305.154 254.631 305.224C254.811 305.224 254.941 305.374 254.931 305.554C254.921 305.724 254.771 305.864 254.601 305.854C252.901 305.774 251.261 305.244 249.851 304.304C249.824 304.284 249.804 304.264 249.791 304.244Z" fill="#6F98CF"/>
<path d="M254.381 305.744C254.328 305.684 254.301 305.611 254.301 305.524C254.311 305.344 254.451 305.214 254.631 305.224C257.661 305.354 260.582 303.854 262.252 301.314C262.352 301.164 262.542 301.124 262.692 301.224C262.842 301.314 262.882 301.514 262.782 301.664C260.992 304.384 257.861 305.994 254.601 305.854C254.508 305.848 254.435 305.811 254.381 305.744Z" fill="#6F98CF"/>
<path d="M259.771 289.314C259.681 289.204 259.661 289.044 259.741 288.924C259.841 288.784 260.041 288.744 260.181 288.844C260.642 289.15 261.068 289.494 261.462 289.874C261.592 289.994 261.592 290.194 261.472 290.324C261.352 290.444 261.152 290.454 261.022 290.324C260.655 289.97 260.258 289.65 259.831 289.364C259.811 289.35 259.791 289.334 259.771 289.314Z" fill="#6F98CF"/>
<path d="M251.231 288.513C251.204 288.487 251.184 288.46 251.171 288.433C251.111 288.273 251.181 288.083 251.341 288.013C252.634 287.46 253.991 287.213 255.411 287.273C255.581 287.283 255.721 287.423 255.711 287.603C255.701 287.773 255.551 287.913 255.381 287.903C254.061 287.85 252.798 288.08 251.591 288.594C251.461 288.654 251.321 288.614 251.231 288.513Z" fill="#6F98CF"/>
</svg>
