<svg width="422" height="296" viewBox="0 0 422 296" fill="none" xmlns="http://www.w3.org/2000/svg">
<path d="M405.301 223.157C405.301 259.808 374.753 289.516 337.07 289.516C299.388 289.516 268.84 259.808 268.84 223.157C268.84 186.505 299.388 156.797 337.07 156.797C374.753 156.797 405.301 186.505 405.301 223.157Z" fill="#CCDEEE"/>
<path d="M186.151 289.046C155.783 289.866 124.464 288.125 96.8776 275.428C55.1328 256.216 27.006 212.45 22.5334 166.723C18.0707 120.996 35.7913 74.4581 66.2694 40.0777C80.768 23.718 98.5886 9.55951 119.521 3.26576C140.454 -3.04799 164.798 -0.486584 181.678 13.4017C199.769 28.3005 206.733 53.1755 223.483 69.5652C242.394 88.0862 271.071 93.2693 291.123 110.56C319.53 135.054 331.337 174.998 321.551 211.329C314.807 236.394 297.857 258.427 275.704 271.845C250.229 287.285 215.178 288.265 186.151 289.046Z" fill="#CCDEEE"/>
<path d="M181.208 64.7424C191.384 69.0149 198.538 81.1323 175.684 89.6573C188.722 79.3512 174.244 68.1245 174.244 68.1245L181.208 64.7424Z" fill="#EC784D"/>
<path d="M175.685 89.9373C175.598 89.9373 175.524 89.9007 175.464 89.8273C175.364 89.7073 175.384 89.527 175.514 89.427C179.066 86.6253 180.858 83.4836 180.848 80.1116C180.818 73.6578 174.134 68.3946 174.074 68.3446C173.943 68.2445 173.923 68.0743 174.023 67.9542C174.114 67.8241 174.294 67.8041 174.414 67.9041C174.484 67.9542 176.175 69.275 177.896 71.4363C179.487 73.4475 181.388 76.5795 181.408 80.1116C181.428 83.6637 179.557 86.9557 175.865 89.8674C175.805 89.9141 175.745 89.9373 175.685 89.9373Z" fill="#050302"/>
<path d="M166.469 52.1948C161.416 40.2777 147.368 43.4796 138.823 70.1655C150.74 53.6256 162.657 58.5287 162.657 58.5287L166.469 52.1948Z" fill="#EC784D"/>
<path d="M138.823 70.4458C138.762 70.4458 138.709 70.4293 138.662 70.3959C138.532 70.3059 138.502 70.1256 138.592 70.0056C142.024 65.2427 147.678 59.2693 155.162 57.8685C159.655 57.0179 162.647 58.2186 162.767 58.2686C162.917 58.3286 162.977 58.4988 162.917 58.6389C162.857 58.779 162.697 58.849 162.557 58.7889C162.527 58.7789 159.575 57.5981 155.222 58.4286C151.21 59.1991 145.136 61.8808 139.053 70.3358C138.993 70.4092 138.916 70.4458 138.823 70.4458Z" fill="#050302"/>
<path d="M159.995 59.3192C159.995 59.3192 174.404 33.1636 204.462 25.5191C204.462 25.5191 202.741 52.195 174.254 71.5865L159.995 59.3192Z" fill="#CADAEA"/>
<path d="M171.492 68.2044C171.492 68.2044 194.005 49.1832 204.462 25.5191C204.462 25.5191 201.03 50.7241 172.533 70.1157L171.492 68.2044Z" fill="#7BAED8"/>
<path d="M188.612 31.7928C188.912 31.7328 198.588 29.6416 200.529 40.1279C204.071 31.6328 204.462 25.5191 204.462 25.5191C198.578 27.01 193.305 29.2213 188.612 31.7928Z" fill="#EC784D"/>
<path d="M204.462 25.5191C202.881 29.0912 201.03 32.5731 199.008 35.8851C199.462 36.6322 199.845 37.5196 200.159 38.5468C203.731 30.8723 204.462 25.5191 204.462 25.5191Z" fill="#050302"/>
<path d="M195.186 41.4484C194.065 42.9593 191.654 43.0594 189.803 41.6786C187.952 40.2877 187.361 37.9463 188.482 36.4354C189.613 34.9345 192.024 34.8345 193.875 36.2153C195.726 37.6062 196.317 39.9475 195.186 41.4484Z" fill="#4669B1"/>
<path d="M195.186 41.4484C194.065 42.9593 191.654 43.0594 189.803 41.6786C187.952 40.2877 187.361 37.9463 188.482 36.4354C189.613 34.9345 192.024 34.8345 193.875 36.2153C195.726 37.6062 196.317 39.9475 195.186 41.4484Z" fill="#4669B1"/>
<path d="M194.045 41.3386C193.185 42.4893 191.344 42.5593 189.923 41.5086C188.512 40.448 188.062 38.6569 188.922 37.5062C189.783 36.3556 191.624 36.2856 193.035 37.3362C194.456 38.3969 194.906 40.1879 194.045 41.3386Z" fill="#7BAED8"/>
<path d="M191.864 37.7263C191.534 38.1665 190.814 38.1966 190.263 37.7864C189.713 37.3761 189.543 36.6857 189.873 36.2354C190.213 35.7851 190.924 35.755 191.474 36.1653C192.024 36.5755 192.204 37.276 191.864 37.7263Z" fill="#FEFEFE"/>
<path fill-rule="evenodd" clip-rule="evenodd" d="M193.125 42.3991C192.134 42.3991 191.074 42.0691 190.153 41.3787C189.202 40.6683 188.542 39.6975 188.272 38.6468C188.002 37.5762 188.182 36.5457 188.782 35.7452C189.383 34.9447 190.313 34.4844 191.424 34.4444C192.504 34.3944 193.625 34.7646 194.566 35.475C195.516 36.1755 196.187 37.146 196.447 38.1966C196.717 39.2673 196.537 40.298 195.937 41.0985C195.286 41.969 194.256 42.3991 193.125 42.3991ZM191.594 35.0048C191.547 34.9981 191.497 34.9981 191.444 35.0048C190.513 35.0448 189.723 35.4251 189.233 36.0855C188.742 36.7459 188.592 37.6063 188.822 38.5069C189.052 39.4374 189.643 40.2979 190.493 40.9282C192.214 42.219 194.456 42.139 195.486 40.7582C195.987 40.0978 196.127 39.2374 195.906 38.3368C195.666 37.4063 195.076 36.5556 194.236 35.9152C193.435 35.3249 192.504 35.0048 191.594 35.0048Z" fill="#050302"/>
<path d="M159.995 59.3192L162.236 61.2403C177.175 35.3549 204.462 25.5191 204.462 25.5191C174.404 33.1636 159.995 59.3192 159.995 59.3192Z" fill="#FEFEFE"/>
<path fill-rule="evenodd" clip-rule="evenodd" d="M174.254 71.8767C174.187 71.8767 174.124 71.8532 174.064 71.8065L159.805 59.5292C159.705 59.4392 159.685 59.299 159.745 59.1789C159.785 59.1089 163.447 52.5251 170.752 45.0907C177.496 38.2266 188.802 29.2112 204.392 25.2388C204.485 25.2188 204.568 25.2389 204.642 25.2989C204.715 25.3589 204.752 25.4356 204.752 25.529C204.742 25.5991 204.261 32.3629 200.299 41.3883C196.647 49.7233 189.182 61.7706 174.414 71.8266C174.36 71.8533 174.307 71.87 174.254 71.8767ZM160.355 59.249L174.274 71.2361C188.802 61.2902 196.157 49.4131 199.779 41.1882C203.171 33.4736 203.981 27.44 204.151 25.8891C188.892 29.8715 177.806 38.7168 171.172 45.4708C164.618 52.1348 161.016 58.0983 160.355 59.249Z" fill="#050302"/>
<path d="M200.529 40.4078C200.399 40.4078 200.279 40.3178 200.259 40.1777C199.685 37.0625 198.361 34.8079 196.287 33.4137C192.925 31.1724 188.712 32.0631 188.672 32.0731C188.522 32.1031 188.372 32.0131 188.332 31.863C188.302 31.7129 188.402 31.5527 188.552 31.5227C188.732 31.4827 193.025 30.572 196.597 32.9434C198.798 34.4143 200.219 36.8159 200.809 40.0778C200.839 40.2279 200.739 40.3778 200.589 40.4078C200.569 40.4078 200.549 40.4078 200.529 40.4078Z" fill="#050302"/>
<path d="M176.715 57.298C182.519 58.0584 186.701 60.3197 187.301 63.7618C188.132 68.5647 186.491 73.2275 168.63 84.6343C168.63 84.6343 180.838 70.2857 172.533 64.7724L176.715 57.298Z" fill="#EC784D"/>
<path d="M168.63 84.9142C168.564 84.9142 168.504 84.8944 168.45 84.8543C168.33 84.7543 168.32 84.574 168.42 84.4539C168.49 84.3639 175.965 75.4986 175.074 69.2149C174.821 67.4338 173.923 66.0297 172.382 65.0024C172.252 64.9224 172.212 64.7424 172.302 64.6123C172.393 64.4822 172.563 64.4521 172.693 64.5322C174.374 65.6595 175.354 67.1972 175.634 69.145C176.015 71.8967 174.994 75.3686 172.583 79.481C170.792 82.5228 168.87 84.7943 168.85 84.8143C168.79 84.881 168.717 84.9142 168.63 84.9142Z" fill="#050302"/>
<path d="M168.63 84.9142C168.53 84.9142 168.45 84.8709 168.39 84.7842C168.31 84.6541 168.35 84.4842 168.48 84.4041C186.891 72.6471 187.772 68.1243 187.021 63.8118C186.481 60.6899 182.619 58.3586 176.675 57.5781C176.525 57.5581 176.415 57.4179 176.435 57.2578C176.455 57.1077 176.595 56.9977 176.755 57.0177C183.039 57.8482 186.981 60.2896 187.582 63.7116C188.362 68.2243 187.481 72.9373 168.78 84.8744C168.734 84.901 168.684 84.9142 168.63 84.9142Z" fill="#FEFEFE"/>
<path d="M159.995 59.3193C162.547 55.2469 177.656 68.2046 174.254 71.5866C170.842 74.9686 158.214 62.151 159.995 59.3193Z" fill="#050302"/>
<path d="M89.2331 289.156C76.7356 275.278 90.9741 266.732 100.75 272.076C79.9376 245.74 109.475 230.911 126.905 257.897H158.925C175.294 229.38 193.105 252.114 181.178 266.362C203.041 265.672 205.972 289.156 205.972 289.156H89.2331Z" fill="#FEFEFE"/>
<path d="M186.191 289.436C186.124 289.436 186.067 289.416 186.021 289.376C185.89 289.286 185.87 289.106 185.96 288.976C188.362 285.804 188.642 281.841 186.631 279.35C184.32 276.488 179.667 276.298 174.163 278.85C174.043 278.896 173.937 278.876 173.843 278.789C173.763 278.709 173.743 278.58 173.793 278.469C176.425 273.186 175.754 267.062 172.262 264.521C167.409 260.989 158.534 264.911 147.918 275.297C147.838 275.371 147.744 275.394 147.638 275.368C147.538 275.334 147.474 275.267 147.448 275.167C147.438 275.137 146.807 272.656 144.676 272.065C142.405 271.435 139.163 273.166 135.31 277.058C135.2 277.169 135.02 277.169 134.91 277.058C134.8 276.948 134.8 276.768 134.91 276.658C138.983 272.556 142.315 270.825 144.836 271.525C146.707 272.045 147.548 273.747 147.848 274.577C153.591 269.014 158.744 265.352 163.177 263.701C167.029 262.26 170.281 262.39 172.593 264.071C176.145 266.652 176.975 272.676 174.624 278.029C180.067 275.698 184.69 276.048 187.071 279C189.242 281.691 188.972 285.944 186.411 289.326C186.351 289.399 186.277 289.436 186.191 289.436Z" fill="#EC784D"/>
<path d="M169.121 72.1567L164.038 80.4917L164.478 75.5789L157.053 84.6343L160.535 74.3181L155.232 77.1997L159.995 68.1245C159.995 68.1245 147.448 82.2928 138.452 103.986C108.174 177.73 114.488 258.738 114.488 258.738H170.742C170.742 258.738 169.291 253.004 167.339 243.349C143.235 127.079 169.121 72.1567 169.121 72.1567Z" fill="#FEFEFE"/>
<path d="M128.907 229.691C128.907 228.29 127.776 227.149 126.375 227.149C124.974 227.149 123.844 228.29 123.844 229.691C123.844 231.091 124.974 232.222 126.375 232.222C127.776 232.222 128.907 231.091 128.907 229.691Z" fill="#CADAEA"/>
<path fill-rule="evenodd" clip-rule="evenodd" d="M123.964 240.377C120.942 240.377 118.48 237.915 118.48 234.894C118.48 231.872 120.942 229.41 123.964 229.41C126.995 229.41 129.457 231.872 129.457 234.894C129.457 237.915 126.995 240.377 123.964 240.377ZM123.964 229.971C121.252 229.971 119.051 232.182 119.051 234.894C119.051 237.605 121.252 239.816 123.964 239.816C126.685 239.816 128.887 237.605 128.887 234.894C128.887 232.182 126.685 229.971 123.964 229.971Z" fill="#EC784D"/>
<path d="M146.647 210.059C146.647 207.677 144.726 205.746 142.345 205.746C139.963 205.746 138.042 207.677 138.042 210.059C138.042 212.43 139.963 214.361 142.345 214.361C144.726 214.361 146.647 212.43 146.647 210.059Z" fill="#CADAEA"/>
<path d="M156.603 201.994C156.603 201.233 155.993 200.623 155.232 200.623C154.482 200.623 153.871 201.233 153.871 201.994C153.871 202.744 154.482 203.365 155.232 203.365C155.993 203.365 156.603 202.744 156.603 201.994Z" fill="#CADAEA"/>
<path fill-rule="evenodd" clip-rule="evenodd" d="M141.894 217.403C139.793 217.403 138.082 215.692 138.082 213.591C138.082 211.49 139.793 209.779 141.894 209.779C143.996 209.779 145.717 211.49 145.717 213.591C145.717 215.692 143.996 217.403 141.894 217.403ZM141.894 210.339C140.103 210.339 138.642 211.8 138.642 213.591C138.642 215.382 140.103 216.843 141.894 216.843C143.685 216.843 145.146 215.382 145.146 213.591C145.146 211.8 143.685 210.339 141.894 210.339Z" fill="#EC784D"/>
<path d="M126.905 258.177C126.892 258.177 126.882 258.177 126.875 258.177C126.769 258.164 126.692 258.107 126.645 258.007C126.615 257.947 123.624 251.443 113.838 245.68C113.708 245.6 113.658 245.43 113.738 245.29C113.818 245.159 113.988 245.12 114.128 245.19C119.321 248.251 122.583 251.503 124.404 253.695C125.825 255.396 126.605 256.716 126.945 257.357C131.618 251.033 135.821 248.081 139.463 248.602C141.174 248.852 142.745 249.892 144.016 251.633C144.616 252.454 145.006 253.234 145.226 253.715C151.57 245.25 158.574 240.537 163.567 241.387C165.789 241.768 167.36 243.248 168.1 245.67C168.15 245.81 168.07 245.97 167.92 246.02C167.77 246.06 167.61 245.98 167.56 245.83C166.889 243.629 165.468 242.288 163.477 241.948C158.684 241.127 151.58 246.04 145.376 254.455C145.31 254.542 145.223 254.578 145.116 254.565C145.003 254.545 144.926 254.482 144.886 254.375C144.876 254.335 143.165 249.702 139.383 249.162C135.891 248.672 131.778 251.663 127.136 258.067C127.076 258.141 126.999 258.177 126.905 258.177Z" fill="#EC784D"/>
<path d="M151.39 95.2305C151.343 95.2305 151.3 95.2205 151.26 95.2005C151.13 95.1304 151.08 94.9905 151.13 94.8504L157.394 77.9402L152.421 80.6119C152.301 80.672 152.17 80.6519 152.08 80.5619C151.99 80.4718 151.98 80.3316 152.04 80.2216L155.132 74.8786L151.5 76.2993C151.35 76.3594 151.19 76.2894 151.13 76.1393C151.08 75.9992 151.15 75.829 151.29 75.779L155.683 74.058C155.803 74.0113 155.906 74.0381 155.993 74.1381C156.073 74.2282 156.083 74.3581 156.033 74.4581L153.021 79.6514L157.774 77.0898C157.884 77.0398 158.004 77.0498 158.094 77.1299C158.184 77.2099 158.214 77.3298 158.174 77.4399L152.271 93.3896L162.677 80.2516C162.757 80.1516 162.887 80.1215 162.997 80.1615C163.117 80.2115 163.187 80.3216 163.177 80.4417L162.847 84.414L168.4 76.6396C168.47 76.5395 168.6 76.4994 168.72 76.5395C168.83 76.5795 168.91 76.6896 168.91 76.8096V82.1429C168.91 82.303 168.79 82.4228 168.63 82.4228C168.48 82.4228 168.35 82.303 168.35 82.1429V77.68L162.717 85.5648C162.637 85.6749 162.507 85.7148 162.387 85.6748C162.266 85.6247 162.186 85.5049 162.206 85.3848L162.537 81.3323L151.61 95.1306C151.557 95.1973 151.483 95.2305 151.39 95.2305Z" fill="#EC784D"/>
<path d="M166.469 235.174C166.339 235.174 166.229 235.084 166.199 234.954C157.143 194.29 156.503 158.378 157.564 135.405C158.714 110.52 162.046 95.0406 162.076 94.8905C162.116 94.7404 162.257 94.6401 162.417 94.6801C162.567 94.7102 162.667 94.8603 162.627 95.0104C162.597 95.1605 159.275 110.61 158.124 135.454C157.073 158.378 157.714 194.229 166.749 234.834C166.779 234.984 166.679 235.134 166.529 235.174C166.509 235.174 166.489 235.174 166.469 235.174Z" fill="#7BAED8"/>
<path d="M113.567 238.576C113.561 238.576 113.557 238.576 113.557 238.576C113.397 238.566 113.277 238.436 113.277 238.286C114.658 193.549 121.122 159.969 126.305 139.677C131.928 117.674 137.292 106.097 137.342 105.987C137.412 105.837 137.582 105.777 137.722 105.847C137.862 105.917 137.922 106.077 137.852 106.217C137.802 106.337 132.449 117.874 126.845 139.827C121.682 160.099 115.218 193.629 113.848 238.306C113.838 238.456 113.718 238.576 113.567 238.576Z" fill="#7BAED8"/>
<path d="M150.69 231.081C150.539 231.081 150.419 230.971 150.409 230.821C147.548 186.675 149.309 153.485 151.29 133.423C153.441 111.68 156.303 100.214 156.333 100.103C156.373 99.9534 156.523 99.8634 156.673 99.9034C156.823 99.9334 156.923 100.093 156.883 100.243C156.853 100.354 153.992 111.79 151.85 133.503C149.869 153.535 148.118 186.685 150.97 230.791C150.98 230.941 150.87 231.071 150.71 231.081C150.703 231.081 150.696 231.081 150.69 231.081Z" fill="#EC784D"/>
<path d="M125.585 196.341C125.578 196.341 125.571 196.341 125.565 196.341C125.415 196.331 125.294 196.191 125.294 196.04C127.156 158.358 133.479 129.631 138.452 112.171C143.856 93.2395 148.879 83.0833 148.929 82.9832C148.999 82.8432 149.169 82.7832 149.309 82.8533C149.449 82.9233 149.499 83.0933 149.429 83.2334C149.379 83.3335 144.376 93.4596 138.993 112.341C134.03 129.781 127.716 158.448 125.865 196.071C125.855 196.221 125.735 196.341 125.585 196.341Z" fill="#EC784D"/>
<path d="M137.272 248.542C137.121 248.542 137.001 248.421 136.991 248.271C134.12 214.791 134.64 188.946 135.591 173.177C136.621 156.077 138.352 146.771 138.372 146.671C138.402 146.521 138.542 146.421 138.702 146.451C138.852 146.481 138.953 146.631 138.923 146.781C138.902 146.871 137.182 156.147 136.151 173.217C135.2 188.976 134.68 214.782 137.552 248.232C137.562 248.382 137.452 248.522 137.292 248.532C137.285 248.538 137.278 248.542 137.272 248.542Z" fill="#EC784D"/>
<path d="M138.642 179.15C138.492 179.15 138.362 179.02 138.362 178.87C138.062 150.964 144.816 126.019 144.886 125.769C144.926 125.619 145.076 125.529 145.226 125.579C145.376 125.619 145.466 125.769 145.426 125.919C145.356 126.169 138.622 151.034 138.933 178.86C138.933 179.02 138.803 179.14 138.652 179.15H138.642Z" fill="#CADAEA"/>
<path fill-rule="evenodd" clip-rule="evenodd" d="M150.69 233.983C149.739 233.983 148.959 233.202 148.959 232.252C148.959 231.301 149.739 230.521 150.69 230.521C151.65 230.521 152.421 231.301 152.421 232.252C152.421 233.202 151.65 233.983 150.69 233.983ZM150.69 231.081C150.049 231.081 149.519 231.612 149.519 232.252C149.519 232.892 150.049 233.423 150.69 233.423C151.33 233.423 151.86 232.892 151.86 232.252C151.86 231.612 151.33 231.081 150.69 231.081Z" fill="#EC784D"/>
<path fill-rule="evenodd" clip-rule="evenodd" d="M125.585 199.222C124.624 199.222 123.854 198.442 123.854 197.491C123.854 196.531 124.624 195.76 125.585 195.76C126.535 195.76 127.316 196.531 127.316 197.491C127.316 198.442 126.535 199.222 125.585 199.222ZM125.585 196.321C124.934 196.321 124.414 196.851 124.414 197.491C124.414 198.132 124.934 198.662 125.585 198.662C126.225 198.662 126.745 198.132 126.745 197.491C126.745 196.851 126.225 196.321 125.585 196.321Z" fill="#EC784D"/>
<path d="M180.767 221.946C180.767 219.394 178.706 217.333 176.155 217.333C173.613 217.333 171.542 219.394 171.542 221.946C171.542 224.487 173.613 226.559 176.155 226.559C178.706 226.559 180.767 224.487 180.767 221.946Z" fill="#FEFEFE"/>
<path d="M103.572 224.738C103.572 222.196 101.51 220.125 98.9688 220.125C96.4173 220.125 94.3461 222.196 94.3461 224.738C94.3461 227.289 96.4173 229.36 98.9688 229.36C101.51 229.36 103.572 227.289 103.572 224.738Z" fill="#FEFEFE"/>
<path d="M174.043 208.598C174.043 207.217 172.923 206.096 171.542 206.096C170.161 206.096 169.04 207.217 169.04 208.598C169.04 209.979 170.161 211.099 171.542 211.099C172.923 211.099 174.043 209.979 174.043 208.598Z" fill="#FEFEFE"/>
<path d="M78.9969 289.436C78.8969 289.429 78.8168 289.383 78.7568 289.296C72.8633 279.87 74.7244 275.668 77.306 273.797C79.6974 272.076 83.7798 271.585 88.5326 272.456C91.6745 273.026 94.6062 274.127 96.4874 275.388C91.1142 266.562 92.2648 260.279 95.2966 257.267C98.5686 254.015 104.182 254.175 109.285 257.667C109.415 257.747 109.455 257.927 109.365 258.057C109.275 258.187 109.105 258.217 108.975 258.127C104.102 254.795 98.7587 254.615 95.6969 257.667C92.6351 260.709 91.6445 267.303 97.9983 276.698C98.0783 276.829 98.0583 276.999 97.9282 277.089C97.8081 277.179 97.638 277.159 97.548 277.039C94.6062 273.496 82.5891 270.675 77.6361 274.247C74.2041 276.729 74.7544 281.832 79.2271 289.006C79.3171 289.136 79.2771 289.306 79.137 289.386C79.0903 289.419 79.0436 289.436 78.9969 289.436Z" fill="#EC784D"/>
<path fill-rule="evenodd" clip-rule="evenodd" d="M179.697 249.702C177.345 249.702 175.424 247.791 175.424 245.44C175.424 243.078 177.345 241.167 179.697 241.167C182.048 241.167 183.959 243.078 183.959 245.44C183.959 247.791 182.048 249.702 179.697 249.702ZM179.697 241.728C177.656 241.728 175.995 243.389 175.995 245.44C175.995 247.481 177.656 249.142 179.697 249.142C181.738 249.142 183.399 247.481 183.399 245.44C183.399 243.389 181.738 241.728 179.697 241.728Z" fill="#7BAED8"/>
<path fill-rule="evenodd" clip-rule="evenodd" d="M179.697 249.702C177.345 249.702 175.424 247.791 175.424 245.44C175.424 243.078 177.345 241.167 179.697 241.167C182.048 241.167 183.959 243.078 183.959 245.44C183.959 247.791 182.048 249.702 179.697 249.702ZM179.697 241.728C177.656 241.728 175.995 243.389 175.995 245.44C175.995 247.481 177.656 249.142 179.697 249.142C181.738 249.142 183.399 247.481 183.399 245.44C183.399 243.389 181.738 241.728 179.697 241.728Z" fill="#7BAED8"/>
<path fill-rule="evenodd" clip-rule="evenodd" d="M102.951 247.851C100.6 247.851 98.6787 245.94 98.6787 243.579C98.6787 241.227 100.6 239.316 102.951 239.316C105.303 239.316 107.214 241.227 107.214 243.579C107.214 245.94 105.303 247.851 102.951 247.851ZM102.951 239.877C100.91 239.877 99.249 241.537 99.249 243.579C99.249 245.62 100.91 247.281 102.951 247.281C104.992 247.281 106.653 245.62 106.653 243.579C106.653 241.537 104.992 239.877 102.951 239.877Z" fill="#7BAED8"/>
<path d="M172.442 254.015C172.442 253.084 171.682 252.324 170.741 252.324C169.811 252.324 169.05 253.084 169.05 254.015C169.05 254.955 169.811 255.716 170.741 255.716C171.682 255.716 172.442 254.955 172.442 254.015Z" fill="#CADAEA"/>
<path d="M81.8186 137.676L80.788 137.636C80.808 137.246 81.0982 135.995 81.5185 134.514L82.5091 134.794C82.0088 136.555 81.8186 137.506 81.8186 137.676Z" fill="#5274B8"/>
<path d="M84.3601 129.191L83.3896 128.841C84.07 126.993 84.8137 125.145 85.6209 123.297L86.5615 123.707C85.7677 125.542 85.0339 127.37 84.3601 129.191ZM89.0829 118.354L88.1624 117.894C89.0696 116.106 90.0168 114.355 91.0041 112.641L91.8946 113.161C90.914 114.856 89.9768 116.587 89.0829 118.354ZM95.0165 108.148L94.156 107.568C95.27 105.894 96.424 104.272 97.618 102.705L98.4385 103.335C97.2578 104.883 96.1171 106.487 95.0165 108.148ZM102.181 98.7626L101.4 98.0823C102.734 96.568 104.105 95.1237 105.513 93.7496L106.233 94.48C104.846 95.8408 103.495 97.2684 102.181 98.7626ZM110.606 90.5277L109.945 89.7372C111.493 88.4564 113.081 87.2492 114.708 86.1152L115.288 86.9555C113.694 88.0695 112.133 89.2603 110.606 90.5277ZM120.272 83.8138L119.751 82.9131C121.492 81.9192 123.267 81.0086 125.074 80.1815L125.505 81.1222C123.724 81.936 121.979 82.8332 120.272 83.8138Z" fill="#5274B8"/>
<path d="M130.968 78.9307L130.628 77.9602C131.602 77.62 132.589 77.3032 133.589 77.0097L133.88 77.9902C132.899 78.2837 131.928 78.5972 130.968 78.9307Z" fill="#5274B8"/>
<path d="M233.789 230.631L233.229 231.501C232.908 231.291 231.978 230.401 230.917 229.28L231.668 228.57C232.928 229.901 233.649 230.551 233.789 230.631Z" fill="#5274B8"/>
<path d="M227.785 224.127L226.985 224.777C225.751 223.257 224.54 221.676 223.353 220.035L224.193 219.434C225.361 221.055 226.558 222.62 227.785 224.127ZM220.871 214.541L220.001 215.102C218.92 213.407 217.9 211.7 216.939 209.979L217.83 209.469C218.79 211.183 219.804 212.874 220.871 214.541ZM215.108 204.235L214.177 204.676C213.304 202.861 212.496 201.044 211.756 199.222L212.707 198.832C213.44 200.64 214.241 202.441 215.108 204.235ZM210.685 193.289L209.705 193.609C209.084 191.688 208.541 189.773 208.074 187.866L209.074 187.615C209.535 189.503 210.072 191.394 210.685 193.289ZM207.894 181.842L206.883 182.002C206.563 180.031 206.333 178.03 206.183 176.069L207.213 175.988C207.353 177.93 207.58 179.881 207.894 181.842ZM207.033 170.105L206.003 170.085C206.036 168.084 206.159 166.096 206.373 164.122L207.393 164.231C207.187 166.179 207.066 168.137 207.033 170.105Z" fill="#5274B8"/>
<path d="M208.294 158.418L207.283 158.218C207.49 157.197 207.72 156.184 207.974 155.176L208.974 155.426C208.721 156.42 208.494 157.418 208.294 158.418Z" fill="#5274B8"/>
<path d="M191.094 168.704C192.955 167.584 193.565 165.152 192.434 163.281C191.304 161.41 188.882 160.81 187.011 161.94C185.14 163.061 184.54 165.492 185.66 167.363C186.791 169.225 189.222 169.835 191.094 168.704Z" fill="#FEFEFE"/>
<path fill-rule="evenodd" clip-rule="evenodd" d="M185.22 167.624C183.949 165.512 184.63 162.771 186.741 161.49C188.852 160.219 191.604 160.909 192.875 163.021C194.145 165.122 193.465 167.874 191.354 169.144C189.243 170.415 186.491 169.735 185.22 167.624ZM191.994 163.551C191.014 161.93 188.902 161.4 187.271 162.38C185.65 163.361 185.13 165.472 186.111 167.093C187.081 168.714 189.203 169.244 190.823 168.264C192.444 167.283 192.975 165.172 191.994 163.551Z" fill="#050302"/>
<path d="M107.864 206.437C107.864 205.026 106.724 203.885 105.303 203.885C103.892 203.885 102.741 205.026 102.741 206.437C102.741 207.858 103.892 209.008 105.303 209.008C106.724 209.008 107.864 207.858 107.864 206.437Z" fill="#FEFEFE"/>
<path fill-rule="evenodd" clip-rule="evenodd" d="M105.303 209.518C103.612 209.518 102.221 208.138 102.221 206.437C102.221 204.746 103.612 203.365 105.303 203.365C107.004 203.365 108.384 204.746 108.384 206.437C108.384 208.138 107.004 209.518 105.303 209.518ZM105.303 204.395C104.172 204.395 103.251 205.316 103.251 206.437C103.251 207.577 104.172 208.488 105.303 208.488C106.433 208.488 107.354 207.577 107.354 206.437C107.354 205.316 106.433 204.395 105.303 204.395Z" fill="#050302"/>
<path d="M117.89 107.058C117.7 107.058 117.52 106.948 117.43 106.767L116.439 104.706C116.309 104.446 116.419 104.136 116.669 104.016C116.93 103.896 117.24 103.996 117.36 104.256L118.36 106.317C118.48 106.577 118.37 106.877 118.11 107.008C118.044 107.041 117.97 107.058 117.89 107.058Z" fill="#050302"/>
<path d="M114.778 110.59C114.588 110.59 114.408 110.48 114.318 110.3C114.188 110.039 114.298 109.739 114.558 109.609L116.619 108.619C116.869 108.499 117.18 108.599 117.3 108.859C117.43 109.119 117.32 109.419 117.06 109.549L114.998 110.54C114.925 110.573 114.852 110.59 114.778 110.59Z" fill="#050302"/>
<path d="M120.372 112.711C120.181 112.711 120.001 112.601 119.911 112.421L118.921 110.36C118.791 110.1 118.901 109.789 119.161 109.669C119.411 109.549 119.721 109.649 119.841 109.909L120.842 111.97C120.962 112.231 120.852 112.531 120.602 112.661C120.528 112.694 120.452 112.711 120.372 112.711Z" fill="#050302"/>
<path d="M120.432 108.108C120.241 108.108 120.061 107.998 119.971 107.818C119.841 107.558 119.951 107.258 120.212 107.128L122.273 106.137C122.523 106.007 122.833 106.117 122.953 106.377C123.083 106.627 122.973 106.938 122.713 107.058L120.652 108.058C120.578 108.092 120.505 108.108 120.432 108.108Z" fill="#050302"/>
<path d="M174.594 188.866C174.494 188.706 174.484 188.486 174.604 188.316L175.855 186.405C176.015 186.165 176.325 186.104 176.565 186.255C176.805 186.415 176.875 186.735 176.715 186.965L175.464 188.886C175.304 189.126 174.984 189.186 174.754 189.036C174.687 188.989 174.634 188.933 174.594 188.866Z" fill="#050302"/>
<path d="M169.961 188.026C169.861 187.866 169.861 187.645 169.971 187.475C170.121 187.235 170.441 187.175 170.682 187.335L172.593 188.586C172.833 188.736 172.903 189.056 172.743 189.296C172.593 189.537 172.272 189.597 172.032 189.447L170.121 188.196C170.048 188.149 169.994 188.092 169.961 188.026Z" fill="#050302"/>
<path d="M171.032 193.909C170.932 193.749 170.932 193.539 171.042 193.369L172.292 191.448C172.453 191.208 172.773 191.147 173.003 191.298C173.243 191.458 173.313 191.778 173.153 192.008L171.902 193.929C171.742 194.169 171.432 194.229 171.192 194.079C171.125 194.033 171.072 193.976 171.032 193.909Z" fill="#050302"/>
<path d="M175.004 191.588C174.904 191.418 174.904 191.208 175.014 191.037C175.164 190.797 175.484 190.737 175.725 190.887L177.636 192.138C177.876 192.298 177.946 192.618 177.786 192.859C177.636 193.099 177.315 193.159 177.075 193.009L175.164 191.748C175.097 191.701 175.044 191.648 175.004 191.588Z" fill="#050302"/>
<path d="M102.741 164.132L104.172 172.767L95.9871 169.695L102.741 164.132Z" fill="#FEFEFE"/>
<path fill-rule="evenodd" clip-rule="evenodd" d="M104.172 173.287C104.112 173.287 104.052 173.274 103.992 173.247L95.7969 170.175C95.6268 170.115 95.5068 169.965 95.4768 169.775C95.4467 169.595 95.5068 169.415 95.6569 169.295L102.411 163.741C102.551 163.621 102.751 163.591 102.921 163.651C103.101 163.725 103.211 163.858 103.251 164.051L104.682 172.687C104.712 172.867 104.642 173.047 104.502 173.167C104.402 173.24 104.292 173.28 104.172 173.287ZM96.9977 169.525L103.522 171.966L102.381 165.102L96.9977 169.525Z" fill="#050302"/>
<path d="M93.3956 70.5759C93.3956 69.6353 92.6251 68.8649 91.6846 68.8649C90.744 68.8649 89.9735 69.6353 89.9735 70.5759C89.9735 71.5265 90.744 72.2869 91.6846 72.2869C92.6251 72.2869 93.3956 71.5265 93.3956 70.5759Z" fill="#FEFEFE"/>
<path fill-rule="evenodd" clip-rule="evenodd" d="M91.6846 72.8072C90.4538 72.8072 89.4632 71.8066 89.4632 70.5759C89.4632 69.3552 90.4538 68.3546 91.6846 68.3546C92.9153 68.3546 93.9059 69.3552 93.9059 70.5759C93.9059 71.8066 92.9153 72.8072 91.6846 72.8072ZM91.6846 69.3853C91.0242 69.3853 90.4938 69.9255 90.4938 70.5759C90.4938 71.2363 91.0242 71.7766 91.6846 71.7766C92.345 71.7766 92.8753 71.2363 92.8753 70.5759C92.8753 69.9255 92.345 69.3853 91.6846 69.3853Z" fill="#050302"/>
<path d="M322.772 290.237H231.227V205.896H322.772V290.237Z" fill="#FEFEFE"/>
<path fill-rule="evenodd" clip-rule="evenodd" d="M322.772 290.587H231.227C231.037 290.587 230.877 290.437 230.877 290.237V205.896C230.877 205.696 231.037 205.546 231.227 205.546H322.772C322.962 205.546 323.122 205.696 323.122 205.896V290.237C323.122 290.437 322.962 290.587 322.772 290.587ZM231.578 289.896H322.432V206.236H231.578V289.896Z" fill="#050302"/>
<path d="M203.721 290.237H231.227V205.896H201.95L203.721 290.237Z" fill="#7CAFD9"/>
<path fill-rule="evenodd" clip-rule="evenodd" d="M231.227 290.587H203.721C203.531 290.587 203.381 290.437 203.371 290.247L201.6 205.896C201.6 205.803 201.633 205.72 201.7 205.646C201.767 205.58 201.85 205.546 201.95 205.546H231.227C231.418 205.546 231.578 205.696 231.578 205.896V290.237C231.578 290.437 231.418 290.587 231.227 290.587ZM204.061 289.896H230.877V206.236H202.3L204.061 289.896Z" fill="#050302"/>
<path d="M264.848 230.751H274.733L288.752 253.675H288.852V230.751H296.116V263.741H286.61L272.212 240.257H272.122V263.741H264.848V230.751Z" fill="#8BADDA"/>
<path d="M229.947 204.936H296.096V127.94L229.947 134.784V204.936Z" fill="#FEFEFE"/>
<path fill-rule="evenodd" clip-rule="evenodd" d="M229.597 204.936V134.784C229.597 134.604 229.737 134.454 229.907 134.444L296.056 127.59C296.163 127.583 296.253 127.613 296.326 127.68C296.4 127.753 296.44 127.84 296.446 127.94V204.936C296.446 205.126 296.286 205.286 296.096 205.286H229.947C229.757 205.286 229.597 205.126 229.597 204.936ZM295.746 128.32L230.297 135.094V204.595H295.746V128.32Z" fill="#050302"/>
<path d="M296.096 204.936H318.249V134.094L296.096 127.94V204.936Z" fill="#CBDBEB"/>
<path fill-rule="evenodd" clip-rule="evenodd" d="M295.746 204.936V127.94C295.753 127.827 295.799 127.733 295.886 127.66C295.979 127.593 296.079 127.577 296.186 127.61L318.339 133.763C318.489 133.803 318.589 133.944 318.589 134.094V204.936C318.589 205.126 318.439 205.286 318.249 205.286H296.096C295.906 205.286 295.746 205.126 295.746 204.936ZM317.899 134.354L296.446 128.4V204.596H317.899V134.354Z" fill="#050302"/>
<path fill-rule="evenodd" clip-rule="evenodd" d="M257.433 148.072L263.437 147.892L278.776 180.431L270.581 180.681L267.529 173.777L254.721 174.168L252.18 181.232L244.165 181.472L257.433 148.072ZM260.525 157.588L256.823 167.954L264.888 167.714L260.525 157.588Z" fill="#8BADDA"/>
<path d="M312.536 277.069L311.015 284.203C302.37 284.963 294.405 292.298 285.46 290.787C285.16 284.873 295.546 285.564 297.667 275.248L312.536 277.069Z" fill="#FEFEFE"/>
<path fill-rule="evenodd" clip-rule="evenodd" d="M285.4 291.097C285.26 291.077 285.15 290.947 285.14 290.797C284.989 287.945 287.171 286.534 289.682 284.913C292.744 282.942 296.216 280.701 297.357 275.187C297.387 275.027 297.547 274.917 297.707 274.937L312.576 276.758C312.669 276.772 312.743 276.815 312.796 276.888C312.849 276.962 312.866 277.045 312.846 277.139L311.335 284.273C311.305 284.403 311.185 284.503 311.045 284.523C307.413 284.833 303.821 286.364 300.349 287.855C296.346 289.556 292.234 291.307 287.921 291.307C287.087 291.307 286.247 291.237 285.4 291.097ZM312.146 277.349L297.917 275.598C296.666 281.181 292.994 283.542 290.032 285.454C287.671 286.974 285.78 288.185 285.77 290.517C290.723 291.257 295.486 289.226 300.098 287.265C303.54 285.794 307.103 284.283 310.755 283.903L312.146 277.349Z" fill="#050302"/>
<path d="M288.372 293.028C293.294 293.028 298.307 290.837 302.47 289.016C305.952 287.495 308.954 286.174 310.865 286.554C311.045 286.584 311.205 286.474 311.245 286.304C311.275 286.134 311.165 285.964 310.985 285.934C308.874 285.514 305.792 286.864 302.21 288.425C297.287 290.587 291.163 293.268 285.51 292.118C285.34 292.077 285.17 292.188 285.14 292.358C285.1 292.538 285.21 292.698 285.39 292.738C286.377 292.938 287.371 293.035 288.372 293.028Z" fill="#050302"/>
<path d="M296.967 285.283C297.013 285.283 297.06 285.27 297.107 285.244C297.267 285.174 297.327 284.973 297.247 284.813L295.746 281.791H299.918C300.098 281.791 300.239 281.651 300.239 281.471C300.239 281.301 300.098 281.151 299.918 281.151H295.226C295.112 281.158 295.022 281.208 294.955 281.301C294.902 281.401 294.899 281.505 294.945 281.611L296.676 285.103C296.743 285.217 296.84 285.277 296.967 285.283Z" fill="#050302"/>
<path d="M354.301 277.529L356.722 287.235C367.098 289.516 370.68 293.759 382.207 293.759C382.207 289.666 371.271 289.666 365.677 276.158L354.301 277.529Z" fill="#FEFEFE"/>
<path fill-rule="evenodd" clip-rule="evenodd" d="M366.438 290.697C363.586 289.576 360.634 288.425 356.652 287.545C356.532 287.511 356.452 287.435 356.412 287.315L353.99 277.609C353.97 277.515 353.987 277.429 354.041 277.349C354.094 277.269 354.167 277.222 354.261 277.209L365.637 275.848C365.777 275.828 365.918 275.908 365.968 276.038C369.36 284.213 374.793 287.415 378.385 289.536C380.786 290.967 382.527 291.988 382.527 293.759C382.527 293.939 382.387 294.079 382.207 294.079C375.073 294.079 370.871 292.438 366.438 290.697ZM354.691 277.799L356.992 286.964C360.915 287.845 363.836 288.986 366.668 290.096C371.161 291.857 375.063 293.388 381.867 293.438C381.657 292.208 380.186 291.347 378.065 290.086C374.423 287.945 368.949 284.703 365.477 276.508L354.691 277.799Z" fill="#050302"/>
<path d="M381.067 296C381.46 295.993 381.847 295.98 382.227 295.96C382.407 295.95 382.537 295.79 382.527 295.62C382.517 295.45 382.367 295.309 382.187 295.319C376.384 295.7 369.32 293.008 364.157 291.047C360.975 289.826 358.453 288.866 356.982 288.856C356.812 288.856 356.662 288.996 356.662 289.176C356.662 289.346 356.802 289.496 356.982 289.496C358.333 289.506 360.935 290.497 363.936 291.637C368.809 293.498 375.373 296 381.067 296Z" fill="#050302"/>
<path d="M369.6 287.225C369.727 287.225 369.82 287.168 369.88 287.054L371.161 284.443C371.201 284.35 371.201 284.26 371.161 284.173C371.121 284.08 371.051 284.02 370.951 283.993L366.328 282.812C366.158 282.772 365.978 282.872 365.938 283.042C365.898 283.212 365.998 283.392 366.168 283.432L370.42 284.513L369.31 286.775C369.24 286.935 369.3 287.125 369.46 287.195C369.506 287.221 369.553 287.231 369.6 287.225Z" fill="#050302"/>
<path d="M324.163 141.898C324.163 149.833 328.195 156.267 333.158 156.267C338.121 156.267 342.143 149.833 342.143 141.898C342.143 133.964 338.121 127.53 333.158 127.53C328.195 127.53 324.163 133.964 324.163 141.898Z" fill="#FEFEFE"/>
<path fill-rule="evenodd" clip-rule="evenodd" d="M323.853 141.898C323.853 133.804 328.025 127.209 333.158 127.209C338.291 127.209 342.464 133.804 342.464 141.898C342.464 150.003 338.291 156.587 333.158 156.587C328.025 156.587 323.853 150.003 323.853 141.898ZM324.483 141.898C324.483 149.653 328.375 155.947 333.158 155.947C337.941 155.947 341.823 149.653 341.823 141.898C341.823 134.154 337.941 127.85 333.158 127.85C328.375 127.85 324.483 134.154 324.483 141.898Z" fill="#050302"/>
<path d="M312.786 142.739C313.697 202.134 295.226 274.327 295.226 274.327C295.226 274.327 302.09 285.414 316.658 279.04C316.658 279.04 332.678 202.965 335.64 170.195L348.647 281.021C348.647 281.021 358.353 283.162 369.28 278.149L355.571 144.71C355.571 144.71 333.158 153.595 312.786 142.739Z" fill="#050302"/>
<path d="M358.523 157.307C358.523 157.307 354.281 141.758 354.431 136.295C354.581 130.832 358.523 101.404 358.523 101.404C347.457 91.8386 324.773 94.5001 317.719 96.3913C313.767 97.4519 293.905 115.282 293.905 115.282L269.78 120.515C269.78 120.515 266.368 130.301 273.873 136.215C273.873 136.215 295.636 132.353 298.517 131.672C301.409 130.982 314.157 121.196 314.157 121.196C314.157 121.196 313.476 141.528 308.924 154.956C328.035 151.694 331.977 151.234 335.92 129.991C337.291 148.882 338.811 152.755 358.523 157.908V157.307Z" fill="#4669B1"/>
<path d="M354.751 140.868C350.568 146.461 358.413 159.199 364.897 158.288C371.381 157.377 354.751 140.868 354.751 140.868Z" fill="#FEFEFE"/>
<path fill-rule="evenodd" clip-rule="evenodd" d="M355.501 152.104C352.94 147.772 352.54 143.279 354.491 140.678C354.551 140.604 354.628 140.564 354.721 140.557C354.821 140.551 354.904 140.581 354.971 140.648C355.001 140.678 358.223 143.869 361.245 147.491C365.357 152.414 367.168 155.757 366.618 157.418C366.391 158.085 365.834 158.481 364.947 158.608C364.707 158.642 364.47 158.658 364.237 158.658C360.885 158.658 357.493 155.466 355.501 152.104ZM356.052 151.784C358.073 155.196 361.575 158.438 364.857 157.978C365.491 157.891 365.874 157.634 366.008 157.207C366.958 154.376 358.483 145.07 354.791 141.368C353.25 143.809 353.72 147.832 356.052 151.784Z" fill="#050302"/>
<path d="M358.523 101.404C358.523 101.404 381.967 122.336 382.648 128.71C383.328 135.084 364.267 150.233 363.356 150.684C362.446 151.144 355.852 145.32 353.57 140.077L363.456 128.1C363.456 128.1 351.469 121.876 349.658 117.784C347.837 113.691 351.809 95.1505 358.523 101.404Z" fill="#4669B1"/>
<path d="M355.321 123.447C355.471 123.447 355.611 123.327 355.631 123.167L356.372 117.164C356.392 116.984 356.272 116.823 356.092 116.803C355.922 116.783 355.762 116.903 355.741 117.084L355.001 123.087C354.981 123.267 355.101 123.417 355.281 123.437C355.295 123.444 355.308 123.447 355.321 123.447Z" fill="#050302"/>
<path d="M314.157 121.436C314.327 121.436 314.477 121.296 314.477 121.116V111.75C314.477 111.57 314.327 111.43 314.157 111.43C313.977 111.43 313.837 111.57 313.837 111.75V121.116C313.837 121.296 313.977 121.436 314.157 121.436Z" fill="#050302"/>
<path d="M310.915 146.211C310.988 146.211 311.055 146.191 311.115 146.151L318.9 140.217C319.04 140.107 319.07 139.907 318.96 139.767C318.85 139.627 318.649 139.597 318.509 139.707L310.725 145.641C310.585 145.751 310.555 145.951 310.665 146.091C310.731 146.171 310.815 146.211 310.915 146.211Z" fill="#050302"/>
<path d="M337.06 126.009C337.114 126.009 337.167 125.992 337.221 125.959C338.141 125.408 346.216 120.476 346.766 118.634C347.026 117.764 346.266 116.563 344.445 115.002C343.634 114.312 342.824 113.721 342.304 113.361C344.485 112.521 351.829 108.999 353.961 99.383C353.991 99.2129 353.88 99.0427 353.71 99.0026C353.54 98.9626 353.37 99.0727 353.34 99.2428C350.919 110.159 341.613 112.931 341.513 112.961C341.393 113.001 341.32 113.088 341.293 113.221C341.273 113.341 341.323 113.471 341.433 113.531C343.434 114.842 346.496 117.333 346.156 118.454C345.796 119.675 340.412 123.287 336.89 125.408C336.74 125.509 336.69 125.699 336.78 125.849C336.847 125.949 336.94 126.002 337.06 126.009Z" fill="#050302"/>
<path d="M331.717 126.009C331.811 126.002 331.891 125.966 331.957 125.899C332.077 125.769 332.067 125.568 331.927 125.448C328.926 122.757 324.103 118.094 323.953 117.074C323.793 116.013 326.434 113.872 328.125 112.771C328.232 112.698 328.282 112.597 328.275 112.471C328.262 112.351 328.199 112.264 328.085 112.211C328.015 112.181 321.681 109.279 319.17 96.7314C319.13 96.5613 318.96 96.4512 318.79 96.4812C318.619 96.5213 318.509 96.6815 318.539 96.8616C320.741 107.858 325.734 111.59 327.335 112.531C326.114 113.371 323.092 115.633 323.322 117.174C323.562 118.755 330.697 125.198 331.507 125.919C331.574 125.979 331.644 126.009 331.717 126.009Z" fill="#050302"/>
<path d="M270.841 122.337C270.841 122.337 275.094 127.039 273.873 133.864L268.42 137.015L266.819 134.734L261.365 137.806L256.242 132.463C256.242 132.463 259.504 124.608 270.841 122.337Z" fill="#FEFEFE"/>
<path fill-rule="evenodd" clip-rule="evenodd" d="M261.135 138.026L256.012 132.683C255.922 132.593 255.902 132.453 255.952 132.343C255.982 132.263 256.813 130.291 259.064 128.03C261.135 125.949 264.847 123.217 270.781 122.026C270.901 122.006 271.001 122.04 271.081 122.127C271.261 122.317 275.424 127.02 274.193 133.924C274.173 134.017 274.12 134.09 274.033 134.144L268.58 137.296C268.43 137.376 268.25 137.335 268.159 137.195L266.729 135.154L261.515 138.086C261.469 138.113 261.419 138.126 261.365 138.126C261.272 138.126 261.195 138.093 261.135 138.026ZM267.089 134.554L268.51 136.595L273.593 133.663C274.573 127.78 271.381 123.487 270.721 122.687C260.805 124.748 257.203 131.222 256.623 132.403L261.425 137.416L266.669 134.454C266.715 134.427 266.765 134.414 266.819 134.414C266.925 134.421 267.015 134.467 267.089 134.554Z" fill="#050302"/>
<path d="M346.996 94.5601L335.319 124.898L325.764 94.5601C325.764 94.5601 335.469 87.716 346.996 94.5601Z" fill="#FEFEFE"/>
<path fill-rule="evenodd" clip-rule="evenodd" d="M335.309 125.218C335.169 125.208 335.049 125.118 335.009 124.988L325.454 94.6502C325.414 94.5202 325.464 94.38 325.574 94.2999C325.674 94.2299 335.59 87.4158 347.166 94.2799C347.297 94.3599 347.347 94.5299 347.297 94.67L335.62 125.008C335.57 125.138 335.449 125.218 335.319 125.218C335.313 125.218 335.309 125.218 335.309 125.218ZM326.134 94.6901L335.349 123.928L346.606 94.6901C336.37 88.7765 327.545 93.8095 326.134 94.6901Z" fill="#050302"/>
<path d="M340.362 103.235C340.449 103.235 340.526 103.202 340.593 103.135C340.713 103.015 340.713 102.815 340.583 102.685L335.99 98.2923C335.88 98.1822 335.71 98.1722 335.59 98.2622L330.276 102.055C330.136 102.155 330.106 102.355 330.206 102.495C330.306 102.635 330.507 102.675 330.647 102.575L335.74 98.9326L340.142 103.145C340.209 103.205 340.282 103.235 340.362 103.235Z" fill="#050302"/>
<path d="M336.38 95.7608C338.581 95.7608 340.362 93.9798 340.362 91.7785V89.147C340.362 86.9557 338.581 85.1744 336.38 85.1744C334.179 85.1744 332.398 86.9557 332.398 89.147V91.7785C332.398 93.9798 334.179 95.7608 336.38 95.7608Z" fill="#FEFEFE"/>
<path fill-rule="evenodd" clip-rule="evenodd" d="M332.077 91.7785V89.147C332.077 86.7856 334.009 84.8544 336.38 84.8544C338.751 84.8544 340.683 86.7856 340.683 89.147V91.7785C340.683 94.1499 338.751 96.071 336.38 96.071C334.009 96.071 332.077 94.1499 332.077 91.7785ZM332.718 89.147V91.7785C332.718 93.7997 334.359 95.4405 336.38 95.4405C338.401 95.4405 340.042 93.7997 340.042 91.7785V89.147C340.042 87.1358 338.401 85.4847 336.38 85.4847C334.359 85.4847 332.718 87.1358 332.718 89.147Z" fill="#050302"/>
<path d="M345.886 83.9537C351.249 82.8931 348.537 77.3698 346.996 76.7094C353.57 74.3981 348.817 64.6923 343.965 66.5134C342.904 58.4686 331.167 60.5899 332.258 67.2639C325.153 68.1744 328.946 74.3982 328.946 74.3982C323.943 77.7402 331.527 83.2534 331.527 83.2534L345.886 83.9537Z" fill="#050302"/>
<path d="M329.946 77.7601C328.886 84.6742 331.447 90.8078 335.67 91.4582C339.892 92.1086 344.175 87.0357 345.245 80.1116C346.306 73.2075 343.744 67.0737 339.522 66.4233C335.299 65.7729 331.017 70.846 329.946 77.7601Z" fill="#FEFEFE"/>
<path fill-rule="evenodd" clip-rule="evenodd" d="M335.62 91.7783C333.458 91.4481 331.657 89.7772 330.527 87.0856C329.426 84.444 329.106 81.1119 329.636 77.7099C330.156 74.3079 331.457 71.2361 333.308 69.0448C335.189 66.8135 337.411 65.773 339.572 66.1032C341.723 66.4434 343.534 68.1043 344.655 70.7959C345.766 73.4375 346.076 76.7693 345.555 80.1613C344.535 86.8253 340.523 91.8384 336.39 91.8384C336.13 91.8318 335.873 91.8117 335.62 91.7783ZM333.788 69.465C332.027 71.5563 330.767 74.5281 330.266 77.8101C329.756 81.102 330.056 84.3039 331.117 86.8355C332.158 89.3169 333.789 90.8479 335.71 91.1481C339.752 91.7684 343.884 86.7954 344.925 80.0714C345.435 76.7795 345.125 73.5775 344.065 71.046C343.034 68.5646 341.403 67.0336 339.472 66.7334C339.245 66.7001 339.015 66.6833 338.781 66.6833C337.07 66.6833 335.319 67.6439 333.788 69.465Z" fill="#050302"/>
<path d="M344.925 79.6313C340.873 83.4035 341.623 73.0373 341.623 73.0373C335.63 70.3857 335.299 64.8124 335.299 64.8124C335.299 64.8124 348.077 64.3622 344.925 79.6313Z" fill="#050302"/>
<path d="M266.819 135.054C266.919 135.054 267.005 135.014 267.079 134.934L270.141 130.992C270.251 130.862 270.221 130.662 270.081 130.552C269.941 130.442 269.74 130.472 269.64 130.602L266.568 134.544C266.468 134.684 266.488 134.884 266.629 134.994C266.689 135.034 266.752 135.054 266.819 135.054Z" fill="#050302"/>
<path d="M260.355 136.435C260.442 136.435 260.518 136.402 260.585 136.335L267.129 129.711C267.249 129.591 267.249 129.381 267.119 129.261C266.999 129.141 266.799 129.141 266.669 129.261L260.135 135.885C260.005 136.015 260.005 136.215 260.135 136.345C260.201 136.405 260.275 136.435 260.355 136.435Z" fill="#050302"/>
<path d="M258.904 134.904C258.991 134.904 259.067 134.871 259.134 134.804L264.367 129.191C264.487 129.061 264.487 128.861 264.357 128.74C264.227 128.62 264.027 128.63 263.907 128.761L258.664 134.374C258.544 134.494 258.554 134.694 258.684 134.824C258.744 134.878 258.817 134.904 258.904 134.904Z" fill="#050302"/>
<path d="M257.423 133.273C257.51 133.273 257.583 133.243 257.643 133.183L261.385 129.361C261.515 129.231 261.505 129.031 261.385 128.911C261.255 128.781 261.055 128.781 260.935 128.911L257.193 132.733C257.073 132.863 257.073 133.063 257.193 133.183C257.26 133.243 257.336 133.273 257.423 133.273Z" fill="#050302"/>
<path d="M46.0774 205.386L30.5081 204.676C30.5081 204.676 25.6653 221.496 27.8165 230.551C29.9778 239.606 46.0774 205.386 46.0774 205.386Z" fill="#FEFEFE"/>
<path fill-rule="evenodd" clip-rule="evenodd" d="M29.0773 232.412C29.0372 232.412 28.9972 232.412 28.9572 232.412C28.2434 232.332 27.7531 231.738 27.4863 230.631C26.5858 226.829 26.7559 221.285 28.0166 214.151C28.9572 208.858 30.1679 204.615 30.1779 204.575C30.2279 204.425 30.368 204.325 30.5281 204.335L46.0874 205.046C46.2074 205.059 46.3008 205.116 46.3675 205.216C46.4276 205.323 46.4342 205.429 46.3875 205.536C45.0768 208.308 33.5999 232.412 29.0773 232.412ZM30.7683 205.026C30.1679 207.187 26.1855 222.216 28.1567 230.471C28.3435 231.265 28.6337 231.685 29.0272 231.732C29.9578 231.832 32.4593 230.261 38.8531 218.734C41.9849 213.091 44.7666 207.347 45.547 205.706L30.7683 205.026Z" fill="#050302"/>
<path d="M87.9823 102.245C87.9823 102.245 86.5815 90.1673 83.2895 88.9866C80.0075 87.7959 71.3824 89.8471 70.5119 92.969C69.6514 96.1009 72.7833 101.544 77.306 100.574L77.9563 104.836L87.9823 102.245Z" fill="#FEFEFE"/>
<path fill-rule="evenodd" clip-rule="evenodd" d="M77.9564 105.176C77.8897 105.176 77.8263 105.156 77.7662 105.116C77.6862 105.063 77.6362 104.986 77.6162 104.886L77.0258 100.974C75.2347 101.234 73.5137 100.584 72.1329 99.1228C70.4919 97.3818 69.6714 94.7502 70.1817 92.8791C70.4519 91.8985 71.4125 90.9678 72.9434 90.1673C76.0952 88.5363 81.0782 87.8161 83.4096 88.6566C84.8905 89.1969 86.1612 91.6582 87.2018 95.9808C87.9623 99.1327 88.3225 102.174 88.3225 102.204C88.3425 102.375 88.2325 102.535 88.0624 102.575L78.0364 105.166C78.0097 105.173 77.983 105.176 77.9564 105.176ZM77.306 100.223C77.3794 100.223 77.446 100.247 77.5061 100.293C77.5795 100.347 77.6262 100.423 77.6462 100.524L78.2365 104.406L87.6121 101.984C87.1718 98.4923 85.6409 90.1874 83.1795 89.3069C80.9982 88.5164 76.2653 89.2168 73.2536 90.7778C71.9027 91.4782 71.0622 92.2687 70.8421 93.0591C70.3918 94.7201 71.1423 97.0716 72.6332 98.6526C73.934 100.033 75.5649 100.594 77.2359 100.233C77.2626 100.233 77.286 100.23 77.306 100.223Z" fill="#050302"/>
<path d="M77.9564 105.176C77.7863 105.176 77.6462 105.056 77.6162 104.886L76.3854 97.1617L74.054 97.762C73.8639 97.802 73.6838 97.6919 73.6338 97.5118C73.5837 97.3317 73.6938 97.1417 73.8839 97.1016L76.5755 96.4113C76.6756 96.3846 76.7656 96.3978 76.8457 96.4511C76.9324 96.5045 76.9824 96.5812 76.9958 96.6812L78.2966 104.776C78.3166 104.966 78.1965 105.136 78.0064 105.167C77.993 105.173 77.9764 105.176 77.9564 105.176Z" fill="#050302"/>
<path d="M32.9996 92.3588C32.2392 94.9503 31.5688 97.6419 30.0579 99.8833C27.6665 103.405 23.554 105.286 19.7117 107.128C15.8594 108.969 11.8271 111.16 9.91593 114.972C7.77465 119.235 8.94535 124.638 11.9171 128.36C14.8889 132.092 19.3615 134.344 23.9443 135.675C28.577 137.015 33.59 137.506 38.2128 136.105C42.8255 134.694 46.958 131.152 48.1887 126.479C49.0692 123.137 48.4388 119.605 48.0986 116.163C47.7684 112.721 47.8084 108.979 49.7996 106.147C51.5006 103.716 54.3824 102.345 56.2835 100.063C59.0051 96.7814 59.2452 91.6684 56.8338 88.1463C54.2623 84.4041 50.6101 82.9232 46.1174 84.1139C39.6036 82.0126 34.5706 87.0656 32.9996 92.3588Z" fill="#050302"/>
<path d="M26.0955 260.959L21.9931 267.213C27.3863 276.478 24.5846 290.286 32.3492 289.846C40.1138 289.416 39.0332 264.401 39.0332 264.401L26.0955 260.959Z" fill="#FEFEFE"/>
<path fill-rule="evenodd" clip-rule="evenodd" d="M31.999 290.206C27.4062 290.206 26.4957 285.253 25.4351 279.56C24.6946 275.588 23.8642 271.095 21.7029 267.383C21.6362 267.256 21.6395 267.136 21.7129 267.022L25.8053 260.769C25.8954 260.649 26.0354 260.589 26.1855 260.629L39.1232 264.071C39.2633 264.111 39.3634 264.241 39.3734 264.391C39.4134 265.422 40.374 289.746 32.3692 290.186C32.2425 290.2 32.119 290.206 31.999 290.206ZM22.3933 267.223C24.5346 270.995 25.375 275.478 26.1055 279.43C27.1761 285.193 28.0266 289.746 32.3292 289.506C36.1014 289.296 37.6323 282.552 38.2627 276.929C38.8731 271.425 38.743 265.892 38.703 264.671L26.2455 261.349L22.3933 267.223Z" fill="#050302"/>
<path d="M40.4341 159.089L72.4531 149.613C72.4531 149.613 92.2949 198.852 82.379 212C72.4531 225.158 44.3164 218.904 44.3164 218.904L40.4341 159.089Z" fill="#050302"/>
<path d="M40.434 159.089C40.434 159.089 43.3458 229.791 23.9342 261.169C23.9342 261.169 27.8165 269.754 42.6954 268.533C42.6954 268.533 59.8456 236.264 64.6985 176.809L40.434 159.089Z" fill="#050302"/>
<path d="M58.3447 220.735C58.318 220.735 58.288 220.729 58.2546 220.715C58.0745 220.675 57.9645 220.485 58.0145 220.305C63.0475 200.463 64.3383 177.019 64.3483 176.789C64.3583 176.599 64.5284 176.459 64.7085 176.469C64.8986 176.479 65.0487 176.639 65.0287 176.829C65.0187 177.059 63.7279 200.563 58.6749 220.475C58.6349 220.625 58.4948 220.735 58.3447 220.735Z" fill="#FEFEFE"/>
<path d="M68.901 119.695L72.4531 149.613L40.4341 159.089C38.603 143.589 23.0737 132.993 34.9408 111.73L68.901 119.695Z" fill="#EC784D"/>
<path d="M68.9009 119.695L80.718 122.487L74.8144 104.876C74.8144 104.876 80.0075 99.5831 89.6333 100.734C89.6333 100.734 103.431 128.04 97.6881 136.675C91.9346 145.3 76.5555 145.791 67.5001 135.415L68.9009 119.695Z" fill="#EC784D"/>
<path d="M82.6091 129.111C82.459 129.111 82.3289 129.011 82.2789 128.861L80.3978 122.587C80.3378 122.407 80.4378 122.217 80.6279 122.167C80.808 122.107 80.9982 122.217 81.0482 122.387L82.9393 128.67C82.9893 128.851 82.8893 129.041 82.7092 129.091C82.6758 129.104 82.6425 129.111 82.6091 129.111Z" fill="#050302"/>
<path d="M2.86171 73.4575C2.86171 73.4575 0.800486 57.7282 2.11127 56.0472C3.42205 54.3562 12.4074 51.9248 14.6587 54.3563C16.9001 56.7977 16.5299 64.282 11.2867 65.963L12.2173 73.4575H2.86171Z" fill="#FEFEFE"/>
<path fill-rule="evenodd" clip-rule="evenodd" d="M12.2172 73.7979H2.86168C2.69158 73.7979 2.54149 73.6678 2.52148 73.4977C2.31136 71.8767 0.480274 57.5783 1.84108 55.8373C2.82167 54.5665 7.24431 53.1456 10.6063 52.9955C12.0372 52.9355 13.9483 53.0857 14.9089 54.1263C16.2196 55.5471 16.6699 58.4789 15.9795 61.1104C15.3191 63.6119 13.7882 65.4128 11.6569 66.2033L12.5574 73.4176C12.5708 73.5176 12.5441 73.6043 12.4774 73.6777C12.4107 73.7578 12.324 73.7979 12.2172 73.7979ZM3.16188 73.1176H11.837L10.9465 66.0133C10.9265 65.8431 11.0265 65.6932 11.1766 65.6432C13.9383 64.7526 14.9489 62.311 15.3191 60.9302C15.9395 58.5587 15.5492 55.8273 14.4086 54.5865C13.7882 53.9161 12.4874 53.6058 10.6363 53.6859C7.30434 53.8259 3.16188 55.2468 2.38141 56.2574C1.50089 57.3781 2.38141 67.064 3.16188 73.1176Z" fill="#050302"/>
<path d="M34.9408 111.73L17.0401 94.48L14.4486 66.8737C14.4486 66.8737 9.48564 64.2922 0 66.8737C0 66.8737 1.08065 102.955 4.10245 109.719C7.11424 116.473 30.5682 128.77 30.5682 128.77C30.5682 128.77 37.3122 122.517 34.9408 111.73Z" fill="#EC784D"/>
<path d="M17.7205 102.805C17.5504 102.805 17.4004 102.665 17.3803 102.485L16.6999 94.51C16.6799 94.3199 16.82 94.1599 17.0101 94.1399C17.2002 94.1199 17.3603 94.2598 17.3803 94.4499L18.0607 102.425C18.0808 102.615 17.9407 102.785 17.7506 102.805C17.7372 102.805 17.7272 102.805 17.7205 102.805Z" fill="#050302"/>
<path d="M34.2903 130.602C34.2436 130.602 34.2003 130.595 34.1603 130.581L30.4481 129.081C30.2679 129.011 30.1779 128.81 30.2579 128.64C30.318 128.47 30.5181 128.38 30.6982 128.45L34.4104 129.941C34.5905 130.011 34.6706 130.211 34.6005 130.391C34.5505 130.522 34.4204 130.602 34.2903 130.602Z" fill="#050302"/>
<path d="M55.3829 115.793L53.1716 108.308C53.1716 108.308 58.3247 107.768 58.2246 103.916C58.1245 100.063 54.8226 92.7289 51.1604 88.6965C47.4882 84.6641 38.4528 86.135 38.753 95.4806C39.0532 104.836 44.0061 115.462 44.0061 115.462C44.0061 115.462 56.0033 123.637 55.3829 115.793Z" fill="#FEFEFE"/>
<path d="M57.5242 105.817C57.7343 106.557 55.9432 107.698 53.5318 108.368C51.1304 109.039 49.0091 108.979 48.799 108.228C48.5989 107.488 50.3799 106.347 52.7914 105.677C55.2028 105.006 57.3141 105.076 57.5242 105.817Z" fill="#CADAEA"/>
<path d="M48.789 108.108C50.1799 113.201 54.5925 113.131 54.5925 113.131L53.1716 108.308L48.789 108.108Z" fill="#CADAEA"/>
<path fill-rule="evenodd" clip-rule="evenodd" d="M52.8614 119.535C49.4194 119.535 44.0762 115.923 43.8161 115.743C43.7627 115.709 43.7227 115.663 43.696 115.603C43.646 115.503 38.713 104.806 38.4128 95.4907C38.2728 91.2682 40.0238 88.0963 43.2157 86.8056C46.0874 85.6349 49.4594 86.3252 51.4106 88.4665C55.0428 92.4688 58.4548 99.8334 58.5648 103.906C58.6549 107.358 54.8726 108.358 53.6119 108.589L55.7131 115.693C55.7131 115.719 55.7165 115.746 55.7232 115.773C55.8499 117.467 55.4296 118.595 54.4624 119.155C54.0088 119.415 53.4751 119.542 52.8614 119.535ZM44.2763 115.232C46.3576 116.633 51.9509 119.825 54.1222 118.564C54.836 118.151 55.1428 117.247 55.0428 115.853L52.8414 108.409C52.8148 108.308 52.8314 108.215 52.8915 108.128C52.9515 108.042 53.0316 107.991 53.1316 107.978C53.3317 107.958 57.9745 107.408 57.8844 103.926C57.7744 100.053 54.3924 92.769 50.9003 88.9267C49.1392 86.9956 46.0874 86.3752 43.4759 87.4358C40.5641 88.6165 38.9632 91.5483 39.0933 95.4706C39.3734 104.206 43.8161 114.212 44.2763 115.232Z" fill="#050302"/>
<path d="M37.9826 101.164C47.5783 99.6433 42.4452 85.7048 42.4452 85.7048C42.4452 85.7048 33.7301 87.6061 37.9826 101.164Z" fill="#050302"/>
<path d="M42.6253 100.264C44.0262 102.245 43.9962 104.666 42.5653 105.687C41.1345 106.697 38.8331 105.907 37.4323 103.926C36.0314 101.945 36.0614 99.5131 37.4923 98.5025C38.9231 97.4919 41.2245 98.2824 42.6253 100.264Z" fill="#FEFEFE"/>
<path d="M71.1724 139.147C71.0023 139.147 70.8522 139.027 70.8322 138.846C69.5714 128.28 66.2494 123.667 66.2194 123.617C66.0993 123.467 66.1394 123.257 66.2894 123.137C66.4395 123.027 66.6496 123.057 66.7697 123.207C66.8998 123.397 70.2318 128 71.5126 138.766C71.5326 138.956 71.4025 139.127 71.2124 139.147C71.199 139.153 71.1857 139.153 71.1724 139.147Z" fill="#050302"/>
<path d="M11.2867 66.3134C11.1166 66.3134 10.9665 66.1832 10.9465 66.0131L10.106 58.9389C10.0927 58.8388 10.1194 58.7521 10.1861 58.6787C10.2528 58.5986 10.3361 58.5587 10.4362 58.5587H12.5074C12.6976 58.5587 12.8476 58.7087 12.8476 58.8988C12.8476 59.0889 12.6976 59.2391 12.5074 59.2391H10.8265L11.6269 65.923C11.6469 66.1131 11.5169 66.2833 11.3268 66.3033C11.3134 66.3033 11.3001 66.3067 11.2867 66.3134Z" fill="#050302"/>
<path d="M32.9996 289.186C32.5327 289.179 32.0991 289.082 31.6988 288.896C29.4375 287.785 28.657 283.713 27.7665 278.99C26.866 274.227 25.8453 268.834 23.1237 265.281C23.0137 265.131 23.0437 264.911 23.1838 264.801C23.3339 264.691 23.554 264.711 23.6641 264.861C26.4857 268.554 27.5263 274.027 28.4369 278.86C29.2974 283.402 30.0378 287.325 31.999 288.275C32.8062 288.669 33.8435 288.532 35.1109 287.865C35.271 287.785 35.4811 287.845 35.5711 288.015C35.6512 288.185 35.5912 288.385 35.4211 288.475C34.5272 288.949 33.72 289.186 32.9996 289.186Z" fill="#050302"/>
<path d="M36.0315 280.661C33.9802 280.661 31.949 279.65 31.8289 279.59C31.6688 279.5 31.5988 279.3 31.6888 279.13C31.7689 278.96 31.979 278.89 32.1391 278.98C32.1791 279 35.9114 280.861 38.0326 279.46C38.1927 279.35 38.4028 279.4 38.5029 279.55C38.613 279.71 38.5729 279.92 38.4128 280.02C37.7024 280.491 36.8619 280.661 36.0315 280.661Z" fill="#050302"/>
<path d="M36.952 277.489C34.6106 277.489 32.019 276.638 31.879 276.588C31.6989 276.528 31.5988 276.338 31.6588 276.158C31.7189 275.978 31.919 275.888 32.0991 275.938C32.1391 275.958 36.1615 277.279 38.5129 276.628C38.693 276.578 38.8831 276.678 38.9332 276.859C38.9832 277.039 38.8731 277.229 38.693 277.289C38.1594 277.429 37.579 277.496 36.952 277.489Z" fill="#050302"/>
<path d="M38.8531 274.457C38.8464 274.457 38.8364 274.454 38.8231 274.447L31.949 273.697C31.7589 273.677 31.6288 273.507 31.6488 273.316C31.6689 273.126 31.839 272.996 32.0291 273.016L38.8931 273.777C39.0833 273.797 39.2133 273.967 39.1933 274.147C39.1733 274.327 39.0332 274.457 38.8531 274.457Z" fill="#050302"/>
<path d="M39.0131 271.535C38.9998 271.535 38.9831 271.535 38.9631 271.535L31.9389 270.565C31.7588 270.535 31.6288 270.365 31.6488 270.175C31.6788 269.995 31.8489 269.864 32.039 269.884L39.0632 270.855C39.2433 270.885 39.3734 271.055 39.3533 271.245C39.3333 271.415 39.1832 271.535 39.0131 271.535Z" fill="#050302"/>
<path d="M31.0084 231.351C30.8683 231.351 30.7382 231.261 30.6882 231.121C29.5475 227.739 29.6076 222.266 30.8783 214.842C31.8189 209.338 33.1097 204.756 33.1197 204.716C33.1697 204.536 33.3598 204.425 33.5399 204.475C33.72 204.536 33.8301 204.716 33.7801 204.896C33.73 205.086 28.697 223.076 31.3286 230.901C31.3886 231.081 31.2986 231.271 31.1185 231.331C31.0851 231.345 31.0484 231.351 31.0084 231.351Z" fill="#050302"/>
<path d="M34.5305 226.929C34.3504 226.929 34.2003 226.789 34.1903 226.609L33.8101 220.405C33.7901 220.225 33.9302 220.065 34.1203 220.045C34.3104 220.035 34.4705 220.185 34.4805 220.365L34.8707 226.569C34.8807 226.759 34.7406 226.919 34.5505 226.929C34.5439 226.929 34.5372 226.929 34.5305 226.929Z" fill="#050302"/>
<path d="M36.3316 224.107C36.1515 224.107 36.0014 223.967 35.9914 223.787L35.6712 218.394C35.6612 218.204 35.8013 218.043 35.9914 218.033C36.1815 218.023 36.3416 218.164 36.3516 218.354L36.6718 223.747C36.6818 223.927 36.5417 224.097 36.3516 224.107C36.3449 224.107 36.3383 224.107 36.3316 224.107Z" fill="#050302"/>
<path d="M40.4341 159.089C40.4341 159.089 57.144 146.311 72.4531 149.613L40.4341 159.089Z" fill="#050302"/>
<path d="M122.853 51.2443H79.9376C73.5538 51.2443 68.3607 46.0612 68.3607 39.6674V26.9799C68.3607 20.5961 73.5538 15.413 79.9376 15.413H122.853C129.247 15.413 134.43 20.5961 134.43 26.9799V39.6674C134.43 46.0612 129.247 51.2443 122.853 51.2443Z" fill="#7BAED8"/>
<path d="M122.853 48.6229H79.9376C73.5538 48.6229 68.3607 43.4498 68.3607 37.056V24.3685C68.3607 17.9747 73.5538 12.7915 79.9376 12.7915H122.853C129.247 12.7915 134.43 17.9747 134.43 24.3685V37.056C134.43 43.4498 129.247 48.6229 122.853 48.6229Z" fill="#FEFEFE"/>
<path fill-rule="evenodd" clip-rule="evenodd" d="M129.197 48.9129H73.6038C70.562 48.9129 68.0805 46.4314 68.0805 43.3896V18.0347C68.0805 14.9828 70.562 12.5113 73.6038 12.5113H129.197C132.239 12.5113 134.71 14.9828 134.71 18.0347V43.3896C134.71 46.4314 132.239 48.9129 129.197 48.9129ZM73.6038 13.0717C70.8722 13.0717 68.6508 15.293 68.6508 18.0347V43.3896C68.6508 46.1212 70.8722 48.3427 73.6038 48.3427H129.197C131.928 48.3427 134.15 46.1212 134.15 43.3896V18.0347C134.15 15.293 131.928 13.0717 129.197 13.0717H73.6038Z" fill="#050302"/>
<path fill-rule="evenodd" clip-rule="evenodd" d="M129.477 46.2414H73.3236C71.7227 46.2414 70.4219 44.9407 70.4219 43.3397V18.0747C70.4219 16.4838 71.7227 15.1829 73.3236 15.1829H129.477C131.068 15.1829 132.369 16.4838 132.369 18.0747V43.3397C132.369 44.9407 131.068 46.2414 129.477 46.2414ZM73.3236 15.7432C72.0328 15.7432 70.9822 16.794 70.9822 18.0747V43.3397C70.9822 44.6305 72.0328 45.681 73.3236 45.681H129.477C130.758 45.681 131.808 44.6305 131.808 43.3397V18.0747C131.808 16.794 130.758 15.7432 129.477 15.7432H73.3236Z" fill="#EC784D"/>
<path d="M82.6992 38.4968H79.2271L81.1883 27.2501L77.6262 28.2607L78.1065 25.449L84.8805 23.1876L85.2707 23.1776L82.6992 38.4968Z" fill="#EC784D"/>
<path fill-rule="evenodd" clip-rule="evenodd" d="M90.4338 38.7069C89.5666 38.6869 88.8095 38.4836 88.1624 38.0967C87.5154 37.7098 87.0151 37.1393 86.6615 36.3855C86.3147 35.6317 86.1246 34.7747 86.0912 33.8141C86.0712 33.2938 86.0912 32.7701 86.1513 32.2431L86.5615 29.5716C86.8817 27.4237 87.5688 25.7792 88.6227 24.6385C89.6834 23.4978 91.0342 22.9476 92.6751 22.9876C94.0093 23.0143 95.0532 23.4613 95.807 24.3285C96.5608 25.1957 96.9643 26.3795 97.0177 27.8804C97.0311 28.4007 97.0077 28.9245 96.9477 29.4514L96.5174 32.173C96.1839 34.3476 95.4901 35.9921 94.4362 37.1061C93.3822 38.2135 92.0481 38.747 90.4338 38.7069ZM93.5557 28.9712C93.6224 28.4842 93.659 28.0539 93.6657 27.6804C93.6657 26.3996 93.2588 25.7359 92.445 25.6892C91.1976 25.6292 90.4238 26.6997 90.1236 28.9011L89.5633 32.6833C89.4966 33.2637 89.4632 33.6973 89.4632 33.9842C89.4232 35.2783 89.8268 35.9487 90.6739 35.9954C91.9347 36.0621 92.7118 34.9647 93.0053 32.7034L93.5557 28.9712Z" fill="#EC784D"/>
<path fill-rule="evenodd" clip-rule="evenodd" d="M102.901 38.7069C102.034 38.6869 101.277 38.4836 100.63 38.0967C99.9828 37.7098 99.4825 37.1393 99.129 36.3855C98.7754 35.6317 98.5853 34.7747 98.5586 33.8141C98.5386 33.2938 98.562 32.7701 98.6287 32.2431L99.0289 29.5716C99.3491 27.4237 100.036 25.7792 101.09 24.6385C102.151 23.4978 103.502 22.9476 105.143 22.9876C106.477 23.0143 107.521 23.4613 108.274 24.3285C109.028 25.1957 109.432 26.3795 109.485 27.8804C109.498 28.4007 109.475 28.9245 109.415 29.4514L108.995 32.173C108.655 34.3476 107.958 35.9921 106.904 37.1061C105.85 38.2135 104.516 38.747 102.901 38.7069ZM106.023 28.9712C106.09 28.4842 106.126 28.0539 106.133 27.6804C106.133 26.3996 105.726 25.7359 104.912 25.6892C103.665 25.6292 102.891 26.6997 102.591 28.9011L102.031 32.6833C101.957 33.2637 101.924 33.6973 101.931 33.9842C101.891 35.2783 102.291 35.9487 103.131 35.9954C104.405 36.0621 105.189 34.9647 105.483 32.7034L106.023 28.9712Z" fill="#EC784D"/>
<path fill-rule="evenodd" clip-rule="evenodd" d="M115.499 22.9675C116.446 22.9875 117.2 23.2845 117.76 23.8581C118.32 24.4318 118.571 25.192 118.511 26.1393L118.461 26.8399C118.387 27.8338 118.02 28.6275 117.36 29.2212C116.699 29.8149 115.866 30.1052 114.858 30.0918C113.924 30.0785 113.174 29.7815 112.607 29.2012C112.04 28.6208 111.777 27.8704 111.817 26.9498L111.877 26.1593C111.963 25.1987 112.34 24.4251 113.007 23.8381C113.674 23.2444 114.505 22.9541 115.499 22.9675ZM114.098 37.3361L112.487 36.4154L121.712 24.5885L123.323 25.499L114.098 37.3361ZM114.038 26.9698C114.004 27.3367 114.065 27.6337 114.218 27.8605C114.365 28.074 114.585 28.1805 114.878 28.1805C115.199 28.1939 115.479 28.0907 115.719 27.8705C115.959 27.6437 116.116 27.3334 116.189 26.9398L116.299 26.1195C116.373 25.319 116.096 24.9021 115.469 24.8687C115.155 24.8554 114.872 24.9686 114.618 25.2088C114.365 25.4489 114.208 25.7557 114.148 26.1293L114.038 26.9698ZM121.052 31.5827C121.999 31.6027 122.756 31.8994 123.323 32.4731C123.89 33.0535 124.147 33.8139 124.094 34.7545L124.024 35.565C123.93 36.5523 123.547 37.3326 122.873 37.9063C122.206 38.48 121.389 38.7535 120.422 38.7268C119.501 38.7135 118.754 38.4201 118.18 37.8464C117.607 37.2794 117.34 36.5189 117.38 35.565L117.45 34.7445C117.503 34.1108 117.693 33.5505 118.02 33.0636C118.347 32.5766 118.771 32.2096 119.291 31.9628C119.811 31.7027 120.398 31.576 121.052 31.5827ZM119.601 35.6051C119.588 35.9386 119.655 36.2187 119.801 36.4455C119.948 36.6723 120.165 36.7924 120.452 36.8058C121.212 36.8325 121.656 36.3721 121.782 35.4248L121.883 34.7345C121.916 34.3743 121.863 34.0842 121.722 33.8641C121.582 33.644 121.356 33.5271 121.042 33.5138C120.708 33.5004 120.418 33.6173 120.171 33.8641C119.918 34.1109 119.761 34.4076 119.701 34.7545L119.601 35.6051Z" fill="#EC784D"/>
<path fill-rule="evenodd" clip-rule="evenodd" d="M83.7698 37.8465H80.2978C80.2511 37.8465 80.2144 37.8298 80.1877 37.7964C80.161 37.763 80.151 37.7263 80.1577 37.6862L82.0788 26.6496L78.7268 27.6004C78.6735 27.6137 78.6301 27.6037 78.5968 27.5704C78.5567 27.537 78.5401 27.4969 78.5467 27.4502L79.037 24.6384C79.0437 24.5851 79.0737 24.5485 79.1271 24.5285L85.9011 22.2671C85.9145 22.2605 85.9278 22.2571 85.9411 22.2571L86.3314 22.2471C86.3714 22.2471 86.4047 22.2638 86.4314 22.2972C86.4648 22.3305 86.4781 22.3704 86.4714 22.4171L83.9099 37.7363C83.8899 37.8097 83.8432 37.8465 83.7698 37.8465ZM80.4679 37.5663H83.6498L86.1612 22.5373H85.9711L79.2972 24.7686L78.8669 27.2701L82.2089 26.3196C82.2623 26.3063 82.309 26.3163 82.349 26.3497C82.3823 26.3897 82.3957 26.4329 82.389 26.4796L80.4679 37.5663Z" fill="#050302"/>
<path fill-rule="evenodd" clip-rule="evenodd" d="M91.6445 38.0565C91.5978 38.0565 91.5478 38.0565 91.4945 38.0565C90.6006 38.0365 89.8201 37.8262 89.1531 37.426C88.4793 37.0191 87.9623 36.4287 87.6021 35.6549C87.2419 34.8811 87.0485 34.0041 87.0218 33.0235C86.9951 32.5032 87.0151 31.9728 87.0818 31.4324L87.4821 28.7609C87.8089 26.5863 88.5093 24.9153 89.5833 23.7479C90.6706 22.5872 92.0581 22.0203 93.7458 22.047C95.1133 22.0803 96.1906 22.5472 96.9777 23.4477C97.7448 24.3416 98.1584 25.5524 98.2185 27.08C98.2318 27.6136 98.2084 28.1438 98.1484 28.6708L97.7281 31.4024C97.3813 33.6104 96.6742 35.278 95.6069 36.4054C94.5529 37.506 93.2322 38.0565 91.6445 38.0565ZM91.5044 37.7763C93.072 37.8096 94.3695 37.2893 95.3968 36.2153C96.4307 35.128 97.1144 33.5072 97.448 31.3526L97.8682 28.6307C97.9283 28.1171 97.9516 27.6036 97.9383 27.09C97.8849 25.6291 97.4913 24.4749 96.7576 23.6277C96.0305 22.7939 95.0232 22.3605 93.7358 22.3272C92.1415 22.3005 90.8274 22.8407 89.7934 23.948C88.7595 25.062 88.0824 26.6797 87.7622 28.801L87.362 31.4725C87.2953 31.9861 87.2753 32.4998 87.302 33.0135C87.3286 33.954 87.5121 34.7945 87.8523 35.535C88.1925 36.2554 88.6728 36.8056 89.2931 37.1859C89.9202 37.5594 90.6573 37.7563 91.5044 37.7763ZM91.8347 35.3449C91.8013 35.3449 91.7646 35.3449 91.7246 35.3449C90.7907 35.2916 90.3438 34.571 90.3838 33.1835C90.3838 32.8966 90.4171 32.4599 90.4838 31.8729L91.0442 28.0906C91.3577 25.8092 92.1815 24.6985 93.5156 24.7585C94.4162 24.8119 94.8665 25.5222 94.8665 26.8897C94.8598 27.2699 94.8264 27.7069 94.7664 28.2005L94.2161 31.9327C93.9159 34.2074 93.1221 35.3449 91.8347 35.3449ZM93.4056 25.0387C92.2983 25.0454 91.6045 26.0759 91.3243 28.1304L90.764 31.9127C90.6973 32.4864 90.6639 32.91 90.6639 33.1835C90.6239 34.3975 90.9808 35.0247 91.7346 35.0647C92.9153 35.1181 93.6491 34.0606 93.9359 31.8927L94.4862 28.1605C94.5463 27.6802 94.5796 27.2566 94.5863 26.8897C94.593 25.689 94.2327 25.0754 93.5056 25.0488C93.4723 25.0421 93.439 25.0387 93.4056 25.0387Z" fill="#050302"/>
<path fill-rule="evenodd" clip-rule="evenodd" d="M104.112 38.0565C104.065 38.0565 104.015 38.0565 103.962 38.0565C103.068 38.0365 102.288 37.8262 101.62 37.426C100.947 37.0191 100.43 36.4287 100.07 35.6549C99.7093 34.8811 99.5159 34.0041 99.4892 33.0235C99.4625 32.5032 99.4825 31.9728 99.5492 31.4324L99.9494 28.7609C100.276 26.5863 100.98 24.9153 102.061 23.7479C103.148 22.5872 104.532 22.0203 106.213 22.047C107.587 22.0803 108.665 22.5472 109.445 23.4477C110.219 24.3416 110.632 25.5524 110.686 27.08C110.699 27.6136 110.676 28.1438 110.616 28.6708L110.196 31.4024C109.855 33.6104 109.148 35.278 108.074 36.4054C107.02 37.506 105.7 38.0565 104.112 38.0565ZM103.972 37.7763C105.539 37.8096 106.837 37.2893 107.864 36.2153C108.898 35.128 109.582 33.5072 109.915 31.3526L110.336 28.6307C110.396 28.1171 110.419 27.6036 110.406 27.09C110.352 25.6291 109.959 24.4749 109.225 23.6277C108.498 22.7939 107.491 22.3605 106.203 22.3272C104.609 22.3005 103.295 22.8407 102.261 23.948C101.227 25.062 100.55 26.6797 100.23 28.801L99.8294 31.4725C99.7693 31.9861 99.7493 32.4998 99.7693 33.0135C99.796 33.954 99.9795 34.7945 100.32 35.535C100.66 36.2554 101.14 36.8056 101.761 37.1859C102.388 37.5594 103.125 37.7563 103.972 37.7763ZM104.302 35.3449C104.269 35.3449 104.232 35.3449 104.192 35.3449C103.265 35.2916 102.818 34.571 102.851 33.1835C102.851 32.8966 102.885 32.4599 102.951 31.8729L103.512 28.0906C103.825 25.8092 104.649 24.6985 105.983 24.7585C106.884 24.8119 107.334 25.5222 107.334 26.8897C107.327 27.2699 107.294 27.7069 107.234 28.2005L106.683 31.9327C106.383 34.2074 105.589 35.3449 104.302 35.3449ZM105.873 25.0387C104.772 25.0454 104.079 26.0759 103.792 28.1304L103.231 31.9127C103.165 32.4864 103.131 32.91 103.131 33.1835C103.091 34.3975 103.448 35.0247 104.202 35.0647C105.383 35.1181 106.116 34.0606 106.403 31.8927L106.954 28.1605C107.014 27.6802 107.047 27.2566 107.054 26.8897C107.06 25.689 106.7 25.0754 105.973 25.0488C105.94 25.0421 105.906 25.0387 105.873 25.0387Z" fill="#050302"/>
<path fill-rule="evenodd" clip-rule="evenodd" d="M121.622 38.0765C121.582 38.0765 121.539 38.0732 121.492 38.0665C120.538 38.0532 119.758 37.7495 119.151 37.1558C118.551 36.5488 118.27 35.7484 118.31 34.7545L118.38 33.9339C118.434 33.2735 118.631 32.6932 118.971 32.1929C119.318 31.6859 119.761 31.2991 120.302 31.0323C120.842 30.7722 121.449 30.6453 122.123 30.652C123.11 30.6653 123.9 30.9757 124.494 31.5827C125.094 32.1897 125.365 32.9834 125.305 33.964L125.245 34.7745C125.138 35.8018 124.738 36.6156 124.044 37.2159C123.377 37.7896 122.57 38.0765 121.622 38.0765ZM122.073 30.9322C121.466 30.9322 120.915 31.049 120.422 31.2825C119.928 31.5226 119.524 31.8762 119.211 32.3431C118.897 32.8101 118.714 33.3469 118.661 33.954L118.601 34.7745C118.561 35.6817 118.811 36.4088 119.351 36.9558C119.898 37.4961 120.612 37.773 121.492 37.7863C122.426 37.813 123.213 37.5528 123.854 37.0058C124.494 36.4522 124.861 35.7017 124.954 34.7545L125.024 33.944C125.078 33.0501 124.834 32.3264 124.294 31.7727C123.754 31.2257 123.03 30.9455 122.123 30.9322C122.103 30.9322 122.086 30.9322 122.073 30.9322ZM115.169 36.6856C115.142 36.6856 115.118 36.6789 115.098 36.6655L113.478 35.7551C113.437 35.7284 113.414 35.695 113.407 35.6549C113.401 35.6149 113.411 35.5784 113.438 35.545L122.663 23.7079C122.716 23.6545 122.776 23.6445 122.843 23.6778L124.454 24.5785C124.494 24.5985 124.517 24.6317 124.524 24.6784C124.531 24.7185 124.521 24.7553 124.494 24.7886L115.279 36.6257C115.245 36.6657 115.209 36.6856 115.169 36.6856ZM113.758 35.5851L115.129 36.3555L124.174 24.7485L122.813 23.9781L113.758 35.5851ZM121.582 36.1552C121.562 36.1552 121.542 36.1552 121.522 36.1552C121.182 36.1352 120.925 35.9919 120.752 35.725C120.592 35.4716 120.518 35.1648 120.532 34.8046C120.532 34.7979 120.532 34.7946 120.532 34.7946L120.642 33.944C120.702 33.5637 120.869 33.2369 121.142 32.9634C121.422 32.6966 121.749 32.5699 122.123 32.5833C122.483 32.5966 122.746 32.7366 122.913 33.0035C123.073 33.2503 123.133 33.5671 123.093 33.954L123.003 34.6543C122.823 35.8751 122.153 36.1552 121.582 36.1552ZM120.812 34.8246C120.799 35.1248 120.859 35.3749 120.992 35.575C121.112 35.7618 121.292 35.8586 121.532 35.8653C122.206 35.8986 122.603 35.4817 122.723 34.6145L122.813 33.9239C122.846 33.6037 122.8 33.3469 122.673 33.1534C122.56 32.9667 122.369 32.8701 122.103 32.8635C121.816 32.8501 121.562 32.9533 121.342 33.1735C121.109 33.3936 120.969 33.6638 120.922 33.984L120.812 34.8246ZM115.989 29.4513C115.962 29.4513 115.939 29.4513 115.919 29.4513C114.945 29.4313 114.161 29.1212 113.568 28.5208C112.974 27.9138 112.697 27.1265 112.737 26.1593L112.797 25.369C112.891 24.3684 113.281 23.5611 113.968 22.9474C114.668 22.3337 115.532 22.0336 116.559 22.047C117.54 22.067 118.327 22.3771 118.921 22.9775C119.508 23.5778 119.771 24.3718 119.711 25.359L119.661 26.0694C119.581 27.1033 119.198 27.9271 118.511 28.5408C117.843 29.1479 117.003 29.4513 115.989 29.4513ZM116.489 22.3272C115.562 22.3272 114.785 22.6038 114.158 23.1575C113.524 23.7178 113.164 24.4616 113.077 25.3888L113.017 26.1693C112.977 27.0498 113.227 27.7671 113.768 28.3207C114.308 28.8744 115.025 29.1544 115.919 29.1611C116.886 29.1744 117.687 28.9011 118.32 28.3408C118.954 27.7671 119.308 27.0033 119.381 26.0494L119.431 25.339C119.484 24.4384 119.248 23.7145 118.721 23.1675C118.18 22.6205 117.46 22.3405 116.559 22.3272C116.533 22.3272 116.509 22.3272 116.489 22.3272ZM115.999 27.5402C115.979 27.5402 115.959 27.5402 115.939 27.5402C115.605 27.5402 115.345 27.41 115.159 27.1499C114.992 26.9031 114.928 26.5762 114.968 26.1693L115.068 25.339C115.142 24.9254 115.315 24.5885 115.589 24.3284C115.869 24.0615 116.186 23.9347 116.539 23.948C116.853 23.9614 117.093 24.0648 117.26 24.2583C117.467 24.4984 117.55 24.8654 117.51 25.359L117.39 26.1793C117.317 26.6062 117.146 26.9431 116.88 27.1899C116.626 27.4234 116.333 27.5402 115.999 27.5402ZM115.249 26.1994C115.215 26.5329 115.265 26.7964 115.399 26.9899C115.519 27.17 115.702 27.26 115.949 27.26C116.229 27.2734 116.476 27.1833 116.689 26.9899C116.903 26.7831 117.043 26.4995 117.11 26.1393L117.23 25.329C117.263 24.9154 117.203 24.6184 117.05 24.4383C116.936 24.3116 116.763 24.2416 116.529 24.2282C116.256 24.2215 116.006 24.3217 115.779 24.5284C115.552 24.7486 115.409 25.0319 115.349 25.3788L115.249 26.1994Z" fill="#050302"/>
<path fill-rule="evenodd" clip-rule="evenodd" d="M210.945 59.4492H223.243C224.67 59.4492 226.108 59.5526 227.555 59.7594C228.996 59.9595 230.294 60.3631 231.448 60.9701C232.595 61.5771 233.526 62.4243 234.239 63.5116C234.953 64.599 235.31 66.0432 235.31 67.8443C235.31 69.7054 234.79 71.2495 233.749 72.4769C232.708 73.7043 231.334 74.5817 229.627 75.1086V75.1985C230.714 75.3586 231.701 75.6623 232.588 76.1092C233.469 76.5628 234.229 77.1398 234.87 77.8402C235.503 78.534 235.994 79.3477 236.341 80.2816C236.681 81.2155 236.851 82.2094 236.851 83.2634C236.851 85.0044 236.477 86.4587 235.73 87.6261C234.983 88.7868 234.019 89.7238 232.838 90.4376C231.658 91.1513 230.33 91.665 228.856 91.9785C227.382 92.2854 225.914 92.4421 224.453 92.4488H210.945V59.4492ZM218.21 72.6372H223.473C224.033 72.6372 224.587 72.5736 225.134 72.4469C225.674 72.3201 226.161 72.1168 226.595 71.8367C227.028 71.5632 227.379 71.1895 227.645 70.7159C227.912 70.2556 228.046 69.6987 228.046 69.045C228.046 68.3646 227.899 67.7976 227.605 67.344C227.305 66.8971 226.922 66.5468 226.455 66.2933C225.988 66.0465 225.461 65.8697 224.874 65.763C224.28 65.6496 223.706 65.593 223.153 65.593H218.21V72.6372ZM218.21 86.2952H224.734C225.294 86.2952 225.861 86.2319 226.435 86.1052C227.008 85.9784 227.529 85.7615 227.996 85.4546C228.463 85.1411 228.843 84.7376 229.136 84.2439C229.43 83.7436 229.577 83.1366 229.577 82.4228C229.577 81.649 229.383 81.0221 228.996 80.5418C228.609 80.0548 228.119 79.6879 227.525 79.441C226.938 79.1942 226.301 79.0241 225.614 78.9307C224.934 78.8373 224.3 78.7908 223.713 78.7908H218.21V86.2952Z" fill="#4669B1"/>
<path fill-rule="evenodd" clip-rule="evenodd" d="M187.011 108.458H199.779C201.46 108.458 203.054 108.622 204.562 108.949C206.069 109.275 207.39 109.819 208.524 110.58C209.651 111.34 210.552 112.364 211.226 113.652C211.893 114.946 212.226 116.556 212.226 118.484C212.226 120.812 211.619 122.79 210.405 124.418C209.191 126.052 207.42 127.086 205.092 127.52L213.487 141.448H204.772L197.868 128.26H194.286V141.448H187.011V108.458ZM194.286 122.117H198.568C199.222 122.117 199.912 122.093 200.639 122.046C201.373 122 202.033 121.86 202.62 121.626C203.214 121.393 203.704 121.029 204.091 120.536C204.478 120.035 204.672 119.335 204.672 118.434C204.672 117.6 204.502 116.933 204.161 116.433C203.821 115.939 203.388 115.559 202.861 115.292C202.327 115.032 201.72 114.852 201.04 114.752C200.359 114.659 199.692 114.612 199.038 114.612H194.286V122.117Z" fill="#4669B1"/>
<path fill-rule="evenodd" clip-rule="evenodd" d="M191.514 108.458H204.281C205.962 108.458 207.553 108.622 209.054 108.949C210.562 109.275 211.883 109.819 213.017 110.58C214.151 111.34 215.051 112.364 215.718 113.652C216.385 114.946 216.719 116.556 216.719 118.484C216.719 120.812 216.115 122.79 214.908 124.418C213.694 126.052 211.923 127.086 209.595 127.52L217.98 141.448H209.264L202.37 128.26H198.788V141.448H191.514V108.458ZM198.788 122.117H203.071C203.724 122.117 204.415 122.093 205.142 122.046C205.876 122 206.536 121.86 207.123 121.626C207.717 121.393 208.207 121.029 208.594 120.536C208.981 120.035 209.174 119.335 209.174 118.434C209.174 117.6 209.004 116.933 208.664 116.433C208.317 115.939 207.88 115.559 207.353 115.292C206.826 115.032 206.223 114.852 205.542 114.752C204.855 114.659 204.185 114.612 203.531 114.612H198.788V122.117Z" fill="#8BADDA"/>
<path fill-rule="evenodd" clip-rule="evenodd" d="M386.59 261.779H397.486C400.128 261.779 402.639 262.076 405.021 262.67C407.396 263.257 409.467 264.211 411.235 265.532C413.009 266.852 414.416 268.57 415.457 270.685C416.498 272.799 417.018 275.361 417.018 278.369C417.018 281.044 416.514 283.399 415.507 285.434C414.493 287.468 413.132 289.176 411.425 290.557C409.717 291.937 407.742 292.988 405.501 293.709C403.266 294.416 400.922 294.769 398.467 294.769H386.59V261.779ZM393.854 288.065H397.626C399.307 288.065 400.868 287.895 402.309 287.555C403.757 287.215 405.008 286.648 406.061 285.854C407.122 285.06 407.953 284.02 408.553 282.732C409.16 281.438 409.463 279.86 409.463 277.999C409.463 276.385 409.16 274.981 408.553 273.787C407.953 272.586 407.139 271.599 406.112 270.825C405.084 270.051 403.88 269.471 402.499 269.084C401.119 268.69 399.668 268.494 398.147 268.494H393.854V288.065Z" fill="#4669B1"/>
<path fill-rule="evenodd" clip-rule="evenodd" d="M214.838 59.4492H227.145C228.573 59.4492 230.007 59.5526 231.448 59.7594C232.895 59.9595 234.193 60.3631 235.34 60.9701C236.494 61.5771 237.428 62.4243 238.142 63.5116C238.855 64.599 239.212 66.0432 239.212 67.8443C239.212 69.7054 238.692 71.2495 237.651 72.4769C236.611 73.7043 235.237 74.5817 233.529 75.1086V75.1985C234.616 75.3586 235.6 75.6623 236.481 76.1092C237.368 76.5628 238.128 77.1398 238.762 77.8402C239.402 78.534 239.893 79.3477 240.233 80.2816C240.573 81.2155 240.743 82.2094 240.743 83.2634C240.743 85.0044 240.373 86.4587 239.632 87.6261C238.885 88.7868 237.921 89.7238 236.741 90.4376C235.56 91.1513 234.233 91.665 232.758 91.9785C231.284 92.2854 229.817 92.4421 228.356 92.4488H214.838V59.4492ZM222.112 72.6372H227.375C227.936 72.6372 228.486 72.5736 229.026 72.4469C229.573 72.3201 230.063 72.1168 230.497 71.8367C230.931 71.5632 231.281 71.1895 231.548 70.7159C231.808 70.2556 231.938 69.6987 231.938 69.045C231.938 68.3646 231.791 67.7976 231.498 67.344C231.204 66.8971 230.824 66.5468 230.357 66.2933C229.89 66.0465 229.363 65.8697 228.776 65.763C228.182 65.6496 227.605 65.593 227.045 65.593H222.112V72.6372ZM222.112 86.2952H228.636C229.19 86.2952 229.757 86.2319 230.337 86.1052C230.911 85.9784 231.431 85.7615 231.898 85.4546C232.365 85.1411 232.745 84.7376 233.039 84.2439C233.332 83.7436 233.479 83.1366 233.479 82.4228C233.479 81.649 233.285 81.0221 232.899 80.5418C232.505 80.0548 232.015 79.6879 231.428 79.441C230.834 79.1942 230.197 79.0241 229.516 78.9307C228.836 78.8373 228.199 78.7908 227.605 78.7908H222.112V86.2952Z" fill="#8BADDA"/>
<path fill-rule="evenodd" clip-rule="evenodd" d="M391.473 261.779H402.379C405.021 261.779 407.529 262.076 409.904 262.67C412.285 263.257 414.36 264.211 416.127 265.532C417.895 266.852 419.299 268.57 420.34 270.685C421.381 272.799 421.904 275.361 421.911 278.369C421.911 281.044 421.404 283.399 420.39 285.434C419.383 287.468 418.022 289.176 416.308 290.557C414.607 291.937 412.635 292.988 410.394 293.709C408.159 294.416 405.815 294.769 403.36 294.769H391.473V261.779ZM398.747 288.065H402.519C404.2 288.065 405.761 287.895 407.202 287.555C408.65 287.215 409.9 286.648 410.954 285.854C412.008 285.06 412.839 284.02 413.446 282.732C414.053 281.438 414.356 279.86 414.356 277.999C414.356 276.385 414.053 274.981 413.446 273.787C412.839 272.586 412.025 271.599 411.004 270.825C409.977 270.051 408.773 269.471 407.392 269.084C406.005 268.69 404.551 268.494 403.03 268.494H398.747V288.065Z" fill="#8BADDA"/>
</svg>
