<svg width="322" height="387" viewBox="0 0 322 387" fill="none" xmlns="http://www.w3.org/2000/svg">
<path d="M51.5671 386.911C51.5671 341.019 51.5671 295.126 51.5671 249.233C94.932 249.233 138.297 249.233 181.662 249.233C181.662 295.126 181.662 341.019 181.662 386.911C138.297 386.911 94.932 386.911 51.5671 386.911ZM181.662 386.911C181.662 341.019 181.662 295.126 181.662 249.233C225.787 249.233 269.912 249.233 314.037 249.233C314.037 295.126 314.037 341.019 314.037 386.911C269.912 386.911 225.787 386.911 181.662 386.911ZM51.5671 249.233C51.5671 204.074 51.5671 158.914 51.5671 113.755C94.932 113.755 138.297 113.755 181.662 113.755C181.662 158.914 181.662 204.074 181.662 249.233C138.297 249.233 94.932 249.233 51.5671 249.233ZM181.662 249.233C181.662 204.074 181.662 158.914 181.662 113.755C225.787 113.755 269.912 113.755 314.037 113.755C314.037 158.914 314.037 204.074 314.037 249.233C269.912 249.233 225.787 249.233 181.662 249.233Z" fill="url(#paint0_linear_42_43948)" style="mix-blend-mode:multiply"/>
<mask id="mask0_42_43948" style="mask-type:luminance" maskUnits="userSpaceOnUse" x="100" y="22" width="169" height="323">
<path d="M248.16 47.4471H229.189V28.0261C229.189 25.0644 226.787 22.6629 223.836 22.6629H145.271C142.309 22.6629 139.918 25.0644 139.918 28.0261V47.4471H120.947C109.78 47.4471 100.725 56.5025 100.725 67.6689V324.006C100.725 335.172 109.78 344.217 120.947 344.217H248.16C259.326 344.217 268.381 335.172 268.381 324.006V67.6689C268.381 56.5025 259.326 47.4471 248.16 47.4471Z" fill="white"/>
</mask>
<g mask="url(#mask0_42_43948)">
<g opacity="0.7">
<g style="mix-blend-mode:color-burn">
<path d="M209.908 155.479C209.508 154.178 204.715 138.149 203.604 116.697C202.493 95.2447 205.075 68.3891 219.433 45.4459C233.791 22.5028 256.825 8.4449 276.606 0.0701085C296.377 -8.31469 312.897 -11.0063 314.247 -11.2164L323.963 -12.7273L326.845 -3.32197C327.245 -2.03123 332.048 14.008 333.148 35.4602C334.259 56.9125 331.677 83.7679 317.319 106.711C302.961 129.654 279.928 143.712 260.156 152.087C240.375 160.462 223.856 163.163 222.515 163.374L212.789 164.884L209.908 155.479Z" fill="#FEFEFE"/>
<path d="M276.966 0.680321C296.187 -7.45434 312.286 -10.1457 313.927 -10.4259C314.188 -10.4859 323.463 -11.9368 323.463 -11.9368C323.463 -11.9368 326.224 -2.92177 326.304 -2.60159C326.705 -1.17077 330.137 10.556 331.788 27.0155C332.074 29.8504 332.298 32.8089 332.458 35.8907C333.449 56.0422 331.157 80.8962 318.86 102.719C318.14 103.999 317.383 105.274 316.589 106.541C302.291 129.244 279.428 143.162 259.796 151.467C240.575 159.602 224.476 162.293 222.835 162.583C222.565 162.643 213.29 164.084 213.29 164.084C213.29 164.084 210.528 155.079 210.458 154.749C210.048 153.328 206.616 141.601 204.965 125.142C204.678 122.307 204.458 119.345 204.305 116.257C203.304 96.115 205.605 71.2607 217.892 49.4382C218.619 48.1575 219.38 46.8836 220.174 45.6162C234.462 22.9232 257.335 8.99509 276.966 0.690337V0.680321Z" fill="url(#paint1_linear_42_43948)"/>
<path d="M277.326 1.30079C295.987 -6.58372 311.666 -9.27519 313.607 -9.6354C314.137 -9.76547 322.962 -11.1363 322.962 -11.1363C322.962 -11.1363 325.604 -2.52132 325.754 -1.87094C326.214 -0.119942 329.536 11.4365 331.117 27.5158C331.397 30.3307 331.611 33.2691 331.757 36.3309C332.698 56.3623 330.357 80.9964 318.12 102.579C317.399 103.853 316.642 105.117 315.848 106.371C301.62 128.824 278.917 142.622 259.436 150.846C240.765 158.741 225.096 161.432 223.145 161.793C222.615 161.913 213.79 163.293 213.79 163.293C213.79 163.293 211.148 154.679 211.008 154.028C210.538 152.277 207.226 140.721 205.635 124.641C205.355 121.826 205.142 118.888 204.995 115.826C204.054 95.7949 206.396 71.1608 218.643 49.5784C219.363 48.3044 220.117 47.0403 220.904 45.7862C235.132 23.3334 257.835 9.53551 277.326 1.30079Z" fill="url(#paint2_linear_42_43948)"/>
<path d="M277.687 1.92102C295.797 -5.72336 311.046 -8.41492 313.287 -8.85517C314.087 -9.03527 322.472 -10.346 322.472 -10.346C322.472 -10.346 324.994 -2.12111 325.204 -1.14055C325.734 0.920634 328.926 12.3171 330.447 28.0261C330.714 30.821 330.917 33.736 331.057 36.7711C331.958 56.6825 329.556 81.0866 317.379 102.449C316.659 103.71 315.902 104.957 315.108 106.191C300.95 128.414 278.417 142.071 259.066 150.226C240.966 157.881 225.717 160.572 223.465 161.002C222.665 161.192 214.29 162.493 214.29 162.493C214.29 162.493 211.769 154.278 211.549 153.298C211.018 151.237 207.826 139.84 206.306 124.131C206.039 121.336 205.835 118.421 205.695 115.386C204.805 95.4747 207.196 71.0606 219.383 49.7084C220.104 48.4477 220.857 47.2003 221.644 45.9663C235.803 23.7435 258.346 10.0857 277.687 1.92102Z" fill="url(#paint3_linear_42_43948)"/>
<path d="M278.047 2.54149C295.597 -4.86275 310.425 -7.54438 312.967 -8.06468C314.037 -8.31482 321.972 -9.54551 321.972 -9.54551C321.972 -9.54551 324.373 -1.7209 324.653 -0.410147C325.244 1.97122 328.326 13.1976 329.776 28.5263C330.037 31.3013 330.233 34.1928 330.367 37.2012C331.207 57.0026 328.756 81.1865 316.629 102.309C315.908 103.563 315.158 104.8 314.378 106.021C300.279 128.003 277.907 141.521 258.706 149.606C241.156 157.02 226.327 159.702 223.786 160.212C222.715 160.462 214.791 161.703 214.791 161.703C214.791 161.703 212.389 153.878 212.099 152.567C211.509 150.186 208.437 138.96 206.986 123.631C206.726 120.856 206.529 117.964 206.396 114.956C205.555 95.1546 207.997 70.9707 220.124 49.8486C220.844 48.5946 221.598 47.3572 222.385 46.1365C236.473 24.1539 258.846 10.6361 278.047 2.54149Z" fill="url(#paint4_linear_42_43948)"/>
<path d="M278.407 3.16172C295.407 -4.00238 309.805 -6.68385 312.657 -7.27418C313.987 -7.58436 321.472 -8.75501 321.472 -8.75501C321.472 -8.75501 323.753 -1.3207 324.103 0.310236C324.764 3.02179 327.715 14.0881 329.106 29.0366C329.353 31.7916 329.54 34.6566 329.666 37.6317C330.457 57.3229 327.965 81.2867 315.888 102.179C315.168 103.419 314.418 104.643 313.637 105.851C299.619 127.583 277.406 140.981 258.345 148.995C241.356 156.149 226.947 158.841 224.106 159.431C222.765 159.742 215.281 160.902 215.281 160.902C215.281 160.902 213.01 153.478 212.649 151.847C211.989 149.135 209.037 138.069 207.656 123.121C207.403 120.366 207.216 117.501 207.096 114.526C206.306 94.8343 208.797 70.8705 220.874 49.9786C221.588 48.7445 222.335 47.5206 223.115 46.3065C237.143 24.5741 259.356 11.1763 278.407 3.16172Z" fill="url(#paint5_linear_42_43948)"/>
<path d="M278.777 3.7822C295.207 -3.13176 309.185 -5.82331 312.336 -6.48369C313.937 -6.86391 320.971 -7.95451 320.971 -7.95451C320.971 -7.95451 323.133 -0.920488 323.553 1.04063C324.273 4.06237 327.105 14.9686 328.426 29.5369C328.672 32.2718 328.853 35.1168 328.966 38.0718C329.706 57.6431 327.165 81.3766 315.138 102.038C314.424 103.266 313.68 104.48 312.907 105.681C298.949 127.173 276.896 140.43 257.985 148.375C241.546 155.289 227.568 157.971 224.426 158.641C222.815 159.011 215.781 160.112 215.781 160.112C215.781 160.112 213.63 153.078 213.2 151.117C212.479 148.095 209.648 137.189 208.327 122.62C208.087 119.885 207.907 117.04 207.787 114.085C207.056 94.5141 209.598 70.7806 221.614 50.1188C222.328 48.8914 223.075 47.6773 223.856 46.4766C237.814 24.9843 259.856 11.7267 278.767 3.7822H278.777Z" fill="url(#paint6_linear_42_43948)"/>
<path d="M279.137 4.40243C295.016 -2.27139 308.564 -4.95277 312.016 -5.69319C313.887 -6.13344 320.471 -7.15399 320.471 -7.15399C320.471 -7.16399 322.512 -0.520267 323.012 1.77105C323.793 5.11296 326.504 15.8491 327.755 30.0472C327.989 32.7621 328.159 35.5804 328.265 38.502C328.956 57.9632 326.364 81.4768 314.398 101.908C313.684 103.122 312.94 104.323 312.166 105.51C298.278 126.763 276.386 139.88 257.625 147.755C241.746 154.428 228.188 157.11 224.736 157.85C222.865 158.291 216.281 159.311 216.281 159.311C216.281 159.311 214.24 152.677 213.75 150.386C212.969 147.044 210.258 136.308 208.997 122.11C208.764 119.395 208.594 116.577 208.487 113.655C207.806 94.194 210.398 70.6805 222.365 50.2488C223.079 49.0347 223.822 47.8342 224.596 46.6468C238.484 25.3947 260.367 12.2669 279.137 4.40243Z" fill="url(#paint7_linear_42_43948)"/>
<path d="M279.498 5.0229C294.816 -1.41079 307.944 -4.09226 311.696 -4.91273C313.837 -5.40301 319.981 -6.36351 319.981 -6.36351C319.981 -6.36351 321.892 -0.130084 322.462 2.49142C323.303 6.15351 325.894 16.7296 327.085 30.5475C327.312 33.2424 327.475 36.0406 327.575 38.9422C328.206 58.2833 325.564 81.5767 313.647 101.768C312.94 102.976 312.2 104.166 311.426 105.34C297.608 126.352 275.886 139.34 257.265 147.134C241.936 153.568 228.809 156.249 225.056 157.06C222.915 157.56 216.782 158.521 216.782 158.521C216.782 158.521 214.861 152.277 214.3 149.666C213.45 146.004 210.858 135.428 209.668 121.61C209.448 118.915 209.287 116.116 209.187 113.215C208.547 93.8737 211.198 70.5805 223.105 50.389C223.819 49.1816 224.559 47.9942 225.327 46.8269C239.144 25.8048 260.877 12.8174 279.498 5.0229Z" fill="url(#paint8_linear_42_43948)"/>
<path d="M279.858 5.64337C294.626 -0.550178 307.333 -3.22172 311.376 -4.12223C313.787 -4.68255 319.481 -5.56324 319.481 -5.56324C319.481 -5.56324 321.271 0.280131 321.912 3.22182C322.822 7.2041 325.294 17.6101 326.414 31.0578C326.628 33.7327 326.781 36.5043 326.875 39.3726C327.455 58.6037 324.763 81.6668 312.907 101.638C312.2 102.832 311.463 104.006 310.695 105.16C296.938 125.932 275.375 138.789 256.905 146.514C242.126 152.707 229.429 155.379 225.377 156.279C222.965 156.84 217.272 157.72 217.272 157.72C217.272 157.72 215.481 151.877 214.841 148.935C213.94 144.953 211.469 134.547 210.348 121.099C210.128 118.425 209.971 115.653 209.878 112.785C209.297 93.5535 211.989 70.4803 223.846 50.5189C224.559 49.3249 225.3 48.1509 226.067 46.9969C239.815 26.225 261.377 13.3678 279.858 5.64337Z" fill="url(#paint9_linear_42_43948)"/>
<path d="M280.218 6.2636C294.436 0.320193 306.713 -2.36143 311.066 -3.33199C313.737 -3.95234 318.98 -4.77275 318.98 -4.77275C318.98 -4.77275 320.651 0.680341 321.362 3.95221C322.332 8.24467 324.684 18.4906 325.734 31.5581C325.948 34.213 326.094 36.9645 326.174 39.8128C326.705 58.9238 323.963 81.7668 312.166 101.498C311.459 102.679 310.722 103.843 309.955 104.99C296.267 125.522 274.875 138.239 256.534 145.894C242.326 151.837 230.049 154.518 225.697 155.489C223.015 156.109 217.772 156.93 217.772 156.93C217.772 156.93 216.101 151.477 215.391 148.205C214.42 143.913 212.069 133.667 211.018 120.599C210.812 117.944 210.665 115.193 210.578 112.344C210.048 93.2334 212.789 70.3904 224.596 50.6591C225.303 49.4785 226.037 48.3145 226.797 47.1671C240.485 26.6354 261.887 13.908 280.218 6.2636Z" fill="url(#paint10_linear_42_43948)"/>
<path d="M280.578 6.88407C294.236 1.1808 306.093 -1.49089 310.745 -2.54149C313.687 -3.23189 318.48 -3.97225 318.48 -3.97225C318.48 -3.97225 320.031 1.07055 320.811 4.68261C321.852 9.29526 324.073 19.3811 325.064 32.0684C325.264 34.7033 325.404 37.4281 325.484 40.243C325.954 59.2439 323.173 81.8669 311.416 101.368C310.709 102.535 309.975 103.686 309.215 104.82C295.597 125.112 274.365 137.699 256.174 145.273C242.516 150.976 230.67 153.648 226.017 154.699C223.065 155.379 218.273 156.129 218.273 156.129C218.273 156.129 216.722 151.077 215.941 147.475C214.911 142.862 212.679 132.776 211.689 120.089C211.489 117.454 211.352 114.729 211.279 111.914C210.798 92.9133 213.59 70.2903 225.337 50.7891C226.044 49.6218 226.777 48.4711 227.538 47.3372C241.156 27.0455 262.388 14.4584 280.578 6.88407Z" fill="url(#paint11_linear_42_43948)"/>
<path d="M280.939 7.5043C294.046 2.04117 305.473 -0.630361 310.425 -1.751C313.637 -2.50143 317.98 -3.18175 317.98 -3.18175C317.98 -3.18175 319.41 1.47074 320.261 5.403C321.362 10.3458 323.473 20.2617 324.393 32.5687C324.587 35.1835 324.717 37.8883 324.784 40.6832C325.214 59.564 322.372 81.9669 310.676 101.228C309.968 102.389 309.238 103.529 308.484 104.65C294.926 124.691 273.864 137.149 255.814 144.653C242.717 150.116 231.28 152.788 226.327 153.908C223.115 154.659 218.773 155.339 218.773 155.339C218.773 155.339 217.342 150.676 216.492 146.754C215.391 141.811 213.28 131.896 212.359 119.588C212.172 116.974 212.046 114.269 211.979 111.474C211.549 92.5929 214.39 70.2001 226.087 50.9291C226.787 49.7684 227.518 48.6278 228.278 47.5072C241.826 27.4657 262.898 15.0086 280.939 7.5043Z" fill="url(#paint12_linear_42_43948)"/>
<path d="M281.299 8.12477C293.846 2.90178 304.852 0.230161 310.105 -0.970526C313.587 -1.78099 317.489 -2.38125 317.489 -2.38125C317.489 -2.38125 318.79 1.8712 319.721 6.13364C320.881 11.3866 322.863 21.1422 323.723 33.079C323.903 35.6738 324.023 38.3521 324.083 41.1136C324.463 59.8844 321.572 82.057 309.925 101.098C309.225 102.245 308.498 103.372 307.744 104.48C294.266 124.281 273.354 136.608 255.454 144.032C242.907 149.255 231.9 151.917 226.647 153.128C223.165 153.928 219.273 154.538 219.273 154.538C219.273 154.538 217.962 150.286 217.042 146.024C215.881 140.771 213.89 131.015 213.03 119.078C212.85 116.483 212.729 113.805 212.669 111.044C212.299 92.2728 215.191 70.1002 226.827 51.0693C227.528 49.9153 228.255 48.7878 229.009 47.6872C242.496 27.8759 263.398 15.549 281.299 8.12477Z" fill="url(#paint13_linear_42_43948)"/>
<path d="M281.669 8.745C293.656 3.76214 304.232 1.1007 309.785 -0.180035C313.537 -1.05053 316.989 -1.591 316.989 -1.591C316.989 -1.591 318.17 2.27141 319.17 6.86404C320.391 12.4372 322.262 22.0227 323.053 33.5793C323.226 36.1541 323.336 38.8123 323.383 41.5538C323.713 60.2045 320.771 82.1569 309.185 100.958C308.484 102.092 307.76 103.206 307.013 104.3C293.596 123.871 272.844 136.058 255.094 143.412C243.107 148.385 232.521 151.057 226.968 152.337C223.215 153.208 219.773 153.748 219.773 153.748C219.773 153.748 218.583 149.876 217.582 145.293C216.361 139.72 214.5 130.135 213.71 118.578C213.536 116.003 213.423 113.345 213.37 110.603C213.05 91.9527 215.991 70 227.578 51.1992C228.278 50.0653 229.002 48.9514 229.749 47.8575C243.167 28.2863 263.909 16.0992 281.669 8.745Z" fill="url(#paint14_linear_42_43948)"/>
<path d="M282.029 9.36547C293.456 4.63276 303.611 1.96123 309.475 0.610457C313.487 -0.320076 316.489 -0.790492 316.489 -0.790492C316.489 -0.790492 317.549 2.67161 318.62 7.58442C319.911 13.4778 321.652 22.9032 322.382 34.0896C322.542 36.6444 322.646 39.2758 322.692 41.984C322.962 60.5246 319.971 82.2571 308.444 100.828C307.744 101.948 307.02 103.049 306.273 104.13C292.925 123.461 272.343 135.508 254.733 142.792C243.297 147.524 233.141 150.196 227.288 151.547C223.265 152.477 220.264 152.948 220.264 152.948C220.264 152.948 219.203 149.476 218.132 144.573C216.852 138.679 215.101 129.254 214.38 118.068C214.214 115.513 214.11 112.881 214.07 110.173C213.8 91.6326 216.782 69.9001 228.318 51.3395C229.019 50.2121 229.742 49.1081 230.49 48.0275C243.837 28.6964 264.409 16.6496 282.029 9.36547Z" fill="url(#paint15_linear_42_43948)"/>
<path d="M307.694 100.688C294.546 121.69 272.814 134.557 254.373 142.171C235.923 149.786 220.764 152.147 220.764 152.147C220.764 152.147 216.261 137.489 215.051 117.567C213.84 97.6459 215.911 72.4814 229.059 51.4694C242.206 30.4674 263.939 17.6001 282.389 9.9857C300.83 2.37134 315.988 0 315.988 0C315.988 0 320.491 14.6685 321.702 34.5899C322.922 54.5113 320.841 79.6758 307.694 100.688Z" fill="url(#paint16_linear_42_43948)"/>
</g>
<g style="mix-blend-mode:color-burn">
<path d="M148.443 333.381C145.401 333.701 73.5697 340.635 29.2143 299.041C-15.1411 257.457 -12.8297 185.336 -12.7096 182.284L-12.2694 171.238L-1.28315 170.097C1.75859 169.777 73.5898 162.843 117.945 204.427C162.301 246.021 159.989 318.142 159.869 321.194L159.429 332.24L148.443 333.381Z" fill="#FEFEFE"/>
<path d="M-11.4991 171.959C-11.4991 171.959 -0.983038 170.868 -0.622832 170.858C3.48952 170.538 73.8498 164.174 117.405 205.017C160.95 245.851 159.119 316.471 159.069 320.583C159.079 320.944 158.668 331.51 158.668 331.51C158.668 331.51 148.142 332.61 147.782 332.62C143.68 332.941 73.3095 339.304 29.7545 298.461C-13.7904 257.628 -11.9593 187.007 -11.8993 182.895C-11.9193 182.535 -11.4991 171.959 -11.4991 171.959Z" fill="url(#paint17_linear_42_43948)"/>
<path d="M-10.7285 172.689C-10.7285 172.689 -0.682763 171.638 0.0376497 171.618C5.21061 171.288 74.1101 165.505 116.855 205.598C159.609 245.681 158.258 314.79 158.258 319.973C158.288 320.694 157.898 330.79 157.898 330.79C157.898 330.79 147.842 331.84 147.122 331.86C141.949 332.19 73.0495 337.963 30.305 297.881C-12.4395 257.798 -11.0987 188.678 -11.0987 183.505C-11.1287 182.775 -10.7285 172.689 -10.7285 172.689Z" fill="url(#paint18_linear_42_43948)"/>
<path d="M-9.96814 173.409C-9.96814 173.409 -0.382727 172.409 0.707897 172.389C6.94147 172.049 74.3601 166.846 116.314 206.178C158.258 245.511 157.398 313.119 157.458 319.363C157.498 320.454 157.128 330.069 157.128 330.069C157.128 330.069 147.542 331.07 146.451 331.09C140.228 331.43 72.7992 336.633 30.8452 297.3C-11.0989 257.968 -10.2284 190.359 -10.2984 184.116C-10.3384 183.025 -9.96814 173.409 -9.96814 173.409Z" fill="url(#paint19_linear_42_43948)"/>
<path d="M-9.19777 174.13C-9.19777 174.13 -0.0925012 173.179 1.36834 173.149C8.66251 172.799 74.6202 168.177 115.764 206.759C156.907 245.341 156.527 311.449 156.657 318.753C156.717 320.204 156.357 329.349 156.357 329.349C156.357 329.349 147.252 330.299 145.791 330.329C138.497 330.68 72.5391 335.302 31.3955 296.72C-9.74802 258.148 -9.36779 192.03 -9.48786 184.726C-9.5579 183.275 -9.19777 174.13 -9.19777 174.13Z" fill="url(#paint20_linear_42_43948)"/>
<path d="M-8.42733 174.85C-8.42733 174.85 0.207688 173.95 2.02873 173.91C10.3935 173.559 74.8805 169.517 115.224 207.339C155.557 245.16 155.667 309.767 155.847 318.142C155.927 319.953 155.587 328.628 155.587 328.628C155.587 328.628 146.952 329.529 145.131 329.569C136.766 329.919 72.2789 333.961 31.9458 296.14C-8.39734 258.318 -8.50739 193.701 -8.68749 185.336C-8.76753 183.525 -8.42733 174.85 -8.42733 174.85Z" fill="url(#paint21_linear_42_43948)"/>
<path d="M-7.65688 175.571C-7.65688 175.571 0.50776 174.72 2.68901 174.67C12.1244 174.31 75.1405 170.848 114.673 207.919C154.206 244.99 154.796 308.097 155.046 317.532C155.136 319.703 154.816 327.908 154.816 327.908C154.816 327.908 146.652 328.758 144.47 328.808C135.045 329.169 72.0187 332.631 32.4861 295.559C-7.04653 258.488 -7.63685 195.382 -7.88699 185.947C-7.97704 183.765 -7.65688 175.571 -7.65688 175.571Z" fill="url(#paint22_linear_42_43948)"/>
<path d="M-6.88644 176.291C-6.88644 176.291 0.807944 175.491 3.3494 175.431C13.8454 175.07 75.3906 172.179 114.133 208.5C152.865 244.82 153.936 306.415 154.246 316.921C154.346 319.453 154.046 327.187 154.046 327.187C154.046 327.187 146.351 327.988 143.81 328.038C133.314 328.408 71.7686 331.29 33.0364 294.969C-5.70574 258.658 -6.77644 197.053 -7.07661 186.557C-7.18668 184.015 -6.88644 176.291 -6.88644 176.291Z" fill="url(#paint23_linear_42_43948)"/>
<path d="M-6.11594 177.011C-6.11594 177.011 1.10819 176.261 4.00985 176.201C15.5765 175.821 75.6509 173.519 113.583 209.08C151.514 244.65 153.075 304.745 153.435 316.311C153.565 319.213 153.275 326.467 153.275 326.467C153.275 326.467 146.051 327.218 143.149 327.278C131.593 327.658 71.5084 329.959 33.5767 294.389C-4.35501 258.828 -5.91586 198.734 -6.27607 187.167C-6.39614 184.266 -6.11594 177.011 -6.11594 177.011Z" fill="url(#paint24_linear_42_43948)"/>
<path d="M-5.34548 177.732C-5.34548 177.732 1.39839 177.032 4.67026 176.962C17.2975 176.581 75.911 174.85 113.042 209.66C150.164 244.48 152.205 303.074 152.635 315.701C152.775 318.963 152.505 325.747 152.505 325.747C152.505 325.747 145.761 326.447 142.489 326.517C129.862 326.907 71.2483 328.628 34.1271 293.808C-3.00419 258.999 -5.04532 200.405 -5.47556 187.778C-5.61564 184.516 -5.34548 177.732 -5.34548 177.732Z" fill="url(#paint25_linear_42_43948)"/>
<path d="M-4.57517 178.452C-4.57517 178.452 1.69845 177.802 5.33053 177.722C19.0284 177.332 76.1711 176.181 112.492 210.25C148.813 244.31 151.344 301.392 151.834 315.09C151.985 318.712 151.734 325.016 151.734 325.016C151.734 325.016 145.461 325.676 141.829 325.756C128.131 326.147 70.9882 327.287 34.6674 293.228C-1.6534 259.168 -4.18492 202.076 -4.6752 188.388C-4.82529 184.766 -4.57517 178.452 -4.57517 178.452Z" fill="url(#paint26_linear_42_43948)"/>
<path d="M-3.80466 179.173C-3.80466 179.183 1.9987 178.572 5.99099 178.482C20.7494 178.082 76.4213 177.522 111.952 210.831C147.472 244.14 150.484 299.722 151.024 314.48C151.194 318.462 150.964 324.296 150.964 324.296C150.964 324.296 145.161 324.906 141.168 324.986C126.41 325.386 70.738 325.957 35.2177 292.647C-0.312656 259.348 -3.31432 203.757 -3.86463 188.998C-4.03473 185.006 -3.80466 179.173 -3.80466 179.173Z" fill="url(#paint27_linear_42_43948)"/>
<path d="M-3.03419 179.903C-3.03419 179.903 2.29892 179.343 6.65141 179.252C22.4805 178.842 76.6815 178.852 111.401 211.411C146.121 243.96 149.613 298.041 150.224 313.86C150.414 318.222 150.194 323.575 150.194 323.575C150.194 323.575 144.86 324.136 140.508 324.226C124.679 324.636 70.4779 324.616 35.758 292.067C1.03816 259.518 -2.45389 205.428 -3.06424 189.608C-3.24434 185.256 -3.03419 179.903 -3.03419 179.903Z" fill="url(#paint28_linear_42_43948)"/>
<path d="M-2.26373 180.623C-2.26373 180.623 2.59901 180.113 7.3117 180.013C24.2114 179.593 76.9417 180.193 110.861 211.991C144.771 243.79 148.753 296.37 149.423 313.249C149.623 317.972 149.433 322.855 149.433 322.855C149.433 322.855 144.57 323.365 139.848 323.465C122.948 323.885 70.2178 323.285 36.3084 291.487C2.38899 259.689 -1.59334 207.099 -2.26373 190.219C-2.46384 185.506 -2.26373 180.623 -2.26373 180.623Z" fill="url(#paint29_linear_42_43948)"/>
<path d="M-1.4933 181.344C-1.4933 181.344 2.89918 180.883 7.98209 180.773C25.9324 180.353 77.2018 181.524 110.311 212.572C143.42 243.619 147.882 294.699 148.613 312.639C148.833 317.722 148.663 322.134 148.663 322.134C148.663 322.134 144.27 322.595 139.187 322.705C121.227 323.125 69.9576 321.954 36.8486 290.896C3.73964 259.859 -0.722823 208.779 -1.45324 190.829C-1.67337 185.756 -1.4933 181.344 -1.4933 181.344Z" fill="url(#paint30_linear_42_43948)"/>
<path d="M-0.732851 182.064C-0.732851 182.064 3.18939 181.654 8.64251 181.534C27.6634 181.104 77.4519 182.855 109.77 213.152C142.079 243.449 147.022 293.018 147.812 312.029C148.042 317.472 147.892 321.414 147.892 321.414C147.892 321.414 143.97 321.824 138.527 321.944C119.496 322.375 69.7075 320.613 37.399 290.316C5.08046 260.029 0.137603 210.45 -0.652849 191.44C-0.882981 185.996 -0.732851 182.064 -0.732851 182.064Z" fill="url(#paint31_linear_42_43948)"/>
<path d="M109.22 213.733C149.833 251.814 147.122 320.694 147.122 320.694C147.122 320.694 78.5526 327.828 37.9393 289.736C-2.67392 251.664 0.0376279 182.785 0.0376279 182.785C0.0376279 182.785 68.6069 175.651 109.22 213.733Z" fill="url(#paint32_linear_42_43948)"/>
</g>
</g>
</g>
<path opacity="0.9" d="M248.16 47.4471H229.189V28.0261C229.189 25.0644 226.787 22.6629 223.836 22.6629H145.271C142.309 22.6629 139.918 25.0644 139.918 28.0261V47.4471H120.947C109.78 47.4471 100.725 56.5025 100.725 67.6689V324.006C100.725 335.172 109.78 344.217 120.947 344.217H248.16C259.326 344.217 268.381 335.172 268.381 324.006V67.6689C268.381 56.5025 259.326 47.4471 248.16 47.4471Z" fill="url(#paint33_linear_42_43948)" style="mix-blend-mode:screen"/>
<g style="mix-blend-mode:screen" opacity="0.9">
<path fill-rule="evenodd" clip-rule="evenodd" d="M229.189 28.0261V47.4471H248.16C259.326 47.4471 268.381 56.5025 268.381 67.6689V324.006C268.381 335.172 259.326 344.217 248.16 344.217H120.947C109.78 344.217 100.725 335.172 100.725 324.006V67.6689C100.725 56.5025 109.78 47.4471 120.947 47.4471H139.918V28.0261C139.918 25.0644 142.309 22.6629 145.271 22.6629H223.836C226.787 22.6629 229.189 25.0644 229.189 28.0261ZM145.271 24.8143C143.5 24.8143 142.059 26.255 142.059 28.0261V49.5885H120.947C110.981 49.5885 102.866 57.6932 102.866 67.6689V324.006C102.866 333.971 110.981 342.076 120.947 342.076H248.16C258.125 342.076 266.23 333.971 266.23 324.006V67.6689C266.23 57.6932 258.125 49.5885 248.16 49.5885H227.048V28.0261C227.048 26.255 225.607 24.8143 223.836 24.8143H145.271Z" fill="#FEFEFE"/>
</g>
<g style="mix-blend-mode:color-burn">
<path d="M183.343 284.083C177.379 284.083 172.706 279.43 172.706 273.487V215.734H148.032C144.51 215.734 141.228 213.982 139.247 211.061C137.276 208.139 136.886 204.447 138.207 201.175L172.316 116.597C176.148 104.85 192.858 107.541 192.728 121.009L190.296 179.313H217.572C221.114 179.313 224.396 181.063 226.367 184.005C228.338 186.937 228.719 190.649 227.378 193.921L193.098 277.509C191.467 281.501 187.635 284.083 183.343 284.083Z" fill="#FEFEFE"/>
<path d="M192.278 120.989L189.856 179.263L193.899 179.533C193.889 179.653 199.182 179.753 199.302 179.753H216.702C220.024 179.753 223.746 181.404 225.597 184.156C226.237 185.116 226.887 186.177 227.198 187.257C227.798 189.308 227.838 191.61 226.958 193.751L192.688 277.339C191.057 281.301 187.145 283.663 183.122 283.422C177.529 283.422 173.157 278.169 173.157 272.596V217.505C173.157 217.465 173.137 215.413 173.127 215.383C173.087 215.323 169.134 215.283 169.054 215.283H148.723C145.411 215.283 141.779 213.642 139.928 210.901C139.487 210.251 139.027 209.55 138.737 208.84C137.787 206.508 137.626 203.817 138.627 201.335L172.356 117.698C174.688 110.564 182.322 108.362 187.335 111.464C190.016 113.135 192.338 116.297 192.278 120.989Z" fill="url(#paint34_linear_42_43948)"/>
<path d="M191.827 120.969L189.406 179.223L193.168 179.763C193.158 180.003 198.201 180.203 198.441 180.203H215.831C218.933 180.203 223.095 181.744 224.826 184.315C225.427 185.206 226.227 186.207 226.557 187.197C227.208 189.148 227.428 191.43 226.547 193.581L192.268 277.169C190.657 281.091 186.664 283.232 182.912 282.762H182.902C177.689 282.762 173.597 276.909 173.597 271.706V217.134C173.597 217.054 173.577 215.103 173.537 215.043C173.467 214.913 169.705 214.833 169.545 214.833H149.403C146.321 214.833 142.339 213.302 140.608 210.751C140.198 210.14 139.648 209.47 139.357 208.82C138.377 206.608 138.047 203.967 139.037 201.506L172.406 118.788C174.577 112.134 181.982 109.303 186.775 111.984C189.326 113.425 191.887 116.337 191.827 120.969Z" fill="url(#paint35_linear_42_43948)"/>
<path d="M191.387 120.949L188.956 179.183L192.438 179.983C192.428 180.354 197.21 180.654 197.581 180.654H214.961C217.842 180.654 222.445 182.084 224.046 184.466C224.606 185.296 225.577 186.237 225.917 187.147C226.617 188.998 227.018 191.26 226.127 193.411L191.857 276.999C190.257 280.891 186.174 282.802 182.692 282.102C177.849 282.102 174.047 275.648 174.047 270.825V216.764C174.047 216.644 174.017 214.793 173.957 214.693C173.847 214.513 170.275 214.383 170.045 214.383H150.084C147.222 214.383 142.899 212.972 141.288 210.591C140.908 210.02 140.268 209.4 139.978 208.8C138.957 206.698 138.467 204.117 139.457 201.676L172.446 119.879C174.457 113.705 181.642 110.243 186.214 112.504C188.656 113.715 191.447 116.377 191.387 120.949Z" fill="url(#paint36_linear_42_43948)"/>
<path d="M190.937 120.929L188.516 179.143L191.707 180.213C191.687 180.703 196.23 181.104 196.72 181.104H214.1C216.752 181.104 221.795 182.414 223.275 184.626C223.786 185.396 224.926 186.277 225.277 187.097C226.027 188.868 226.597 191.079 225.717 193.241L191.437 276.828C189.856 280.691 185.694 282.372 182.472 281.441V281.431C177.999 281.431 174.497 274.397 174.497 269.935V216.394C174.497 216.234 174.457 214.483 174.377 214.353C174.227 214.102 170.845 213.932 170.535 213.932H150.774C148.122 213.932 143.45 212.632 141.969 210.43C141.619 209.91 140.878 209.32 140.588 208.779C139.537 206.788 138.897 204.277 139.878 201.845L172.486 120.979C174.347 115.276 181.752 110.403 185.654 113.025C188.145 113.565 191.007 116.407 190.937 120.929Z" fill="url(#paint37_linear_42_43948)"/>
<path d="M190.487 120.909L188.065 179.093L190.977 180.444C190.957 181.044 195.249 181.554 195.86 181.554H213.23C215.661 181.554 221.144 182.755 222.495 184.776C222.975 185.486 224.436 186.247 224.636 187.047C225.767 188.538 226.187 190.899 225.297 193.071L191.027 276.659C189.456 280.481 185.214 281.942 182.262 280.771C178.16 280.771 174.948 273.137 174.948 269.044V216.024C174.948 215.824 174.888 214.163 174.798 214.003C174.607 213.693 171.416 213.482 171.025 213.482H151.454C149.033 213.482 144.01 212.292 142.649 210.28C142.329 209.8 141.499 209.25 141.208 208.76C140.118 206.869 139.317 204.427 140.288 202.016L172.526 122.07C174.237 116.837 181.521 111.144 185.104 113.555C187.505 113.745 190.567 116.447 190.487 120.909Z" fill="url(#paint38_linear_42_43948)"/>
<path d="M190.036 120.889L187.615 179.053L190.257 180.664C190.227 181.394 194.269 182.004 194.999 182.004H212.359C214.57 182.004 220.494 183.095 221.725 184.936C222.155 185.576 223.806 186.277 223.996 186.997C225.247 188.358 225.777 190.729 224.886 192.901L190.607 276.488C189.056 280.281 184.723 281.511 182.042 280.11C178.31 280.11 175.398 271.876 175.398 268.164V215.664C175.398 215.413 175.328 213.853 175.208 213.662C174.988 213.292 171.986 213.042 171.526 213.042H152.135C149.934 213.042 144.56 211.951 143.33 210.12C143.04 209.69 142.019 209.22 141.829 208.74C140.348 207.209 139.738 204.577 140.708 202.176L172.576 123.161C174.127 118.408 181.291 111.884 184.543 114.075C186.855 113.925 190.126 116.487 190.036 120.889Z" fill="url(#paint39_linear_42_43948)"/>
<path d="M189.586 120.879L187.175 179.013L189.526 180.894C189.486 181.744 193.288 182.455 194.139 182.455H211.489C213.48 182.455 219.843 183.435 220.954 185.086C221.334 185.666 223.185 186.297 223.345 186.947C224.726 188.168 225.367 190.549 224.466 192.731L190.196 276.318C188.656 280.08 184.243 281.091 181.822 279.45C178.47 279.45 175.848 270.615 175.848 267.273V215.293C175.848 215.013 175.768 213.542 175.628 213.322C175.368 212.882 172.566 212.592 172.016 212.592H152.825C150.834 212.592 145.121 211.611 144.01 209.96C143.75 209.57 142.619 209.16 142.449 208.72C140.878 207.339 140.158 204.727 141.118 202.346L172.616 124.261C174.007 119.979 181.051 112.625 183.983 114.596C186.214 114.105 189.686 116.527 189.586 120.879Z" fill="url(#paint40_linear_42_43948)"/>
<path d="M189.146 120.859L186.724 178.973L188.796 181.114C188.756 182.084 192.298 182.895 193.268 182.895H210.628C212.389 182.895 219.193 183.775 220.174 185.246C220.524 185.756 222.565 186.317 222.705 186.897C224.196 187.978 224.956 190.369 224.056 192.56L189.786 276.148C188.255 279.87 183.753 280.661 181.612 278.79C178.63 278.79 176.288 269.354 176.288 266.383V214.923C176.288 214.603 176.208 213.232 176.048 212.972C175.748 212.472 173.137 212.141 172.506 212.141H153.505C151.744 212.141 145.681 211.271 144.69 209.81C144.46 209.46 143.22 209.09 143.069 208.7C141.399 207.479 140.578 204.887 141.539 202.516L172.656 125.352C173.897 121.55 180.821 113.365 183.433 115.116C185.564 114.285 189.246 116.567 189.146 120.859Z" fill="url(#paint41_linear_42_43948)"/>
<path d="M188.696 120.839L186.274 178.932L188.065 181.344C188.025 182.434 191.317 183.345 192.408 183.345H209.758C211.299 183.345 218.543 184.115 219.403 185.396C219.703 185.846 221.935 186.337 222.065 186.847C223.676 187.797 224.536 190.189 223.636 192.39L189.366 275.978C187.845 279.67 183.273 280.23 181.391 278.119C178.78 278.119 176.739 268.093 176.739 265.492V214.553C176.739 214.192 176.639 212.912 176.469 212.632C176.128 212.071 173.707 211.691 173.007 211.691H154.186C152.645 211.691 146.231 210.931 145.371 209.65C145.161 209.35 143.82 209.02 143.69 208.689C141.929 207.609 141.008 205.037 141.949 202.686L172.696 126.442C173.787 123.121 180.591 114.105 182.872 115.636C184.923 114.465 188.806 116.607 188.696 120.839Z" fill="url(#paint42_linear_42_43948)"/>
<path d="M188.245 120.819L185.824 178.882L187.335 181.574C187.285 182.785 190.336 183.795 191.547 183.795H208.887C210.218 183.795 217.892 184.456 218.633 185.556C218.883 185.936 221.314 186.357 221.424 186.797C223.145 187.607 224.126 190.019 223.225 192.22L188.956 275.808C187.445 279.47 182.792 279.8 181.181 277.459C178.94 277.459 177.189 266.843 177.189 264.611V214.183C177.189 213.782 177.079 212.602 176.889 212.281C176.509 211.661 174.277 211.241 173.497 211.241H154.876C153.555 211.241 146.792 210.591 146.051 209.49C145.871 209.23 144.42 208.95 144.31 208.669C142.449 207.749 141.429 205.187 142.369 202.846L172.746 127.533C173.677 124.681 180.361 114.846 182.312 116.157C184.273 114.646 188.365 116.637 188.245 120.819Z" fill="url(#paint43_linear_42_43948)"/>
<path d="M187.795 120.799L185.384 178.842L186.614 181.794C186.554 183.135 189.356 184.246 190.687 184.246H208.017C209.127 184.246 217.242 184.796 217.852 185.706C218.072 186.027 220.694 186.377 220.784 186.747C222.625 187.417 223.716 189.839 222.805 192.05L188.535 275.638C187.045 279.26 182.302 279.37 180.961 276.799C179.1 276.799 177.639 265.582 177.639 263.721V213.812C177.639 213.372 177.519 212.292 177.299 211.941C176.889 211.251 174.848 210.801 173.997 210.801H155.557C154.456 210.801 147.352 210.25 146.732 209.34C146.582 209.12 145.021 208.89 144.931 208.649C142.979 207.879 141.849 205.337 142.779 203.016L172.786 128.634C173.557 126.252 180.131 115.586 181.762 116.677C183.633 114.826 187.925 116.677 187.795 120.799Z" fill="url(#paint44_linear_42_43948)"/>
<path d="M187.345 120.779L184.933 178.802L185.884 182.024C185.824 183.475 188.365 184.696 189.826 184.696H207.146C208.037 184.696 216.592 185.136 217.082 185.866C217.252 186.127 220.064 186.397 220.144 186.687C222.105 187.237 223.305 189.659 222.395 191.88L188.125 275.458C186.644 279.06 181.822 278.95 180.741 276.138C179.25 276.138 178.09 264.321 178.09 262.83V213.442C178.09 212.962 177.949 211.981 177.719 211.591C177.279 210.851 175.418 210.35 174.488 210.35H156.237C155.357 210.35 147.902 209.91 147.412 209.18C147.292 209.01 145.621 208.82 145.551 208.629C143.51 208.019 142.269 205.498 143.2 203.186L172.827 129.724C173.447 127.823 179.901 116.327 181.201 117.197C182.992 115.006 187.485 116.717 187.345 120.779Z" fill="url(#paint45_linear_42_43948)"/>
<path d="M186.905 120.759L184.483 178.762L185.154 182.244C185.084 183.825 187.385 185.146 188.966 185.146H206.286C206.946 185.146 215.941 185.466 216.311 186.016C216.431 186.216 219.443 186.427 219.493 186.637C221.574 187.047 222.895 189.478 221.975 191.71L187.705 275.298C186.244 278.86 181.331 278.519 180.531 275.478V275.468C179.41 275.468 178.54 263.061 178.54 261.95V213.082C178.54 212.552 178.39 211.661 178.14 211.251C177.659 210.441 175.998 209.9 174.978 209.9H156.927C156.267 209.9 148.463 209.57 148.092 209.019C148.002 208.889 146.231 208.749 146.171 208.609C144.03 208.149 142.689 205.648 143.62 203.356L172.867 130.815C173.337 129.394 179.671 117.067 180.641 117.717C182.342 115.186 187.045 116.757 186.905 120.759Z" fill="url(#paint46_linear_42_43948)"/>
<path d="M186.454 120.749L184.043 178.722L184.423 182.475C184.353 184.175 186.404 185.586 188.105 185.586H205.415C205.856 185.586 215.291 185.806 215.531 186.177C215.621 186.307 218.823 186.447 218.853 186.587C221.054 186.857 222.485 189.308 221.564 191.54L187.295 275.117C185.844 278.659 180.851 278.089 180.311 274.807C179.57 274.807 178.98 261.8 178.98 261.059V212.712C178.98 212.151 178.83 211.351 178.56 210.901C178.039 210.03 176.569 209.45 175.478 209.45H157.608C157.168 209.45 149.023 209.23 148.773 208.869C148.713 208.779 146.832 208.689 146.792 208.589C144.56 208.289 143.109 205.798 144.03 203.516L172.917 131.916C173.227 130.965 179.44 117.807 180.091 118.248C181.702 115.366 186.594 116.797 186.454 120.749Z" fill="url(#paint47_linear_42_43948)"/>
<path d="M186.004 120.729L183.593 178.672L183.693 182.705C183.623 184.516 185.424 186.037 187.245 186.037H204.545C204.765 186.037 214.641 186.147 214.761 186.337C214.801 186.397 218.193 186.467 218.213 186.537C220.524 186.677 222.065 189.128 221.144 191.37L186.875 274.958C185.444 278.45 180.361 277.659 180.101 274.147C179.721 274.147 179.43 260.539 179.43 260.169V212.342C179.43 211.741 179.27 211.041 178.98 210.561C178.42 209.63 177.139 209 175.968 209H158.288C158.068 209 149.573 208.89 149.453 208.71C149.423 208.67 147.432 208.619 147.412 208.569C145.081 208.419 143.54 205.948 144.45 203.687L172.957 133.006C173.107 132.526 179.2 118.548 179.53 118.768C181.051 115.546 186.154 116.837 186.004 120.729Z" fill="url(#paint48_linear_42_43948)"/>
<path d="M178.97 119.288L144.861 203.857C143.96 206.108 145.611 208.549 148.032 208.549H176.459C178.35 208.549 179.881 210.08 179.881 211.971V273.487C179.881 277.229 185.044 278.249 186.464 274.777L220.734 191.2C221.655 188.948 220.004 186.487 217.572 186.487H186.384C184.433 186.487 182.882 184.866 182.962 182.925L185.554 120.709C185.714 116.867 180.411 115.726 178.97 119.288Z" fill="url(#paint49_linear_42_43948)"/>
</g>
<path d="M307.694 100.688C297.778 116.537 282.97 127.753 268.381 135.568V67.6689C268.381 56.5025 259.326 47.4471 248.16 47.4471H231.76C259.266 8.84498 315.988 0 315.988 0C315.988 0 333.989 58.6737 307.694 100.688Z" fill="url(#paint50_linear_42_43948)"/>
<path d="M100.725 206.688V318.412C79.9734 314.8 56.1498 306.816 37.9393 289.736C-2.67392 251.664 0.0376279 182.785 0.0376279 182.785C0.0376279 182.785 59.7418 176.581 100.725 206.688Z" fill="url(#paint51_linear_42_43948)"/>
<defs>
<linearGradient id="paint0_linear_42_43948" x1="51.5651" y1="386.914" x2="181.661" y2="249.237" gradientUnits="userSpaceOnUse">
<stop stop-color="#FEFEFE"/>
<stop offset="1" stop-color="#B2B4BB"/>
</linearGradient>
<linearGradient id="paint1_linear_42_43948" x1="399.148" y1="-19.9093" x2="394.785" y2="110.277" gradientUnits="userSpaceOnUse">
<stop stop-color="#F9FBF2"/>
<stop offset="1" stop-color="#F2F3EC"/>
</linearGradient>
<linearGradient id="paint2_linear_42_43948" x1="408.389" y1="-16" x2="399.518" y2="115.252" gradientUnits="userSpaceOnUse">
<stop stop-color="#F4F8E7"/>
<stop offset="1" stop-color="#E7E8DC"/>
</linearGradient>
<linearGradient id="paint3_linear_42_43948" x1="417.384" y1="-11.3776" x2="403.863" y2="120.619" gradientUnits="userSpaceOnUse">
<stop stop-color="#EFF5DD"/>
<stop offset="1" stop-color="#DDDECD"/>
</linearGradient>
<linearGradient id="paint4_linear_42_43948" x1="425.954" y1="-6.09253" x2="407.704" y2="126.298" gradientUnits="userSpaceOnUse">
<stop stop-color="#EBF1D3"/>
<stop offset="1" stop-color="#D3D5BF"/>
</linearGradient>
<linearGradient id="paint5_linear_42_43948" x1="434.033" y1="-0.160088" x2="410.979" y2="132.27" gradientUnits="userSpaceOnUse">
<stop stop-color="#E6EFC9"/>
<stop offset="1" stop-color="#CBCDB2"/>
</linearGradient>
<linearGradient id="paint6_linear_42_43948" x1="441.467" y1="6.33468" x2="413.603" y2="138.431" gradientUnits="userSpaceOnUse">
<stop stop-color="#E2ECC0"/>
<stop offset="1" stop-color="#C1C4A5"/>
</linearGradient>
<linearGradient id="paint7_linear_42_43948" x1="448.207" y1="13.3507" x2="415.535" y2="144.744" gradientUnits="userSpaceOnUse">
<stop stop-color="#DDE9B6"/>
<stop offset="1" stop-color="#B8BD99"/>
</linearGradient>
<linearGradient id="paint8_linear_42_43948" x1="454.132" y1="20.773" x2="416.719" y2="151.092" gradientUnits="userSpaceOnUse">
<stop stop-color="#DAE7AC"/>
<stop offset="1" stop-color="#AFB58D"/>
</linearGradient>
<linearGradient id="paint9_linear_42_43948" x1="459.197" y1="28.5313" x2="417.134" y2="157.413" gradientUnits="userSpaceOnUse">
<stop stop-color="#D6E4A3"/>
<stop offset="1" stop-color="#A7AE82"/>
</linearGradient>
<linearGradient id="paint10_linear_42_43948" x1="463.339" y1="36.5079" x2="416.76" y2="163.602" gradientUnits="userSpaceOnUse">
<stop stop-color="#D2E29A"/>
<stop offset="1" stop-color="#9FA778"/>
</linearGradient>
<linearGradient id="paint11_linear_42_43948" x1="466.525" y1="44.5775" x2="415.616" y2="169.554" gradientUnits="userSpaceOnUse">
<stop stop-color="#CDDF90"/>
<stop offset="1" stop-color="#96A06D"/>
</linearGradient>
<linearGradient id="paint12_linear_42_43948" x1="468.776" y1="52.6782" x2="413.728" y2="175.227" gradientUnits="userSpaceOnUse">
<stop stop-color="#C9DD87"/>
<stop offset="1" stop-color="#8E9A62"/>
</linearGradient>
<linearGradient id="paint13_linear_42_43948" x1="470.09" y1="60.6688" x2="411.145" y2="180.513" gradientUnits="userSpaceOnUse">
<stop stop-color="#C5DB7D"/>
<stop offset="1" stop-color="#869458"/>
</linearGradient>
<linearGradient id="paint14_linear_42_43948" x1="470.482" y1="68.4921" x2="407.88" y2="185.373" gradientUnits="userSpaceOnUse">
<stop stop-color="#C1D973"/>
<stop offset="1" stop-color="#7F8F4E"/>
</linearGradient>
<linearGradient id="paint15_linear_42_43948" x1="470.029" y1="76.0256" x2="404.063" y2="189.733" gradientUnits="userSpaceOnUse">
<stop stop-color="#BDD669"/>
<stop offset="1" stop-color="#778946"/>
</linearGradient>
<linearGradient id="paint16_linear_42_43948" x1="468.756" y1="83.2217" x2="399.702" y2="193.565" gradientUnits="userSpaceOnUse">
<stop stop-color="#B9D45E"/>
<stop offset="1" stop-color="#6F8440"/>
</linearGradient>
<linearGradient id="paint17_linear_42_43948" x1="155.304" y1="153.636" x2="160.988" y2="275.825" gradientUnits="userSpaceOnUse">
<stop stop-color="#F9FBF2"/>
<stop offset="1" stop-color="#F2F3EC"/>
</linearGradient>
<linearGradient id="paint18_linear_42_43948" x1="159.416" y1="146.282" x2="171.306" y2="271.508" gradientUnits="userSpaceOnUse">
<stop stop-color="#F4F8E7"/>
<stop offset="1" stop-color="#E7E8DC"/>
</linearGradient>
<linearGradient id="paint19_linear_42_43948" x1="164.459" y1="137.459" x2="183.147" y2="265.977" gradientUnits="userSpaceOnUse">
<stop stop-color="#EFF5DD"/>
<stop offset="1" stop-color="#DDDECD"/>
</linearGradient>
<linearGradient id="paint20_linear_42_43948" x1="169.129" y1="127.814" x2="195.113" y2="259.015" gradientUnits="userSpaceOnUse">
<stop stop-color="#EBF1D3"/>
<stop offset="1" stop-color="#D3D5BF"/>
</linearGradient>
<linearGradient id="paint21_linear_42_43948" x1="173.018" y1="117.528" x2="206.686" y2="250.623" gradientUnits="userSpaceOnUse">
<stop stop-color="#E6EFC9"/>
<stop offset="1" stop-color="#CBCDB2"/>
</linearGradient>
<linearGradient id="paint22_linear_42_43948" x1="175.794" y1="106.771" x2="217.424" y2="240.898" gradientUnits="userSpaceOnUse">
<stop stop-color="#E2ECC0"/>
<stop offset="1" stop-color="#C1C4A5"/>
</linearGradient>
<linearGradient id="paint23_linear_42_43948" x1="177.237" y1="95.7829" x2="226.958" y2="230.025" gradientUnits="userSpaceOnUse">
<stop stop-color="#DDE9B6"/>
<stop offset="1" stop-color="#B8BD99"/>
</linearGradient>
<linearGradient id="paint24_linear_42_43948" x1="177.14" y1="84.8598" x2="234.929" y2="218.281" gradientUnits="userSpaceOnUse">
<stop stop-color="#DAE7AC"/>
<stop offset="1" stop-color="#AFB58D"/>
</linearGradient>
<linearGradient id="paint25_linear_42_43948" x1="175.39" y1="74.2898" x2="241.091" y2="205.965" gradientUnits="userSpaceOnUse">
<stop stop-color="#D6E4A3"/>
<stop offset="1" stop-color="#A7AE82"/>
</linearGradient>
<linearGradient id="paint26_linear_42_43948" x1="171.981" y1="64.3879" x2="245.29" y2="193.432" gradientUnits="userSpaceOnUse">
<stop stop-color="#D2E29A"/>
<stop offset="1" stop-color="#9FA778"/>
</linearGradient>
<linearGradient id="paint27_linear_42_43948" x1="166.926" y1="55.5099" x2="247.393" y2="181.112" gradientUnits="userSpaceOnUse">
<stop stop-color="#CDDF90"/>
<stop offset="1" stop-color="#96A06D"/>
</linearGradient>
<linearGradient id="paint28_linear_42_43948" x1="160.441" y1="47.8471" x2="247.52" y2="169.29" gradientUnits="userSpaceOnUse">
<stop stop-color="#C9DD87"/>
<stop offset="1" stop-color="#8E9A62"/>
</linearGradient>
<linearGradient id="paint29_linear_42_43948" x1="152.71" y1="41.6477" x2="245.753" y2="158.331" gradientUnits="userSpaceOnUse">
<stop stop-color="#C5DB7D"/>
<stop offset="1" stop-color="#869458"/>
</linearGradient>
<linearGradient id="paint30_linear_42_43948" x1="144.048" y1="36.9509" x2="242.365" y2="148.39" gradientUnits="userSpaceOnUse">
<stop stop-color="#C1D973"/>
<stop offset="1" stop-color="#7F8F4E"/>
</linearGradient>
<linearGradient id="paint31_linear_42_43948" x1="134.656" y1="33.9092" x2="237.509" y2="139.755" gradientUnits="userSpaceOnUse">
<stop stop-color="#BDD669"/>
<stop offset="1" stop-color="#778946"/>
</linearGradient>
<linearGradient id="paint32_linear_42_43948" x1="124.861" y1="32.4205" x2="231.525" y2="132.432" gradientUnits="userSpaceOnUse">
<stop stop-color="#B9D45E"/>
<stop offset="1" stop-color="#6F8440"/>
</linearGradient>
<linearGradient id="paint33_linear_42_43948" x1="-123.817" y1="285.052" x2="-123.817" y2="78.1137" gradientUnits="userSpaceOnUse">
<stop offset="0.021" stop-color="#4C4649"/>
<stop offset="1" stop-color="#CFD0D1"/>
</linearGradient>
<linearGradient id="paint34_linear_42_43948" x1="350.296" y1="99.9593" x2="350.296" y2="225.669" gradientUnits="userSpaceOnUse">
<stop stop-color="#F9FBF2"/>
<stop offset="1" stop-color="#F2F3EC"/>
</linearGradient>
<linearGradient id="paint35_linear_42_43948" x1="349.269" y1="100.929" x2="349.269" y2="225.553" gradientUnits="userSpaceOnUse">
<stop stop-color="#F4F8E7"/>
<stop offset="1" stop-color="#E7E8DC"/>
</linearGradient>
<linearGradient id="paint36_linear_42_43948" x1="348.349" y1="101.841" x2="348.349" y2="225.441" gradientUnits="userSpaceOnUse">
<stop stop-color="#EFF5DD"/>
<stop offset="1" stop-color="#DDDECD"/>
</linearGradient>
<linearGradient id="paint37_linear_42_43948" x1="348.107" y1="102.393" x2="348.107" y2="225.237" gradientUnits="userSpaceOnUse">
<stop stop-color="#EBF1D3"/>
<stop offset="1" stop-color="#D3D5BF"/>
</linearGradient>
<linearGradient id="paint38_linear_42_43948" x1="347.407" y1="103.146" x2="347.407" y2="225.116" gradientUnits="userSpaceOnUse">
<stop stop-color="#E6EFC9"/>
<stop offset="1" stop-color="#CBCDB2"/>
</linearGradient>
<linearGradient id="paint39_linear_42_43948" x1="346.729" y1="103.868" x2="346.729" y2="225.004" gradientUnits="userSpaceOnUse">
<stop stop-color="#E2ECC0"/>
<stop offset="1" stop-color="#C1C4A5"/>
</linearGradient>
<linearGradient id="paint40_linear_42_43948" x1="346.304" y1="104.562" x2="346.304" y2="224.903" gradientUnits="userSpaceOnUse">
<stop stop-color="#DDE9B6"/>
<stop offset="1" stop-color="#B8BD99"/>
</linearGradient>
<linearGradient id="paint41_linear_42_43948" x1="345.964" y1="105.229" x2="345.964" y2="224.81" gradientUnits="userSpaceOnUse">
<stop stop-color="#DAE7AC"/>
<stop offset="1" stop-color="#AFB58D"/>
</linearGradient>
<linearGradient id="paint42_linear_42_43948" x1="345.987" y1="105.725" x2="345.987" y2="224.68" gradientUnits="userSpaceOnUse">
<stop stop-color="#D6E4A3"/>
<stop offset="1" stop-color="#A7AE82"/>
</linearGradient>
<linearGradient id="paint43_linear_42_43948" x1="346.265" y1="106.105" x2="346.265" y2="224.527" gradientUnits="userSpaceOnUse">
<stop stop-color="#D2E29A"/>
<stop offset="1" stop-color="#9FA778"/>
</linearGradient>
<linearGradient id="paint44_linear_42_43948" x1="346.648" y1="106.45" x2="346.648" y2="224.374" gradientUnits="userSpaceOnUse">
<stop stop-color="#CDDF90"/>
<stop offset="1" stop-color="#96A06D"/>
</linearGradient>
<linearGradient id="paint45_linear_42_43948" x1="347.128" y1="106.765" x2="347.128" y2="224.226" gradientUnits="userSpaceOnUse">
<stop stop-color="#C9DD87"/>
<stop offset="1" stop-color="#8E9A62"/>
</linearGradient>
<linearGradient id="paint46_linear_42_43948" x1="347.706" y1="107.054" x2="347.706" y2="224.081" gradientUnits="userSpaceOnUse">
<stop stop-color="#C5DB7D"/>
<stop offset="1" stop-color="#869458"/>
</linearGradient>
<linearGradient id="paint47_linear_42_43948" x1="348.358" y1="107.321" x2="348.358" y2="223.939" gradientUnits="userSpaceOnUse">
<stop stop-color="#C1D973"/>
<stop offset="1" stop-color="#7F8F4E"/>
</linearGradient>
<linearGradient id="paint48_linear_42_43948" x1="349.091" y1="107.568" x2="349.091" y2="223.799" gradientUnits="userSpaceOnUse">
<stop stop-color="#BDD669"/>
<stop offset="1" stop-color="#778946"/>
</linearGradient>
<linearGradient id="paint49_linear_42_43948" x1="349.9" y1="107.796" x2="349.9" y2="223.66" gradientUnits="userSpaceOnUse">
<stop stop-color="#B9D45E"/>
<stop offset="1" stop-color="#6F8440"/>
</linearGradient>
<linearGradient id="paint50_linear_42_43948" x1="378.702" y1="-7.92454" x2="378.702" y2="90.3877" gradientUnits="userSpaceOnUse">
<stop stop-color="#B9D45E"/>
<stop offset="1" stop-color="#6F8440"/>
</linearGradient>
<linearGradient id="paint51_linear_42_43948" x1="80.988" y1="121.432" x2="161.806" y2="201.489" gradientUnits="userSpaceOnUse">
<stop stop-color="#B9D45E"/>
<stop offset="1" stop-color="#6F8440"/>
</linearGradient>
</defs>
</svg>
